999
"DXF R12 Output" (www.mydxf.blogspot.com)
 0 
SECTION
 2 
HEADER
 9 
$ACADVER
 1 
AC1009
 9 
$EXTMIN
 10 
 0 
 20 
 0 
 9 
$EXTMAX
 10 
 8.5 
 20 
 11 
 0 
ENDSEC
 0 
SECTION
 2 
ENTITIES
0
LINE
8
Layer 1
10
132.755000
20
98.258400
11
213.753000
21
98.258400
0
LINE
8
Layer 1
10
213.753000
20
98.258400
11
213.753000
21
74.258800
0
LINE
8
Layer 1
10
213.753000
20
74.258800
11
132.755000
21
74.258800
0
LINE
8
Layer 1
10
132.755000
20
74.258800
11
132.755000
21
98.258400
0
LINE
8
Layer 1
10
7.504450
20
215.261000
11
215.253000
21
215.261000
0
LINE
8
Layer 1
10
215.253000
20
215.261000
11
215.253000
21
72.759200
0
LINE
8
Layer 1
10
215.253000
20
72.759200
11
7.504450
21
72.759200
0
LINE
8
Layer 1
10
7.504450
20
72.759200
11
7.504450
21
215.261000
0
LINE
8
Layer 1
10
9.005140
20
213.760000
11
213.753000
21
213.760000
0
LINE
8
Layer 1
10
213.753000
20
213.760000
11
213.753000
21
74.258800
0
LINE
8
Layer 1
10
213.753000
20
74.258800
11
9.005140
21
74.258800
0
LINE
8
Layer 1
10
9.005140
20
74.258800
11
9.005140
21
213.760000
0
LINE
8
Layer 1
10
45.001900
20
213.760000
11
45.001900
21
215.261000
0
LINE
8
Layer 1
10
82.502500
20
213.760000
11
82.502500
21
215.261000
0
LINE
8
Layer 1
10
120.003000
20
213.760000
11
120.003000
21
215.261000
0
LINE
8
Layer 1
10
157.504000
20
213.760000
11
157.504000
21
215.261000
0
LINE
8
Layer 1
10
27.071200
20
214.066000
11
26.511000
21
214.066000
0
LINE
8
Layer 1
10
26.793200
20
214.066000
11
26.793200
21
215.043000
0
LINE
8
Layer 1
10
26.793200
20
215.043000
11
26.698100
21
214.903000
0
LINE
8
Layer 1
10
26.698100
20
214.903000
11
26.606100
21
214.808000
0
LINE
8
Layer 1
10
26.606100
20
214.808000
11
26.511000
21
214.765000
0
LINE
8
Layer 1
10
64.011600
20
214.951000
11
64.059100
21
214.995000
0
LINE
8
Layer 1
10
64.059100
20
214.995000
11
64.151100
21
215.043000
0
LINE
8
Layer 1
10
64.151100
20
215.043000
11
64.384700
21
215.043000
0
LINE
8
Layer 1
10
64.384700
20
215.043000
11
64.476700
21
214.995000
0
LINE
8
Layer 1
10
64.476700
20
214.995000
11
64.524200
21
214.951000
0
LINE
8
Layer 1
10
64.524200
20
214.951000
11
64.571800
21
214.856000
0
LINE
8
Layer 1
10
64.571800
20
214.856000
11
64.571800
21
214.765000
0
LINE
8
Layer 1
10
64.571800
20
214.765000
11
64.524200
21
214.626000
0
LINE
8
Layer 1
10
64.524200
20
214.626000
11
63.968200
21
214.066000
0
LINE
8
Layer 1
10
63.968200
20
214.066000
11
64.571800
21
214.066000
0
LINE
8
Layer 1
10
101.465000
20
215.043000
11
102.068000
21
215.043000
0
LINE
8
Layer 1
10
102.068000
20
215.043000
11
101.747000
21
214.670000
0
LINE
8
Layer 1
10
101.747000
20
214.670000
11
101.885000
21
214.670000
0
LINE
8
Layer 1
10
101.885000
20
214.670000
11
101.977000
21
214.626000
0
LINE
8
Layer 1
10
101.977000
20
214.626000
11
102.025000
21
214.578000
0
LINE
8
Layer 1
10
102.025000
20
214.578000
11
102.068000
21
214.487000
0
LINE
8
Layer 1
10
102.068000
20
214.487000
11
102.068000
21
214.253000
0
LINE
8
Layer 1
10
102.068000
20
214.253000
11
102.025000
21
214.161000
0
LINE
8
Layer 1
10
102.025000
20
214.161000
11
101.977000
21
214.114000
0
LINE
8
Layer 1
10
101.977000
20
214.114000
11
101.885000
21
214.066000
0
LINE
8
Layer 1
10
101.885000
20
214.066000
11
101.604000
21
214.066000
0
LINE
8
Layer 1
10
101.604000
20
214.066000
11
101.513000
21
214.114000
0
LINE
8
Layer 1
10
101.513000
20
214.114000
11
101.465000
21
214.161000
0
LINE
8
Layer 1
10
139.478000
20
214.717000
11
139.478000
21
214.066000
0
LINE
8
Layer 1
10
139.243000
20
215.091000
11
139.014000
21
214.392000
0
LINE
8
Layer 1
10
139.014000
20
214.392000
11
139.616000
21
214.392000
0
LINE
8
Layer 1
10
45.001900
20
74.258800
11
45.001900
21
72.759200
0
LINE
8
Layer 1
10
82.502500
20
74.258800
11
82.502500
21
72.759200
0
LINE
8
Layer 1
10
120.003000
20
74.258800
11
120.003000
21
72.759200
0
LINE
8
Layer 1
10
157.504000
20
74.258800
11
157.504000
21
72.759200
0
LINE
8
Layer 1
10
27.071200
20
73.060900
11
26.511000
21
73.060900
0
LINE
8
Layer 1
10
26.793200
20
73.060900
11
26.793200
21
74.036600
0
LINE
8
Layer 1
10
26.793200
20
74.036600
11
26.698100
21
73.898100
0
LINE
8
Layer 1
10
26.698100
20
73.898100
11
26.606100
21
73.807200
0
LINE
8
Layer 1
10
26.606100
20
73.807200
11
26.511000
21
73.759600
0
LINE
8
Layer 1
10
64.011600
20
73.945600
11
64.059100
21
73.989100
0
LINE
8
Layer 1
10
64.059100
20
73.989100
11
64.151100
21
74.036600
0
LINE
8
Layer 1
10
64.151100
20
74.036600
11
64.384700
21
74.036600
0
LINE
8
Layer 1
10
64.384700
20
74.036600
11
64.476700
21
73.989100
0
LINE
8
Layer 1
10
64.476700
20
73.989100
11
64.524200
21
73.945600
0
LINE
8
Layer 1
10
64.524200
20
73.945600
11
64.571800
21
73.850600
0
LINE
8
Layer 1
10
64.571800
20
73.850600
11
64.571800
21
73.759600
0
LINE
8
Layer 1
10
64.571800
20
73.759600
11
64.524200
21
73.620100
0
LINE
8
Layer 1
10
64.524200
20
73.620100
11
63.968200
21
73.060900
0
LINE
8
Layer 1
10
63.968200
20
73.060900
11
64.571800
21
73.060900
0
LINE
8
Layer 1
10
101.465000
20
74.036600
11
102.068000
21
74.036600
0
LINE
8
Layer 1
10
102.068000
20
74.036600
11
101.747000
21
73.663500
0
LINE
8
Layer 1
10
101.747000
20
73.663500
11
101.885000
21
73.663500
0
LINE
8
Layer 1
10
101.885000
20
73.663500
11
101.977000
21
73.620100
0
LINE
8
Layer 1
10
101.977000
20
73.620100
11
102.025000
21
73.572500
0
LINE
8
Layer 1
10
102.025000
20
73.572500
11
102.068000
21
73.481600
0
LINE
8
Layer 1
10
102.068000
20
73.481600
11
102.068000
21
73.247000
0
LINE
8
Layer 1
10
102.068000
20
73.247000
11
102.025000
21
73.156000
0
LINE
8
Layer 1
10
102.025000
20
73.156000
11
101.977000
21
73.108500
0
LINE
8
Layer 1
10
101.977000
20
73.108500
11
101.885000
21
73.060900
0
LINE
8
Layer 1
10
101.885000
20
73.060900
11
101.604000
21
73.060900
0
LINE
8
Layer 1
10
101.604000
20
73.060900
11
101.513000
21
73.108500
0
LINE
8
Layer 1
10
101.513000
20
73.108500
11
101.465000
21
73.156000
0
LINE
8
Layer 1
10
139.478000
20
73.711000
11
139.478000
21
73.060900
0
LINE
8
Layer 1
10
139.243000
20
74.084100
11
139.014000
21
73.386500
0
LINE
8
Layer 1
10
139.014000
20
73.386500
11
139.616000
21
73.386500
0
LINE
8
Layer 1
10
7.504450
20
177.765000
11
9.005140
21
177.765000
0
LINE
8
Layer 1
10
7.504450
20
140.263000
11
9.005140
21
140.263000
0
LINE
8
Layer 1
10
7.504450
20
102.762000
11
9.005140
21
102.762000
0
LINE
8
Layer 1
10
8.021220
20
196.345000
11
8.485270
21
196.345000
0
LINE
8
Layer 1
10
7.929230
20
196.068000
11
8.254790
21
197.044000
0
LINE
8
Layer 1
10
8.254790
20
197.044000
11
8.576220
21
196.068000
0
LINE
8
Layer 1
10
8.321970
20
159.079000
11
8.461500
21
159.032000
0
LINE
8
Layer 1
10
8.461500
20
159.032000
11
8.509040
21
158.984000
0
LINE
8
Layer 1
10
8.509040
20
158.984000
11
8.556580
21
158.892000
0
LINE
8
Layer 1
10
8.556580
20
158.892000
11
8.556580
21
158.754000
0
LINE
8
Layer 1
10
8.556580
20
158.754000
11
8.509040
21
158.659000
0
LINE
8
Layer 1
10
8.509040
20
158.659000
11
8.461500
21
158.615000
0
LINE
8
Layer 1
10
8.461500
20
158.615000
11
8.370550
21
158.568000
0
LINE
8
Layer 1
10
8.370550
20
158.568000
11
7.997440
21
158.568000
0
LINE
8
Layer 1
10
7.997440
20
158.568000
11
7.997440
21
159.544000
0
LINE
8
Layer 1
10
7.997440
20
159.544000
11
8.321970
21
159.544000
0
LINE
8
Layer 1
10
8.321970
20
159.544000
11
8.413960
21
159.496000
0
LINE
8
Layer 1
10
8.413960
20
159.496000
11
8.461500
21
159.448000
0
LINE
8
Layer 1
10
8.461500
20
159.448000
11
8.509040
21
159.357000
0
LINE
8
Layer 1
10
8.509040
20
159.357000
11
8.509040
21
159.266000
0
LINE
8
Layer 1
10
8.509040
20
159.266000
11
8.461500
21
159.170000
0
LINE
8
Layer 1
10
8.461500
20
159.170000
11
8.413960
21
159.123000
0
LINE
8
Layer 1
10
8.413960
20
159.123000
11
8.321970
21
159.079000
0
LINE
8
Layer 1
10
8.321970
20
159.079000
11
7.997440
21
159.079000
0
LINE
8
Layer 1
10
8.556580
20
121.162000
11
8.509040
21
121.114000
0
LINE
8
Layer 1
10
8.509040
20
121.114000
11
8.370550
21
121.066000
0
LINE
8
Layer 1
10
8.370550
20
121.066000
11
8.274430
21
121.066000
0
LINE
8
Layer 1
10
8.274430
20
121.066000
11
8.135940
21
121.114000
0
LINE
8
Layer 1
10
8.135940
20
121.114000
11
8.044990
21
121.206000
0
LINE
8
Layer 1
10
8.044990
20
121.206000
11
7.997440
21
121.301000
0
LINE
8
Layer 1
10
7.997440
20
121.301000
11
7.949900
21
121.484000
0
LINE
8
Layer 1
10
7.949900
20
121.484000
11
7.949900
21
121.626000
0
LINE
8
Layer 1
10
7.949900
20
121.626000
11
7.997440
21
121.808000
0
LINE
8
Layer 1
10
7.997440
20
121.808000
11
8.044990
21
121.904000
0
LINE
8
Layer 1
10
8.044990
20
121.904000
11
8.135940
21
121.995000
0
LINE
8
Layer 1
10
8.135940
20
121.995000
11
8.274430
21
122.043000
0
LINE
8
Layer 1
10
8.274430
20
122.043000
11
8.370550
21
122.043000
0
LINE
8
Layer 1
10
8.370550
20
122.043000
11
8.509040
21
121.995000
0
LINE
8
Layer 1
10
8.509040
20
121.995000
11
8.556580
21
121.948000
0
LINE
8
Layer 1
10
7.997440
20
83.565700
11
7.997440
21
84.542400
0
LINE
8
Layer 1
10
7.997440
20
84.542400
11
8.231020
21
84.542400
0
LINE
8
Layer 1
10
8.231020
20
84.542400
11
8.370550
21
84.494900
0
LINE
8
Layer 1
10
8.370550
20
84.494900
11
8.461500
21
84.402900
0
LINE
8
Layer 1
10
8.461500
20
84.402900
11
8.509040
21
84.311900
0
LINE
8
Layer 1
10
8.509040
20
84.311900
11
8.556580
21
84.125900
0
LINE
8
Layer 1
10
8.556580
20
84.125900
11
8.556580
21
83.986400
0
LINE
8
Layer 1
10
8.556580
20
83.986400
11
8.509040
21
83.800300
0
LINE
8
Layer 1
10
8.509040
20
83.800300
11
8.461500
21
83.705300
0
LINE
8
Layer 1
10
8.461500
20
83.705300
11
8.370550
21
83.613300
0
LINE
8
Layer 1
10
8.370550
20
83.613300
11
8.231020
21
83.565700
0
LINE
8
Layer 1
10
8.231020
20
83.565700
11
7.997440
21
83.565700
0
LINE
8
Layer 1
10
150.348000
20
77.418300
11
150.348000
21
78.541700
0
LINE
8
Layer 1
10
150.348000
20
78.541700
11
150.614000
21
78.541700
0
LINE
8
Layer 1
10
150.614000
20
78.541700
11
150.776000
21
78.490100
0
LINE
8
Layer 1
10
150.776000
20
78.490100
11
150.884000
21
78.382600
0
LINE
8
Layer 1
10
150.884000
20
78.382600
11
150.935000
21
78.275100
0
LINE
8
Layer 1
10
150.935000
20
78.275100
11
150.991000
21
78.061200
0
LINE
8
Layer 1
10
150.991000
20
78.061200
11
150.991000
21
77.898900
0
LINE
8
Layer 1
10
150.991000
20
77.898900
11
150.935000
21
77.683900
0
LINE
8
Layer 1
10
150.935000
20
77.683900
11
150.884000
21
77.577500
0
LINE
8
Layer 1
10
150.884000
20
77.577500
11
150.776000
21
77.470000
0
LINE
8
Layer 1
10
150.776000
20
77.470000
11
150.614000
21
77.418300
0
LINE
8
Layer 1
10
150.614000
20
77.418300
11
150.348000
21
77.418300
0
LINE
8
Layer 1
10
151.956000
20
77.418300
11
151.956000
21
78.005300
0
LINE
8
Layer 1
10
151.956000
20
78.005300
11
151.900000
21
78.112800
0
LINE
8
Layer 1
10
151.900000
20
78.112800
11
151.792000
21
78.168600
0
LINE
8
Layer 1
10
151.792000
20
78.168600
11
151.578000
21
78.168600
0
LINE
8
Layer 1
10
151.578000
20
78.168600
11
151.471000
21
78.112800
0
LINE
8
Layer 1
10
151.956000
20
77.470000
11
151.848000
21
77.418300
0
LINE
8
Layer 1
10
151.848000
20
77.418300
11
151.578000
21
77.418300
0
LINE
8
Layer 1
10
151.578000
20
77.418300
11
151.471000
21
77.470000
0
LINE
8
Layer 1
10
151.471000
20
77.470000
11
151.420000
21
77.577500
0
LINE
8
Layer 1
10
151.420000
20
77.577500
11
151.420000
21
77.683900
0
LINE
8
Layer 1
10
151.420000
20
77.683900
11
151.471000
21
77.791400
0
LINE
8
Layer 1
10
151.471000
20
77.791400
11
151.578000
21
77.847200
0
LINE
8
Layer 1
10
151.578000
20
77.847200
11
151.848000
21
77.847200
0
LINE
8
Layer 1
10
151.848000
20
77.847200
11
151.956000
21
77.898900
0
LINE
8
Layer 1
10
152.329000
20
78.168600
11
152.758000
21
78.168600
0
LINE
8
Layer 1
10
152.491000
20
78.541700
11
152.491000
21
77.577500
0
LINE
8
Layer 1
10
152.491000
20
77.577500
11
152.543000
21
77.470000
0
LINE
8
Layer 1
10
152.543000
20
77.470000
11
152.650000
21
77.418300
0
LINE
8
Layer 1
10
152.650000
20
77.418300
11
152.758000
21
77.418300
0
LINE
8
Layer 1
10
153.563000
20
77.470000
11
153.455000
21
77.418300
0
LINE
8
Layer 1
10
153.455000
20
77.418300
11
153.241000
21
77.418300
0
LINE
8
Layer 1
10
153.241000
20
77.418300
11
153.134000
21
77.470000
0
LINE
8
Layer 1
10
153.134000
20
77.470000
11
153.079000
21
77.577500
0
LINE
8
Layer 1
10
153.079000
20
77.577500
11
153.079000
21
78.005300
0
LINE
8
Layer 1
10
153.079000
20
78.005300
11
153.134000
21
78.112800
0
LINE
8
Layer 1
10
153.134000
20
78.112800
11
153.241000
21
78.168600
0
LINE
8
Layer 1
10
153.241000
20
78.168600
11
153.455000
21
78.168600
0
LINE
8
Layer 1
10
153.455000
20
78.168600
11
153.563000
21
78.112800
0
LINE
8
Layer 1
10
153.563000
20
78.112800
11
153.614000
21
78.005300
0
LINE
8
Layer 1
10
153.614000
20
78.005300
11
153.614000
21
77.898900
0
LINE
8
Layer 1
10
153.614000
20
77.898900
11
153.079000
21
77.791400
0
LINE
8
Layer 1
10
154.099000
20
77.525800
11
154.150000
21
77.470000
0
LINE
8
Layer 1
10
154.150000
20
77.470000
11
154.099000
21
77.418300
0
LINE
8
Layer 1
10
154.099000
20
77.418300
11
154.043000
21
77.470000
0
LINE
8
Layer 1
10
154.043000
20
77.470000
11
154.099000
21
77.525800
0
LINE
8
Layer 1
10
154.099000
20
77.525800
11
154.099000
21
77.418300
0
LINE
8
Layer 1
10
154.099000
20
78.112800
11
154.150000
21
78.061200
0
LINE
8
Layer 1
10
154.150000
20
78.061200
11
154.099000
21
78.005300
0
LINE
8
Layer 1
10
154.099000
20
78.005300
11
154.043000
21
78.061200
0
LINE
8
Layer 1
10
154.043000
20
78.061200
11
154.099000
21
78.112800
0
LINE
8
Layer 1
10
154.099000
20
78.112800
11
154.099000
21
78.005300
0
LINE
8
Layer 1
10
132.755000
20
76.882900
11
213.753000
21
76.882900
0
LINE
8
Layer 1
10
133.846000
20
75.319200
11
133.846000
21
76.441600
0
LINE
8
Layer 1
10
134.489000
20
75.319200
11
134.008000
21
75.962100
0
LINE
8
Layer 1
10
134.489000
20
76.441600
11
133.846000
21
75.798800
0
LINE
8
Layer 1
10
134.974000
20
75.319200
11
134.974000
21
76.068500
0
LINE
8
Layer 1
10
134.974000
20
76.441600
11
134.918000
21
76.389900
0
LINE
8
Layer 1
10
134.918000
20
76.389900
11
134.974000
21
76.335200
0
LINE
8
Layer 1
10
134.974000
20
76.335200
11
135.024000
21
76.389900
0
LINE
8
Layer 1
10
135.024000
20
76.389900
11
134.974000
21
76.441600
0
LINE
8
Layer 1
10
134.974000
20
76.441600
11
134.974000
21
76.335200
0
LINE
8
Layer 1
10
136.152000
20
75.425700
11
136.096000
21
75.370900
0
LINE
8
Layer 1
10
136.096000
20
75.370900
11
135.938000
21
75.319200
0
LINE
8
Layer 1
10
135.938000
20
75.319200
11
135.830000
21
75.319200
0
LINE
8
Layer 1
10
135.830000
20
75.319200
11
135.668000
21
75.370900
0
LINE
8
Layer 1
10
135.668000
20
75.370900
11
135.561000
21
75.477300
0
LINE
8
Layer 1
10
135.561000
20
75.477300
11
135.509000
21
75.584800
0
LINE
8
Layer 1
10
135.509000
20
75.584800
11
135.453000
21
75.798800
0
LINE
8
Layer 1
10
135.453000
20
75.798800
11
135.453000
21
75.962100
0
LINE
8
Layer 1
10
135.453000
20
75.962100
11
135.509000
21
76.176000
0
LINE
8
Layer 1
10
135.509000
20
76.176000
11
135.561000
21
76.283500
0
LINE
8
Layer 1
10
135.561000
20
76.283500
11
135.668000
21
76.389900
0
LINE
8
Layer 1
10
135.668000
20
76.389900
11
135.830000
21
76.441600
0
LINE
8
Layer 1
10
135.830000
20
76.441600
11
135.938000
21
76.441600
0
LINE
8
Layer 1
10
135.938000
20
76.441600
11
136.096000
21
76.389900
0
LINE
8
Layer 1
10
136.096000
20
76.389900
11
136.152000
21
76.335200
0
LINE
8
Layer 1
10
137.116000
20
75.319200
11
137.116000
21
75.906200
0
LINE
8
Layer 1
10
137.116000
20
75.906200
11
137.060000
21
76.013700
0
LINE
8
Layer 1
10
137.060000
20
76.013700
11
136.954000
21
76.068500
0
LINE
8
Layer 1
10
136.954000
20
76.068500
11
136.739000
21
76.068500
0
LINE
8
Layer 1
10
136.739000
20
76.068500
11
136.632000
21
76.013700
0
LINE
8
Layer 1
10
137.116000
20
75.370900
11
137.009000
21
75.319200
0
LINE
8
Layer 1
10
137.009000
20
75.319200
11
136.739000
21
75.319200
0
LINE
8
Layer 1
10
136.739000
20
75.319200
11
136.632000
21
75.370900
0
LINE
8
Layer 1
10
136.632000
20
75.370900
11
136.581000
21
75.477300
0
LINE
8
Layer 1
10
136.581000
20
75.477300
11
136.581000
21
75.584800
0
LINE
8
Layer 1
10
136.581000
20
75.584800
11
136.632000
21
75.692300
0
LINE
8
Layer 1
10
136.632000
20
75.692300
11
136.739000
21
75.747100
0
LINE
8
Layer 1
10
136.739000
20
75.747100
11
137.009000
21
75.747100
0
LINE
8
Layer 1
10
137.009000
20
75.747100
11
137.116000
21
75.798800
0
LINE
8
Layer 1
10
138.132000
20
75.319200
11
138.132000
21
76.441600
0
LINE
8
Layer 1
10
138.132000
20
75.370900
11
138.026000
21
75.319200
0
LINE
8
Layer 1
10
138.026000
20
75.319200
11
137.811000
21
75.319200
0
LINE
8
Layer 1
10
137.811000
20
75.319200
11
137.703000
21
75.370900
0
LINE
8
Layer 1
10
137.703000
20
75.370900
11
137.653000
21
75.425700
0
LINE
8
Layer 1
10
137.653000
20
75.425700
11
137.597000
21
75.533100
0
LINE
8
Layer 1
10
137.597000
20
75.533100
11
137.597000
21
75.854600
0
LINE
8
Layer 1
10
137.597000
20
75.854600
11
137.653000
21
75.962100
0
LINE
8
Layer 1
10
137.653000
20
75.962100
11
137.703000
21
76.013700
0
LINE
8
Layer 1
10
137.703000
20
76.013700
11
137.811000
21
76.068500
0
LINE
8
Layer 1
10
137.811000
20
76.068500
11
138.026000
21
76.068500
0
LINE
8
Layer 1
10
138.026000
20
76.068500
11
138.132000
21
76.013700
0
LINE
8
Layer 1
10
139.525000
20
75.906200
11
139.898000
21
75.906200
0
LINE
8
Layer 1
10
140.061000
20
75.319200
11
139.525000
21
75.319200
0
LINE
8
Layer 1
10
139.525000
20
75.319200
11
139.525000
21
76.441600
0
LINE
8
Layer 1
10
139.525000
20
76.441600
11
140.061000
21
76.441600
0
LINE
8
Layer 1
10
140.541000
20
75.425700
11
140.597000
21
75.370900
0
LINE
8
Layer 1
10
140.597000
20
75.370900
11
140.541000
21
75.319200
0
LINE
8
Layer 1
10
140.541000
20
75.319200
11
140.490000
21
75.370900
0
LINE
8
Layer 1
10
140.490000
20
75.370900
11
140.541000
21
75.425700
0
LINE
8
Layer 1
10
140.541000
20
75.425700
11
140.541000
21
75.319200
0
LINE
8
Layer 1
10
141.077000
20
75.319200
11
141.077000
21
76.441600
0
LINE
8
Layer 1
10
141.077000
20
76.441600
11
141.347000
21
76.441600
0
LINE
8
Layer 1
10
141.347000
20
76.441600
11
141.506000
21
76.389900
0
LINE
8
Layer 1
10
141.506000
20
76.389900
11
141.613000
21
76.283500
0
LINE
8
Layer 1
10
141.613000
20
76.283500
11
141.669000
21
76.176000
0
LINE
8
Layer 1
10
141.669000
20
76.176000
11
141.721000
21
75.962100
0
LINE
8
Layer 1
10
141.721000
20
75.962100
11
141.721000
21
75.798800
0
LINE
8
Layer 1
10
141.721000
20
75.798800
11
141.669000
21
75.584800
0
LINE
8
Layer 1
10
141.669000
20
75.584800
11
141.613000
21
75.477300
0
LINE
8
Layer 1
10
141.613000
20
75.477300
11
141.506000
21
75.370900
0
LINE
8
Layer 1
10
141.506000
20
75.370900
11
141.347000
21
75.319200
0
LINE
8
Layer 1
10
141.347000
20
75.319200
11
141.077000
21
75.319200
0
LINE
8
Layer 1
10
142.204000
20
75.425700
11
142.256000
21
75.370900
0
LINE
8
Layer 1
10
142.256000
20
75.370900
11
142.204000
21
75.319200
0
LINE
8
Layer 1
10
142.204000
20
75.319200
11
142.148000
21
75.370900
0
LINE
8
Layer 1
10
142.148000
20
75.370900
11
142.204000
21
75.425700
0
LINE
8
Layer 1
10
142.204000
20
75.425700
11
142.204000
21
75.319200
0
LINE
8
Layer 1
10
142.685000
20
75.640600
11
143.220000
21
75.640600
0
LINE
8
Layer 1
10
142.577000
20
75.319200
11
142.955000
21
76.441600
0
LINE
8
Layer 1
10
142.955000
20
76.441600
11
143.328000
21
75.319200
0
LINE
8
Layer 1
10
143.705000
20
75.425700
11
143.756000
21
75.370900
0
LINE
8
Layer 1
10
143.756000
20
75.370900
11
143.705000
21
75.319200
0
LINE
8
Layer 1
10
143.705000
20
75.319200
11
143.649000
21
75.370900
0
LINE
8
Layer 1
10
143.649000
20
75.370900
11
143.705000
21
75.425700
0
LINE
8
Layer 1
10
143.705000
20
75.425700
11
143.705000
21
75.319200
0
LINE
8
Layer 1
10
145.149000
20
75.319200
11
145.364000
21
75.319200
0
LINE
8
Layer 1
10
145.364000
20
75.319200
11
145.470000
21
75.370900
0
LINE
8
Layer 1
10
145.470000
20
75.370900
11
145.526000
21
75.425700
0
LINE
8
Layer 1
10
145.526000
20
75.425700
11
145.633000
21
75.584800
0
LINE
8
Layer 1
10
145.633000
20
75.584800
11
145.685000
21
75.798800
0
LINE
8
Layer 1
10
145.685000
20
75.798800
11
145.685000
21
76.227700
0
LINE
8
Layer 1
10
145.685000
20
76.227700
11
145.633000
21
76.335200
0
LINE
8
Layer 1
10
145.633000
20
76.335200
11
145.578000
21
76.389900
0
LINE
8
Layer 1
10
145.578000
20
76.389900
11
145.470000
21
76.441600
0
LINE
8
Layer 1
10
145.470000
20
76.441600
11
145.256000
21
76.441600
0
LINE
8
Layer 1
10
145.256000
20
76.441600
11
145.149000
21
76.389900
0
LINE
8
Layer 1
10
145.149000
20
76.389900
11
145.097000
21
76.335200
0
LINE
8
Layer 1
10
145.097000
20
76.335200
11
145.042000
21
76.227700
0
LINE
8
Layer 1
10
145.042000
20
76.227700
11
145.042000
21
75.962100
0
LINE
8
Layer 1
10
145.042000
20
75.962100
11
145.097000
21
75.854600
0
LINE
8
Layer 1
10
145.097000
20
75.854600
11
145.149000
21
75.798800
0
LINE
8
Layer 1
10
145.149000
20
75.798800
11
145.256000
21
75.747100
0
LINE
8
Layer 1
10
145.256000
20
75.747100
11
145.470000
21
75.747100
0
LINE
8
Layer 1
10
145.470000
20
75.747100
11
145.578000
21
75.798800
0
LINE
8
Layer 1
10
145.578000
20
75.798800
11
145.633000
21
75.854600
0
LINE
8
Layer 1
10
145.633000
20
75.854600
11
145.685000
21
75.962100
0
LINE
8
Layer 1
10
146.169000
20
75.425700
11
146.221000
21
75.370900
0
LINE
8
Layer 1
10
146.221000
20
75.370900
11
146.169000
21
75.319200
0
LINE
8
Layer 1
10
146.169000
20
75.319200
11
146.113000
21
75.370900
0
LINE
8
Layer 1
10
146.113000
20
75.370900
11
146.169000
21
75.425700
0
LINE
8
Layer 1
10
146.169000
20
75.425700
11
146.169000
21
75.319200
0
LINE
8
Layer 1
10
146.919000
20
76.441600
11
147.027000
21
76.441600
0
LINE
8
Layer 1
10
147.027000
20
76.441600
11
147.133000
21
76.389900
0
LINE
8
Layer 1
10
147.133000
20
76.389900
11
147.185000
21
76.335200
0
LINE
8
Layer 1
10
147.185000
20
76.335200
11
147.241000
21
76.227700
0
LINE
8
Layer 1
10
147.241000
20
76.227700
11
147.292000
21
76.013700
0
LINE
8
Layer 1
10
147.292000
20
76.013700
11
147.292000
21
75.747100
0
LINE
8
Layer 1
10
147.292000
20
75.747100
11
147.241000
21
75.533100
0
LINE
8
Layer 1
10
147.241000
20
75.533100
11
147.185000
21
75.425700
0
LINE
8
Layer 1
10
147.185000
20
75.425700
11
147.133000
21
75.370900
0
LINE
8
Layer 1
10
147.133000
20
75.370900
11
147.027000
21
75.319200
0
LINE
8
Layer 1
10
147.027000
20
75.319200
11
146.919000
21
75.319200
0
LINE
8
Layer 1
10
146.919000
20
75.319200
11
146.812000
21
75.370900
0
LINE
8
Layer 1
10
146.812000
20
75.370900
11
146.757000
21
75.425700
0
LINE
8
Layer 1
10
146.757000
20
75.425700
11
146.705000
21
75.533100
0
LINE
8
Layer 1
10
146.705000
20
75.533100
11
146.649000
21
75.747100
0
LINE
8
Layer 1
10
146.649000
20
75.747100
11
146.649000
21
76.013700
0
LINE
8
Layer 1
10
146.649000
20
76.013700
11
146.705000
21
76.227700
0
LINE
8
Layer 1
10
146.705000
20
76.227700
11
146.757000
21
76.335200
0
LINE
8
Layer 1
10
146.757000
20
76.335200
11
146.812000
21
76.389900
0
LINE
8
Layer 1
10
146.812000
20
76.389900
11
146.919000
21
76.441600
0
LINE
8
Layer 1
10
147.776000
20
75.425700
11
147.828000
21
75.370900
0
LINE
8
Layer 1
10
147.828000
20
75.370900
11
147.776000
21
75.319200
0
LINE
8
Layer 1
10
147.776000
20
75.319200
11
147.721000
21
75.370900
0
LINE
8
Layer 1
10
147.721000
20
75.370900
11
147.776000
21
75.425700
0
LINE
8
Layer 1
10
147.776000
20
75.425700
11
147.776000
21
75.319200
0
LINE
8
Layer 1
10
148.899000
20
75.319200
11
148.257000
21
75.319200
0
LINE
8
Layer 1
10
148.578000
20
75.319200
11
148.578000
21
76.441600
0
LINE
8
Layer 1
10
148.578000
20
76.441600
11
148.471000
21
76.283500
0
LINE
8
Layer 1
10
148.471000
20
76.283500
11
148.364000
21
76.176000
0
LINE
8
Layer 1
10
148.364000
20
76.176000
11
148.257000
21
76.120200
0
LINE
8
Layer 1
10
149.384000
20
75.747100
11
150.241000
21
75.747100
0
LINE
8
Layer 1
10
150.776000
20
75.319200
11
150.776000
21
76.068500
0
LINE
8
Layer 1
10
150.776000
20
75.854600
11
150.828000
21
75.962100
0
LINE
8
Layer 1
10
150.828000
20
75.962100
11
150.884000
21
76.013700
0
LINE
8
Layer 1
10
150.884000
20
76.013700
11
150.991000
21
76.068500
0
LINE
8
Layer 1
10
150.991000
20
76.068500
11
151.098000
21
76.068500
0
LINE
8
Layer 1
10
151.956000
20
75.370900
11
151.848000
21
75.319200
0
LINE
8
Layer 1
10
151.848000
20
75.319200
11
151.634000
21
75.319200
0
LINE
8
Layer 1
10
151.634000
20
75.319200
11
151.527000
21
75.370900
0
LINE
8
Layer 1
10
151.527000
20
75.370900
11
151.471000
21
75.425700
0
LINE
8
Layer 1
10
151.471000
20
75.425700
11
151.420000
21
75.533100
0
LINE
8
Layer 1
10
151.420000
20
75.533100
11
151.420000
21
75.854600
0
LINE
8
Layer 1
10
151.420000
20
75.854600
11
151.471000
21
75.962100
0
LINE
8
Layer 1
10
151.471000
20
75.962100
11
151.527000
21
76.013700
0
LINE
8
Layer 1
10
151.527000
20
76.013700
11
151.634000
21
76.068500
0
LINE
8
Layer 1
10
151.634000
20
76.068500
11
151.848000
21
76.068500
0
LINE
8
Layer 1
10
151.848000
20
76.068500
11
151.956000
21
76.013700
0
LINE
8
Layer 1
10
152.384000
20
76.335200
11
152.436000
21
76.389900
0
LINE
8
Layer 1
10
152.436000
20
76.389900
11
152.543000
21
76.441600
0
LINE
8
Layer 1
10
152.543000
20
76.441600
11
152.812000
21
76.441600
0
LINE
8
Layer 1
10
152.812000
20
76.441600
11
152.920000
21
76.389900
0
LINE
8
Layer 1
10
152.920000
20
76.389900
11
152.972000
21
76.335200
0
LINE
8
Layer 1
10
152.972000
20
76.335200
11
153.027000
21
76.227700
0
LINE
8
Layer 1
10
153.027000
20
76.227700
11
153.027000
21
76.120200
0
LINE
8
Layer 1
10
153.027000
20
76.120200
11
152.972000
21
75.962100
0
LINE
8
Layer 1
10
152.972000
20
75.962100
11
152.329000
21
75.319200
0
LINE
8
Layer 1
10
152.329000
20
75.319200
11
153.027000
21
75.319200
0
LINE
8
Layer 1
10
132.755000
20
79.132900
11
213.753000
21
79.132900
0
LINE
8
Layer 1
10
133.794000
20
77.470000
11
133.954000
21
77.418300
0
LINE
8
Layer 1
10
133.954000
20
77.418300
11
134.223000
21
77.418300
0
LINE
8
Layer 1
10
134.223000
20
77.418300
11
134.330000
21
77.470000
0
LINE
8
Layer 1
10
134.330000
20
77.470000
11
134.381000
21
77.525800
0
LINE
8
Layer 1
10
134.381000
20
77.525800
11
134.437000
21
77.632200
0
LINE
8
Layer 1
10
134.437000
20
77.632200
11
134.437000
21
77.739700
0
LINE
8
Layer 1
10
134.437000
20
77.739700
11
134.381000
21
77.847200
0
LINE
8
Layer 1
10
134.381000
20
77.847200
11
134.330000
21
77.898900
0
LINE
8
Layer 1
10
134.330000
20
77.898900
11
134.223000
21
77.953700
0
LINE
8
Layer 1
10
134.223000
20
77.953700
11
134.008000
21
78.005300
0
LINE
8
Layer 1
10
134.008000
20
78.005300
11
133.902000
21
78.061200
0
LINE
8
Layer 1
10
133.902000
20
78.061200
11
133.846000
21
78.112800
0
LINE
8
Layer 1
10
133.846000
20
78.112800
11
133.794000
21
78.220300
0
LINE
8
Layer 1
10
133.794000
20
78.220300
11
133.794000
21
78.326800
0
LINE
8
Layer 1
10
133.794000
20
78.326800
11
133.846000
21
78.434300
0
LINE
8
Layer 1
10
133.846000
20
78.434300
11
133.902000
21
78.490100
0
LINE
8
Layer 1
10
133.902000
20
78.490100
11
134.008000
21
78.541700
0
LINE
8
Layer 1
10
134.008000
20
78.541700
11
134.275000
21
78.541700
0
LINE
8
Layer 1
10
134.275000
20
78.541700
11
134.437000
21
78.490100
0
LINE
8
Layer 1
10
134.918000
20
77.418300
11
134.918000
21
78.168600
0
LINE
8
Layer 1
10
134.918000
20
78.541700
11
134.866000
21
78.490100
0
LINE
8
Layer 1
10
134.866000
20
78.490100
11
134.918000
21
78.434300
0
LINE
8
Layer 1
10
134.918000
20
78.434300
11
134.974000
21
78.490100
0
LINE
8
Layer 1
10
134.974000
20
78.490100
11
134.918000
21
78.541700
0
LINE
8
Layer 1
10
134.918000
20
78.541700
11
134.918000
21
78.434300
0
LINE
8
Layer 1
10
135.347000
20
78.168600
11
135.938000
21
78.168600
0
LINE
8
Layer 1
10
135.938000
20
78.168600
11
135.347000
21
77.418300
0
LINE
8
Layer 1
10
135.347000
20
77.418300
11
135.938000
21
77.418300
0
LINE
8
Layer 1
10
136.795000
20
77.470000
11
136.687000
21
77.418300
0
LINE
8
Layer 1
10
136.687000
20
77.418300
11
136.473000
21
77.418300
0
LINE
8
Layer 1
10
136.473000
20
77.418300
11
136.366000
21
77.470000
0
LINE
8
Layer 1
10
136.366000
20
77.470000
11
136.311000
21
77.577500
0
LINE
8
Layer 1
10
136.311000
20
77.577500
11
136.311000
21
78.005300
0
LINE
8
Layer 1
10
136.311000
20
78.005300
11
136.366000
21
78.112800
0
LINE
8
Layer 1
10
136.366000
20
78.112800
11
136.473000
21
78.168600
0
LINE
8
Layer 1
10
136.473000
20
78.168600
11
136.687000
21
78.168600
0
LINE
8
Layer 1
10
136.687000
20
78.168600
11
136.795000
21
78.112800
0
LINE
8
Layer 1
10
136.795000
20
78.112800
11
136.846000
21
78.005300
0
LINE
8
Layer 1
10
136.846000
20
78.005300
11
136.846000
21
77.898900
0
LINE
8
Layer 1
10
136.846000
20
77.898900
11
136.311000
21
77.791400
0
LINE
8
Layer 1
10
137.331000
20
77.525800
11
137.382000
21
77.470000
0
LINE
8
Layer 1
10
137.382000
20
77.470000
11
137.331000
21
77.418300
0
LINE
8
Layer 1
10
137.331000
20
77.418300
11
137.275000
21
77.470000
0
LINE
8
Layer 1
10
137.275000
20
77.470000
11
137.331000
21
77.525800
0
LINE
8
Layer 1
10
137.331000
20
77.525800
11
137.331000
21
77.418300
0
LINE
8
Layer 1
10
137.331000
20
78.112800
11
137.382000
21
78.061200
0
LINE
8
Layer 1
10
137.382000
20
78.061200
11
137.331000
21
78.005300
0
LINE
8
Layer 1
10
137.331000
20
78.005300
11
137.275000
21
78.061200
0
LINE
8
Layer 1
10
137.275000
20
78.061200
11
137.331000
21
78.112800
0
LINE
8
Layer 1
10
137.331000
20
78.112800
11
137.331000
21
78.005300
0
LINE
8
Layer 1
10
138.669000
20
77.739700
11
139.204000
21
77.739700
0
LINE
8
Layer 1
10
138.561000
20
77.418300
11
138.934000
21
78.541700
0
LINE
8
Layer 1
10
138.934000
20
78.541700
11
139.311000
21
77.418300
0
LINE
8
Layer 1
10
140.168000
20
78.168600
11
140.168000
21
77.418300
0
LINE
8
Layer 1
10
139.898000
20
78.597600
11
139.633000
21
77.791400
0
LINE
8
Layer 1
10
139.633000
20
77.791400
11
140.327000
21
77.791400
0
LINE
8
Layer 1
10
132.755000
20
82.133300
11
213.753000
21
82.133300
0
LINE
8
Layer 1
10
134.025000
20
81.605100
11
134.882000
21
81.605100
0
LINE
8
Layer 1
10
134.263000
20
80.105500
11
134.454000
21
81.605100
0
LINE
8
Layer 1
10
135.192000
20
80.105500
11
135.319000
21
81.104900
0
LINE
8
Layer 1
10
135.382000
20
81.605100
11
135.298000
21
81.533800
0
LINE
8
Layer 1
10
135.298000
20
81.533800
11
135.362000
21
81.462500
0
LINE
8
Layer 1
10
135.362000
20
81.462500
11
135.442000
21
81.533800
0
LINE
8
Layer 1
10
135.442000
20
81.533800
11
135.382000
21
81.605100
0
LINE
8
Layer 1
10
135.382000
20
81.605100
11
135.362000
21
81.462500
0
LINE
8
Layer 1
10
135.818000
20
81.104900
11
136.390000
21
81.104900
0
LINE
8
Layer 1
10
136.096000
20
81.605100
11
135.934000
21
80.319400
0
LINE
8
Layer 1
10
135.934000
20
80.319400
11
135.990000
21
80.176800
0
LINE
8
Layer 1
10
135.990000
20
80.176800
11
136.120000
21
80.105500
0
LINE
8
Layer 1
10
136.120000
20
80.105500
11
136.264000
21
80.105500
0
LINE
8
Layer 1
10
136.978000
20
80.105500
11
136.846000
21
80.176800
0
LINE
8
Layer 1
10
136.846000
20
80.176800
11
136.791000
21
80.319400
0
LINE
8
Layer 1
10
136.791000
20
80.319400
11
136.954000
21
81.605100
0
LINE
8
Layer 1
10
138.132000
20
80.176800
11
137.977000
21
80.105500
0
LINE
8
Layer 1
10
137.977000
20
80.105500
11
137.692000
21
80.105500
0
LINE
8
Layer 1
10
137.692000
20
80.105500
11
137.561000
21
80.176800
0
LINE
8
Layer 1
10
137.561000
20
80.176800
11
137.505000
21
80.319400
0
LINE
8
Layer 1
10
137.505000
20
80.319400
11
137.577000
21
80.891000
0
LINE
8
Layer 1
10
137.577000
20
80.891000
11
137.668000
21
81.033600
0
LINE
8
Layer 1
10
137.668000
20
81.033600
11
137.819000
21
81.104900
0
LINE
8
Layer 1
10
137.819000
20
81.104900
11
138.104000
21
81.104900
0
LINE
8
Layer 1
10
138.104000
20
81.104900
11
138.240000
21
81.033600
0
LINE
8
Layer 1
10
138.240000
20
81.033600
11
138.291000
21
80.891000
0
LINE
8
Layer 1
10
138.291000
20
80.891000
11
138.275000
21
80.748300
0
LINE
8
Layer 1
10
138.275000
20
80.748300
11
137.541000
21
80.605700
0
LINE
8
Layer 1
10
138.855000
20
80.248100
11
138.919000
21
80.176800
0
LINE
8
Layer 1
10
138.919000
20
80.176800
11
138.835000
21
80.105500
0
LINE
8
Layer 1
10
138.835000
20
80.105500
11
138.775000
21
80.176800
0
LINE
8
Layer 1
10
138.775000
20
80.176800
11
138.855000
21
80.248100
0
LINE
8
Layer 1
10
138.855000
20
80.248100
11
138.835000
21
80.105500
0
LINE
8
Layer 1
10
138.954000
20
81.033600
11
139.014000
21
80.962300
0
LINE
8
Layer 1
10
139.014000
20
80.962300
11
138.934000
21
80.891000
0
LINE
8
Layer 1
10
138.934000
20
80.891000
11
138.870000
21
80.962300
0
LINE
8
Layer 1
10
138.870000
20
80.962300
11
138.954000
21
81.033600
0
LINE
8
Layer 1
10
138.954000
20
81.033600
11
138.934000
21
80.891000
0
LINE
8
Layer 1
10
134.223000
20
83.558500
11
133.846000
21
83.558500
0
LINE
8
Layer 1
10
133.846000
20
82.966300
11
133.846000
21
84.093900
0
LINE
8
Layer 1
10
133.846000
20
84.093900
11
134.381000
21
84.093900
0
LINE
8
Layer 1
10
134.810000
20
82.966300
11
134.810000
21
83.716600
0
LINE
8
Layer 1
10
134.810000
20
84.093900
11
134.759000
21
84.038100
0
LINE
8
Layer 1
10
134.759000
20
84.038100
11
134.810000
21
83.986400
0
LINE
8
Layer 1
10
134.810000
20
83.986400
11
134.866000
21
84.038100
0
LINE
8
Layer 1
10
134.866000
20
84.038100
11
134.810000
21
84.093900
0
LINE
8
Layer 1
10
134.810000
20
84.093900
11
134.810000
21
83.986400
0
LINE
8
Layer 1
10
135.509000
20
82.966300
11
135.402000
21
83.022100
0
LINE
8
Layer 1
10
135.402000
20
83.022100
11
135.347000
21
83.129600
0
LINE
8
Layer 1
10
135.347000
20
83.129600
11
135.347000
21
84.093900
0
LINE
8
Layer 1
10
136.366000
20
83.022100
11
136.259000
21
82.966300
0
LINE
8
Layer 1
10
136.259000
20
82.966300
11
136.044000
21
82.966300
0
LINE
8
Layer 1
10
136.044000
20
82.966300
11
135.938000
21
83.022100
0
LINE
8
Layer 1
10
135.938000
20
83.022100
11
135.882000
21
83.129600
0
LINE
8
Layer 1
10
135.882000
20
83.129600
11
135.882000
21
83.558500
0
LINE
8
Layer 1
10
135.882000
20
83.558500
11
135.938000
21
83.664900
0
LINE
8
Layer 1
10
135.938000
20
83.664900
11
136.044000
21
83.716600
0
LINE
8
Layer 1
10
136.044000
20
83.716600
11
136.259000
21
83.716600
0
LINE
8
Layer 1
10
136.259000
20
83.716600
11
136.366000
21
83.664900
0
LINE
8
Layer 1
10
136.366000
20
83.664900
11
136.418000
21
83.558500
0
LINE
8
Layer 1
10
136.418000
20
83.558500
11
136.418000
21
83.451000
0
LINE
8
Layer 1
10
136.418000
20
83.451000
11
135.882000
21
83.343500
0
LINE
8
Layer 1
10
136.902000
20
83.073800
11
136.954000
21
83.022100
0
LINE
8
Layer 1
10
136.954000
20
83.022100
11
136.902000
21
82.966300
0
LINE
8
Layer 1
10
136.902000
20
82.966300
11
136.846000
21
83.022100
0
LINE
8
Layer 1
10
136.846000
20
83.022100
11
136.902000
21
83.073800
0
LINE
8
Layer 1
10
136.902000
20
83.073800
11
136.902000
21
82.966300
0
LINE
8
Layer 1
10
136.902000
20
83.664900
11
136.954000
21
83.609100
0
LINE
8
Layer 1
10
136.954000
20
83.609100
11
136.902000
21
83.558500
0
LINE
8
Layer 1
10
136.902000
20
83.558500
11
136.846000
21
83.609100
0
LINE
8
Layer 1
10
136.846000
20
83.609100
11
136.902000
21
83.664900
0
LINE
8
Layer 1
10
136.902000
20
83.664900
11
136.902000
21
83.558500
0
LINE
8
Layer 1
10
138.240000
20
83.022100
11
138.402000
21
82.966300
0
LINE
8
Layer 1
10
138.402000
20
82.966300
11
138.669000
21
82.966300
0
LINE
8
Layer 1
10
138.669000
20
82.966300
11
138.775000
21
83.022100
0
LINE
8
Layer 1
10
138.775000
20
83.022100
11
138.827000
21
83.073800
0
LINE
8
Layer 1
10
138.827000
20
83.073800
11
138.882000
21
83.181300
0
LINE
8
Layer 1
10
138.882000
20
83.181300
11
138.882000
21
83.287700
0
LINE
8
Layer 1
10
138.882000
20
83.287700
11
138.827000
21
83.395200
0
LINE
8
Layer 1
10
138.827000
20
83.395200
11
138.775000
21
83.451000
0
LINE
8
Layer 1
10
138.775000
20
83.451000
11
138.669000
21
83.502700
0
LINE
8
Layer 1
10
138.669000
20
83.502700
11
138.454000
21
83.558500
0
LINE
8
Layer 1
10
138.454000
20
83.558500
11
138.347000
21
83.609100
0
LINE
8
Layer 1
10
138.347000
20
83.609100
11
138.295000
21
83.664900
0
LINE
8
Layer 1
10
138.295000
20
83.664900
11
138.240000
21
83.772400
0
LINE
8
Layer 1
10
138.240000
20
83.772400
11
138.240000
21
83.879900
0
LINE
8
Layer 1
10
138.240000
20
83.879900
11
138.295000
21
83.986400
0
LINE
8
Layer 1
10
138.295000
20
83.986400
11
138.347000
21
84.038100
0
LINE
8
Layer 1
10
138.347000
20
84.038100
11
138.454000
21
84.093900
0
LINE
8
Layer 1
10
138.454000
20
84.093900
11
138.720000
21
84.093900
0
LINE
8
Layer 1
10
138.720000
20
84.093900
11
138.882000
21
84.038100
0
LINE
8
Layer 1
10
139.204000
20
83.716600
11
139.633000
21
83.716600
0
LINE
8
Layer 1
10
139.363000
20
84.093900
11
139.363000
21
83.129600
0
LINE
8
Layer 1
10
139.363000
20
83.129600
11
139.418000
21
83.022100
0
LINE
8
Layer 1
10
139.418000
20
83.022100
11
139.525000
21
82.966300
0
LINE
8
Layer 1
10
139.525000
20
82.966300
11
139.633000
21
82.966300
0
LINE
8
Layer 1
10
140.168000
20
82.966300
11
140.061000
21
83.022100
0
LINE
8
Layer 1
10
140.061000
20
83.022100
11
140.006000
21
83.073800
0
LINE
8
Layer 1
10
140.006000
20
83.073800
11
139.954000
21
83.181300
0
LINE
8
Layer 1
10
139.954000
20
83.181300
11
139.954000
21
83.502700
0
LINE
8
Layer 1
10
139.954000
20
83.502700
11
140.006000
21
83.609100
0
LINE
8
Layer 1
10
140.006000
20
83.609100
11
140.061000
21
83.664900
0
LINE
8
Layer 1
10
140.061000
20
83.664900
11
140.168000
21
83.716600
0
LINE
8
Layer 1
10
140.168000
20
83.716600
11
140.327000
21
83.716600
0
LINE
8
Layer 1
10
140.327000
20
83.716600
11
140.434000
21
83.664900
0
LINE
8
Layer 1
10
140.434000
20
83.664900
11
140.490000
21
83.609100
0
LINE
8
Layer 1
10
140.490000
20
83.609100
11
140.541000
21
83.502700
0
LINE
8
Layer 1
10
140.541000
20
83.502700
11
140.541000
21
83.181300
0
LINE
8
Layer 1
10
140.541000
20
83.181300
11
140.490000
21
83.073800
0
LINE
8
Layer 1
10
140.490000
20
83.073800
11
140.434000
21
83.022100
0
LINE
8
Layer 1
10
140.434000
20
83.022100
11
140.327000
21
82.966300
0
LINE
8
Layer 1
10
140.327000
20
82.966300
11
140.168000
21
82.966300
0
LINE
8
Layer 1
10
141.026000
20
82.966300
11
141.026000
21
83.716600
0
LINE
8
Layer 1
10
141.026000
20
83.502700
11
141.077000
21
83.609100
0
LINE
8
Layer 1
10
141.077000
20
83.609100
11
141.132000
21
83.664900
0
LINE
8
Layer 1
10
141.132000
20
83.664900
11
141.240000
21
83.716600
0
LINE
8
Layer 1
10
141.240000
20
83.716600
11
141.347000
21
83.716600
0
LINE
8
Layer 1
10
141.721000
20
82.966300
11
141.721000
21
83.716600
0
LINE
8
Layer 1
10
141.721000
20
83.609100
11
141.775000
21
83.664900
0
LINE
8
Layer 1
10
141.775000
20
83.664900
11
141.883000
21
83.716600
0
LINE
8
Layer 1
10
141.883000
20
83.716600
11
142.042000
21
83.716600
0
LINE
8
Layer 1
10
142.042000
20
83.716600
11
142.148000
21
83.664900
0
LINE
8
Layer 1
10
142.148000
20
83.664900
11
142.204000
21
83.558500
0
LINE
8
Layer 1
10
142.204000
20
83.558500
11
142.204000
21
82.966300
0
LINE
8
Layer 1
10
142.204000
20
83.558500
11
142.256000
21
83.664900
0
LINE
8
Layer 1
10
142.256000
20
83.664900
11
142.363000
21
83.716600
0
LINE
8
Layer 1
10
142.363000
20
83.716600
11
142.526000
21
83.716600
0
LINE
8
Layer 1
10
142.526000
20
83.716600
11
142.633000
21
83.664900
0
LINE
8
Layer 1
10
142.633000
20
83.664900
11
142.685000
21
83.558500
0
LINE
8
Layer 1
10
142.685000
20
83.558500
11
142.685000
21
82.966300
0
LINE
8
Layer 1
10
143.220000
20
82.966300
11
143.220000
21
84.093900
0
LINE
8
Layer 1
10
143.220000
20
83.664900
11
143.328000
21
83.716600
0
LINE
8
Layer 1
10
143.328000
20
83.716600
11
143.542000
21
83.716600
0
LINE
8
Layer 1
10
143.542000
20
83.716600
11
143.649000
21
83.664900
0
LINE
8
Layer 1
10
143.649000
20
83.664900
11
143.705000
21
83.609100
0
LINE
8
Layer 1
10
143.705000
20
83.609100
11
143.756000
21
83.502700
0
LINE
8
Layer 1
10
143.756000
20
83.502700
11
143.756000
21
83.181300
0
LINE
8
Layer 1
10
143.756000
20
83.181300
11
143.705000
21
83.073800
0
LINE
8
Layer 1
10
143.705000
20
83.073800
11
143.649000
21
83.022100
0
LINE
8
Layer 1
10
143.649000
20
83.022100
11
143.542000
21
82.966300
0
LINE
8
Layer 1
10
143.542000
20
82.966300
11
143.328000
21
82.966300
0
LINE
8
Layer 1
10
143.328000
20
82.966300
11
143.220000
21
83.022100
0
LINE
8
Layer 1
10
144.240000
20
82.966300
11
144.240000
21
83.716600
0
LINE
8
Layer 1
10
144.240000
20
83.502700
11
144.292000
21
83.609100
0
LINE
8
Layer 1
10
144.292000
20
83.609100
11
144.348000
21
83.664900
0
LINE
8
Layer 1
10
144.348000
20
83.664900
11
144.454000
21
83.716600
0
LINE
8
Layer 1
10
144.454000
20
83.716600
11
144.562000
21
83.716600
0
LINE
8
Layer 1
10
145.364000
20
83.022100
11
145.256000
21
82.966300
0
LINE
8
Layer 1
10
145.256000
20
82.966300
11
145.042000
21
82.966300
0
LINE
8
Layer 1
10
145.042000
20
82.966300
11
144.935000
21
83.022100
0
LINE
8
Layer 1
10
144.935000
20
83.022100
11
144.883000
21
83.129600
0
LINE
8
Layer 1
10
144.883000
20
83.129600
11
144.883000
21
83.558500
0
LINE
8
Layer 1
10
144.883000
20
83.558500
11
144.935000
21
83.664900
0
LINE
8
Layer 1
10
144.935000
20
83.664900
11
145.042000
21
83.716600
0
LINE
8
Layer 1
10
145.042000
20
83.716600
11
145.256000
21
83.716600
0
LINE
8
Layer 1
10
145.256000
20
83.716600
11
145.364000
21
83.664900
0
LINE
8
Layer 1
10
145.364000
20
83.664900
11
145.419000
21
83.558500
0
LINE
8
Layer 1
10
145.419000
20
83.558500
11
145.419000
21
83.451000
0
LINE
8
Layer 1
10
145.419000
20
83.451000
11
144.883000
21
83.343500
0
LINE
8
Layer 1
10
146.384000
20
82.966300
11
146.384000
21
83.558500
0
LINE
8
Layer 1
10
146.384000
20
83.558500
11
146.328000
21
83.664900
0
LINE
8
Layer 1
10
146.328000
20
83.664900
11
146.221000
21
83.716600
0
LINE
8
Layer 1
10
146.221000
20
83.716600
11
146.007000
21
83.716600
0
LINE
8
Layer 1
10
146.007000
20
83.716600
11
145.899000
21
83.664900
0
LINE
8
Layer 1
10
146.384000
20
83.022100
11
146.276000
21
82.966300
0
LINE
8
Layer 1
10
146.276000
20
82.966300
11
146.007000
21
82.966300
0
LINE
8
Layer 1
10
146.007000
20
82.966300
11
145.899000
21
83.022100
0
LINE
8
Layer 1
10
145.899000
20
83.022100
11
145.847000
21
83.129600
0
LINE
8
Layer 1
10
145.847000
20
83.129600
11
145.847000
21
83.236000
0
LINE
8
Layer 1
10
145.847000
20
83.236000
11
145.899000
21
83.343500
0
LINE
8
Layer 1
10
145.899000
20
83.343500
11
146.007000
21
83.395200
0
LINE
8
Layer 1
10
146.007000
20
83.395200
11
146.276000
21
83.395200
0
LINE
8
Layer 1
10
146.276000
20
83.395200
11
146.384000
21
83.451000
0
LINE
8
Layer 1
10
146.919000
20
82.966300
11
146.919000
21
84.093900
0
LINE
8
Layer 1
10
147.027000
20
83.395200
11
147.348000
21
82.966300
0
LINE
8
Layer 1
10
147.348000
20
83.716600
11
146.919000
21
83.287700
0
LINE
8
Layer 1
10
148.257000
20
83.022100
11
148.149000
21
82.966300
0
LINE
8
Layer 1
10
148.149000
20
82.966300
11
147.935000
21
82.966300
0
LINE
8
Layer 1
10
147.935000
20
82.966300
11
147.828000
21
83.022100
0
LINE
8
Layer 1
10
147.828000
20
83.022100
11
147.776000
21
83.129600
0
LINE
8
Layer 1
10
147.776000
20
83.129600
11
147.776000
21
83.558500
0
LINE
8
Layer 1
10
147.776000
20
83.558500
11
147.828000
21
83.664900
0
LINE
8
Layer 1
10
147.828000
20
83.664900
11
147.935000
21
83.716600
0
LINE
8
Layer 1
10
147.935000
20
83.716600
11
148.149000
21
83.716600
0
LINE
8
Layer 1
10
148.149000
20
83.716600
11
148.257000
21
83.664900
0
LINE
8
Layer 1
10
148.257000
20
83.664900
11
148.312000
21
83.558500
0
LINE
8
Layer 1
10
148.312000
20
83.558500
11
148.312000
21
83.451000
0
LINE
8
Layer 1
10
148.312000
20
83.451000
11
147.776000
21
83.343500
0
LINE
8
Layer 1
10
148.792000
20
82.966300
11
148.792000
21
83.716600
0
LINE
8
Layer 1
10
148.792000
20
83.502700
11
148.848000
21
83.609100
0
LINE
8
Layer 1
10
148.848000
20
83.609100
11
148.899000
21
83.664900
0
LINE
8
Layer 1
10
148.899000
20
83.664900
11
149.007000
21
83.716600
0
LINE
8
Layer 1
10
149.007000
20
83.716600
11
149.113000
21
83.716600
0
LINE
8
Layer 1
10
149.491000
20
83.073800
11
149.542000
21
83.022100
0
LINE
8
Layer 1
10
149.542000
20
83.022100
11
149.491000
21
82.966300
0
LINE
8
Layer 1
10
149.491000
20
82.966300
11
149.436000
21
83.022100
0
LINE
8
Layer 1
10
149.436000
20
83.022100
11
149.491000
21
83.073800
0
LINE
8
Layer 1
10
149.491000
20
83.073800
11
149.491000
21
82.966300
0
LINE
8
Layer 1
10
150.027000
20
82.966300
11
150.027000
21
84.093900
0
LINE
8
Layer 1
10
150.133000
20
83.395200
11
150.455000
21
82.966300
0
LINE
8
Layer 1
10
150.455000
20
83.716600
11
150.027000
21
83.287700
0
LINE
8
Layer 1
10
150.935000
20
82.966300
11
150.935000
21
83.716600
0
LINE
8
Layer 1
10
150.935000
20
84.093900
11
150.884000
21
84.038100
0
LINE
8
Layer 1
10
150.884000
20
84.038100
11
150.935000
21
83.986400
0
LINE
8
Layer 1
10
150.935000
20
83.986400
11
150.991000
21
84.038100
0
LINE
8
Layer 1
10
150.991000
20
84.038100
11
150.935000
21
84.093900
0
LINE
8
Layer 1
10
150.935000
20
84.093900
11
150.935000
21
83.986400
0
LINE
8
Layer 1
10
151.956000
20
83.022100
11
151.848000
21
82.966300
0
LINE
8
Layer 1
10
151.848000
20
82.966300
11
151.634000
21
82.966300
0
LINE
8
Layer 1
10
151.634000
20
82.966300
11
151.527000
21
83.022100
0
LINE
8
Layer 1
10
151.527000
20
83.022100
11
151.471000
21
83.073800
0
LINE
8
Layer 1
10
151.471000
20
83.073800
11
151.420000
21
83.181300
0
LINE
8
Layer 1
10
151.420000
20
83.181300
11
151.420000
21
83.502700
0
LINE
8
Layer 1
10
151.420000
20
83.502700
11
151.471000
21
83.609100
0
LINE
8
Layer 1
10
151.471000
20
83.609100
11
151.527000
21
83.664900
0
LINE
8
Layer 1
10
151.527000
20
83.664900
11
151.634000
21
83.716600
0
LINE
8
Layer 1
10
151.634000
20
83.716600
11
151.848000
21
83.716600
0
LINE
8
Layer 1
10
151.848000
20
83.716600
11
151.956000
21
83.664900
0
LINE
8
Layer 1
10
152.920000
20
82.966300
11
152.920000
21
83.558500
0
LINE
8
Layer 1
10
152.920000
20
83.558500
11
152.864000
21
83.664900
0
LINE
8
Layer 1
10
152.864000
20
83.664900
11
152.758000
21
83.716600
0
LINE
8
Layer 1
10
152.758000
20
83.716600
11
152.543000
21
83.716600
0
LINE
8
Layer 1
10
152.543000
20
83.716600
11
152.436000
21
83.664900
0
LINE
8
Layer 1
10
152.920000
20
83.022100
11
152.812000
21
82.966300
0
LINE
8
Layer 1
10
152.812000
20
82.966300
11
152.543000
21
82.966300
0
LINE
8
Layer 1
10
152.543000
20
82.966300
11
152.436000
21
83.022100
0
LINE
8
Layer 1
10
152.436000
20
83.022100
11
152.384000
21
83.129600
0
LINE
8
Layer 1
10
152.384000
20
83.129600
11
152.384000
21
83.236000
0
LINE
8
Layer 1
10
152.384000
20
83.236000
11
152.436000
21
83.343500
0
LINE
8
Layer 1
10
152.436000
20
83.343500
11
152.543000
21
83.395200
0
LINE
8
Layer 1
10
152.543000
20
83.395200
11
152.812000
21
83.395200
0
LINE
8
Layer 1
10
152.812000
20
83.395200
11
152.920000
21
83.451000
0
LINE
8
Layer 1
10
153.936000
20
82.966300
11
153.936000
21
84.093900
0
LINE
8
Layer 1
10
153.936000
20
83.022100
11
153.828000
21
82.966300
0
LINE
8
Layer 1
10
153.828000
20
82.966300
11
153.614000
21
82.966300
0
LINE
8
Layer 1
10
153.614000
20
82.966300
11
153.507000
21
83.022100
0
LINE
8
Layer 1
10
153.507000
20
83.022100
11
153.455000
21
83.073800
0
LINE
8
Layer 1
10
153.455000
20
83.073800
11
153.400000
21
83.181300
0
LINE
8
Layer 1
10
153.400000
20
83.181300
11
153.400000
21
83.502700
0
LINE
8
Layer 1
10
153.400000
20
83.502700
11
153.455000
21
83.609100
0
LINE
8
Layer 1
10
153.455000
20
83.609100
11
153.507000
21
83.664900
0
LINE
8
Layer 1
10
153.507000
20
83.664900
11
153.614000
21
83.716600
0
LINE
8
Layer 1
10
153.614000
20
83.716600
11
153.828000
21
83.716600
0
LINE
8
Layer 1
10
153.828000
20
83.716600
11
153.936000
21
83.664900
0
LINE
8
Layer 1
10
154.206000
20
82.859800
11
155.059000
21
82.859800
0
LINE
8
Layer 1
10
155.329000
20
83.716600
11
155.329000
21
82.593200
0
LINE
8
Layer 1
10
155.329000
20
83.664900
11
155.437000
21
83.716600
0
LINE
8
Layer 1
10
155.437000
20
83.716600
11
155.650000
21
83.716600
0
LINE
8
Layer 1
10
155.650000
20
83.716600
11
155.758000
21
83.664900
0
LINE
8
Layer 1
10
155.758000
20
83.664900
11
155.810000
21
83.609100
0
LINE
8
Layer 1
10
155.810000
20
83.609100
11
155.864000
21
83.502700
0
LINE
8
Layer 1
10
155.864000
20
83.502700
11
155.864000
21
83.181300
0
LINE
8
Layer 1
10
155.864000
20
83.181300
11
155.810000
21
83.073800
0
LINE
8
Layer 1
10
155.810000
20
83.073800
11
155.758000
21
83.022100
0
LINE
8
Layer 1
10
155.758000
20
83.022100
11
155.650000
21
82.966300
0
LINE
8
Layer 1
10
155.650000
20
82.966300
11
155.437000
21
82.966300
0
LINE
8
Layer 1
10
155.437000
20
82.966300
11
155.329000
21
83.022100
0
LINE
8
Layer 1
10
156.829000
20
83.022100
11
156.722000
21
82.966300
0
LINE
8
Layer 1
10
156.722000
20
82.966300
11
156.507000
21
82.966300
0
LINE
8
Layer 1
10
156.507000
20
82.966300
11
156.401000
21
83.022100
0
LINE
8
Layer 1
10
156.401000
20
83.022100
11
156.345000
21
83.073800
0
LINE
8
Layer 1
10
156.345000
20
83.073800
11
156.293000
21
83.181300
0
LINE
8
Layer 1
10
156.293000
20
83.181300
11
156.293000
21
83.502700
0
LINE
8
Layer 1
10
156.293000
20
83.502700
11
156.345000
21
83.609100
0
LINE
8
Layer 1
10
156.345000
20
83.609100
11
156.401000
21
83.664900
0
LINE
8
Layer 1
10
156.401000
20
83.664900
11
156.507000
21
83.716600
0
LINE
8
Layer 1
10
156.507000
20
83.716600
11
156.722000
21
83.716600
0
LINE
8
Layer 1
10
156.722000
20
83.716600
11
156.829000
21
83.664900
0
LINE
8
Layer 1
10
157.309000
20
82.966300
11
157.309000
21
84.093900
0
LINE
8
Layer 1
10
157.309000
20
83.664900
11
157.417000
21
83.716600
0
LINE
8
Layer 1
10
157.417000
20
83.716600
11
157.631000
21
83.716600
0
LINE
8
Layer 1
10
157.631000
20
83.716600
11
157.738000
21
83.664900
0
LINE
8
Layer 1
10
157.738000
20
83.664900
11
157.794000
21
83.609100
0
LINE
8
Layer 1
10
157.794000
20
83.609100
11
157.845000
21
83.502700
0
LINE
8
Layer 1
10
157.845000
20
83.502700
11
157.845000
21
83.181300
0
LINE
8
Layer 1
10
157.845000
20
83.181300
11
157.794000
21
83.073800
0
LINE
8
Layer 1
10
157.794000
20
83.073800
11
157.738000
21
83.022100
0
LINE
8
Layer 1
10
157.738000
20
83.022100
11
157.631000
21
82.966300
0
LINE
8
Layer 1
10
157.631000
20
82.966300
11
157.417000
21
82.966300
0
LINE
8
Layer 1
10
157.417000
20
82.966300
11
157.309000
21
83.022100
0
LINE
8
Layer 1
10
132.755000
20
86.634300
11
213.753000
21
86.634300
0
LINE
8
Layer 1
10
133.794000
20
85.046800
11
133.954000
21
84.995100
0
LINE
8
Layer 1
10
133.954000
20
84.995100
11
134.223000
21
84.995100
0
LINE
8
Layer 1
10
134.223000
20
84.995100
11
134.330000
21
85.046800
0
LINE
8
Layer 1
10
134.330000
20
85.046800
11
134.381000
21
85.097400
0
LINE
8
Layer 1
10
134.381000
20
85.097400
11
134.437000
21
85.204900
0
LINE
8
Layer 1
10
134.437000
20
85.204900
11
134.437000
21
85.312400
0
LINE
8
Layer 1
10
134.437000
20
85.312400
11
134.381000
21
85.418800
0
LINE
8
Layer 1
10
134.381000
20
85.418800
11
134.330000
21
85.474700
0
LINE
8
Layer 1
10
134.330000
20
85.474700
11
134.223000
21
85.526300
0
LINE
8
Layer 1
10
134.223000
20
85.526300
11
134.008000
21
85.582100
0
LINE
8
Layer 1
10
134.008000
20
85.582100
11
133.902000
21
85.633800
0
LINE
8
Layer 1
10
133.902000
20
85.633800
11
133.846000
21
85.689600
0
LINE
8
Layer 1
10
133.846000
20
85.689600
11
133.794000
21
85.796100
0
LINE
8
Layer 1
10
133.794000
20
85.796100
11
133.794000
21
85.903600
0
LINE
8
Layer 1
10
133.794000
20
85.903600
11
133.846000
21
86.011100
0
LINE
8
Layer 1
10
133.846000
20
86.011100
11
133.902000
21
86.062700
0
LINE
8
Layer 1
10
133.902000
20
86.062700
11
134.008000
21
86.117500
0
LINE
8
Layer 1
10
134.008000
20
86.117500
11
134.275000
21
86.117500
0
LINE
8
Layer 1
10
134.275000
20
86.117500
11
134.437000
21
86.062700
0
LINE
8
Layer 1
10
134.918000
20
84.995100
11
134.918000
21
86.117500
0
LINE
8
Layer 1
10
135.402000
20
84.995100
11
135.402000
21
85.582100
0
LINE
8
Layer 1
10
135.402000
20
85.582100
11
135.347000
21
85.689600
0
LINE
8
Layer 1
10
135.347000
20
85.689600
11
135.239000
21
85.741300
0
LINE
8
Layer 1
10
135.239000
20
85.741300
11
135.080000
21
85.741300
0
LINE
8
Layer 1
10
135.080000
20
85.741300
11
134.974000
21
85.689600
0
LINE
8
Layer 1
10
134.974000
20
85.689600
11
134.918000
21
85.633800
0
LINE
8
Layer 1
10
136.366000
20
85.046800
11
136.259000
21
84.995100
0
LINE
8
Layer 1
10
136.259000
20
84.995100
11
136.044000
21
84.995100
0
LINE
8
Layer 1
10
136.044000
20
84.995100
11
135.938000
21
85.046800
0
LINE
8
Layer 1
10
135.938000
20
85.046800
11
135.882000
21
85.153200
0
LINE
8
Layer 1
10
135.882000
20
85.153200
11
135.882000
21
85.582100
0
LINE
8
Layer 1
10
135.882000
20
85.582100
11
135.938000
21
85.689600
0
LINE
8
Layer 1
10
135.938000
20
85.689600
11
136.044000
21
85.741300
0
LINE
8
Layer 1
10
136.044000
20
85.741300
11
136.259000
21
85.741300
0
LINE
8
Layer 1
10
136.259000
20
85.741300
11
136.366000
21
85.689600
0
LINE
8
Layer 1
10
136.366000
20
85.689600
11
136.418000
21
85.582100
0
LINE
8
Layer 1
10
136.418000
20
85.582100
11
136.418000
21
85.474700
0
LINE
8
Layer 1
10
136.418000
20
85.474700
11
135.882000
21
85.368200
0
LINE
8
Layer 1
10
137.331000
20
85.046800
11
137.224000
21
84.995100
0
LINE
8
Layer 1
10
137.224000
20
84.995100
11
137.009000
21
84.995100
0
LINE
8
Layer 1
10
137.009000
20
84.995100
11
136.902000
21
85.046800
0
LINE
8
Layer 1
10
136.902000
20
85.046800
11
136.846000
21
85.153200
0
LINE
8
Layer 1
10
136.846000
20
85.153200
11
136.846000
21
85.582100
0
LINE
8
Layer 1
10
136.846000
20
85.582100
11
136.902000
21
85.689600
0
LINE
8
Layer 1
10
136.902000
20
85.689600
11
137.009000
21
85.741300
0
LINE
8
Layer 1
10
137.009000
20
85.741300
11
137.224000
21
85.741300
0
LINE
8
Layer 1
10
137.224000
20
85.741300
11
137.331000
21
85.689600
0
LINE
8
Layer 1
10
137.331000
20
85.689600
11
137.382000
21
85.582100
0
LINE
8
Layer 1
10
137.382000
20
85.582100
11
137.382000
21
85.474700
0
LINE
8
Layer 1
10
137.382000
20
85.474700
11
136.846000
21
85.368200
0
LINE
8
Layer 1
10
137.703000
20
85.741300
11
138.132000
21
85.741300
0
LINE
8
Layer 1
10
137.867000
20
86.117500
11
137.867000
21
85.153200
0
LINE
8
Layer 1
10
137.867000
20
85.153200
11
137.918000
21
85.046800
0
LINE
8
Layer 1
10
137.918000
20
85.046800
11
138.026000
21
84.995100
0
LINE
8
Layer 1
10
138.026000
20
84.995100
11
138.132000
21
84.995100
0
LINE
8
Layer 1
10
138.509000
20
85.097400
11
138.561000
21
85.046800
0
LINE
8
Layer 1
10
138.561000
20
85.046800
11
138.509000
21
84.995100
0
LINE
8
Layer 1
10
138.509000
20
84.995100
11
138.454000
21
85.046800
0
LINE
8
Layer 1
10
138.454000
20
85.046800
11
138.509000
21
85.097400
0
LINE
8
Layer 1
10
138.509000
20
85.097400
11
138.509000
21
84.995100
0
LINE
8
Layer 1
10
138.509000
20
85.689600
11
138.561000
21
85.633800
0
LINE
8
Layer 1
10
138.561000
20
85.633800
11
138.509000
21
85.582100
0
LINE
8
Layer 1
10
138.509000
20
85.582100
11
138.454000
21
85.633800
0
LINE
8
Layer 1
10
138.454000
20
85.633800
11
138.509000
21
85.689600
0
LINE
8
Layer 1
10
138.509000
20
85.689600
11
138.509000
21
85.582100
0
LINE
8
Layer 1
10
147.756000
20
79.132900
11
147.756000
21
76.882900
0
LINE
8
Layer 1
10
0.006201
20
222.760000
11
222.756000
21
222.760000
0
LINE
8
Layer 1
10
222.756000
20
222.760000
11
222.756000
21
65.255700
0
LINE
8
Layer 1
10
222.756000
20
65.255700
11
0.006201
21
65.255700
0
LINE
8
Layer 1
10
0.006201
20
65.255700
11
0.006201
21
222.760000
0
LINE
8
Layer 1
10
94.065600
20
176.262000
11
115.381000
21
176.262000
0
LINE
8
Layer 1
10
94.065600
20
176.263000
11
93.535400
21
176.482000
0
LINE
8
Layer 1
10
103.323000
20
177.571000
11
103.157375
21
177.171500
0
LINE
8
Layer 1
10
103.157375
20
177.171500
11
102.757000
21
177.006000
0
LINE
8
Layer 1
10
102.757000
20
177.006000
11
102.356625
21
177.171500
0
LINE
8
Layer 1
10
102.356625
20
177.171500
11
102.191000
21
177.571000
0
LINE
8
Layer 1
10
102.191000
20
177.571000
11
102.356625
21
177.972250
0
LINE
8
Layer 1
10
102.356625
20
177.972250
11
102.757000
21
178.138000
0
LINE
8
Layer 1
10
102.757000
20
178.138000
11
103.157375
21
177.972250
0
LINE
8
Layer 1
10
103.157375
20
177.972250
11
103.323000
21
177.571000
0
LINE
8
Layer 1
10
103.323000
20
177.571000
11
103.323000
21
177.571000
0
LINE
8
Layer 1
10
105.569000
20
190.696000
11
105.403375
21
190.296500
0
LINE
8
Layer 1
10
105.403375
20
190.296500
11
105.003000
21
190.131000
0
LINE
8
Layer 1
10
105.003000
20
190.131000
11
104.603500
21
190.296500
0
LINE
8
Layer 1
10
104.603500
20
190.296500
11
104.438000
21
190.696000
0
LINE
8
Layer 1
10
104.438000
20
190.696000
11
104.603500
21
191.095500
0
LINE
8
Layer 1
10
104.603500
20
191.095500
11
105.003000
21
191.261000
0
LINE
8
Layer 1
10
105.003000
20
191.261000
11
105.403375
21
191.095500
0
LINE
8
Layer 1
10
105.403375
20
191.095500
11
105.569000
21
190.696000
0
LINE
8
Layer 1
10
105.569000
20
190.696000
11
105.569000
21
190.696000
0
LINE
8
Layer 1
10
122.442000
20
192.010000
11
86.255200
21
192.010000
0
LINE
8
Layer 1
10
122.442000
20
192.010000
11
122.972625
21
191.790250
0
LINE
8
Layer 1
10
122.972625
20
191.790250
11
123.192000
21
191.260000
0
LINE
8
Layer 1
10
115.912000
20
176.481000
11
115.381000
21
176.261000
0
LINE
8
Layer 1
10
115.913000
20
176.480000
11
122.973000
21
183.541000
0
LINE
8
Layer 1
10
117.570000
20
190.696000
11
117.404500
21
190.296500
0
LINE
8
Layer 1
10
117.404500
20
190.296500
11
117.005000
21
190.131000
0
LINE
8
Layer 1
10
117.005000
20
190.131000
11
116.605000
21
190.296500
0
LINE
8
Layer 1
10
116.605000
20
190.296500
11
116.439000
21
190.696000
0
LINE
8
Layer 1
10
116.439000
20
190.696000
11
116.605000
21
191.095500
0
LINE
8
Layer 1
10
116.605000
20
191.095500
11
117.005000
21
191.261000
0
LINE
8
Layer 1
10
117.005000
20
191.261000
11
117.404500
21
191.095500
0
LINE
8
Layer 1
10
117.404500
20
191.095500
11
117.570000
21
190.696000
0
LINE
8
Layer 1
10
117.570000
20
190.696000
11
117.570000
21
190.696000
0
LINE
8
Layer 1
10
123.192000
20
184.072000
11
123.192000
21
191.260000
0
LINE
8
Layer 1
10
123.192000
20
184.072000
11
122.973000
21
183.541000
0
LINE
8
Layer 1
10
85.504900
20
191.260000
11
85.504900
21
184.823000
0
LINE
8
Layer 1
10
85.504900
20
191.260000
11
85.724650
21
191.790250
0
LINE
8
Layer 1
10
85.724650
20
191.790250
11
86.255200
21
192.010000
0
LINE
8
Layer 1
10
85.722900
20
184.290000
11
93.533300
21
176.480000
0
LINE
8
Layer 1
10
85.724000
20
184.291000
11
85.503800
21
184.823000
0
LINE
8
Layer 1
10
113.441000
20
179.203000
11
113.817000
21
179.203000
0
LINE
8
Layer 1
10
113.817000
20
179.203000
11
113.817000
21
178.865000
0
LINE
8
Layer 1
10
113.817000
20
178.865000
11
113.441000
21
178.865000
0
LINE
8
Layer 1
10
113.441000
20
178.865000
11
113.441000
21
179.203000
0
LINE
8
Layer 1
10
113.817000
20
178.865000
11
113.817000
21
179.203000
0
LINE
8
Layer 1
10
113.817000
20
179.203000
11
113.441000
21
179.203000
0
LINE
8
Layer 1
10
113.441000
20
179.203000
11
113.441000
21
178.865000
0
LINE
8
Layer 1
10
113.441000
20
178.865000
11
113.817000
21
178.865000
0
LINE
8
Layer 1
10
113.441000
20
180.366000
11
113.817000
21
180.366000
0
LINE
8
Layer 1
10
113.817000
20
180.366000
11
113.817000
21
180.028000
0
LINE
8
Layer 1
10
113.817000
20
180.028000
11
113.441000
21
180.028000
0
LINE
8
Layer 1
10
113.441000
20
180.028000
11
113.441000
21
180.366000
0
LINE
8
Layer 1
10
113.817000
20
180.028000
11
113.817000
21
180.366000
0
LINE
8
Layer 1
10
113.817000
20
180.366000
11
113.441000
21
180.366000
0
LINE
8
Layer 1
10
113.441000
20
180.366000
11
113.441000
21
180.028000
0
LINE
8
Layer 1
10
113.441000
20
180.028000
11
113.817000
21
180.028000
0
LINE
8
Layer 1
10
112.214000
20
179.120000
11
112.738000
21
179.120000
0
LINE
8
Layer 1
10
112.738000
20
179.120000
11
112.738000
21
179.029000
0
LINE
8
Layer 1
10
112.738000
20
179.029000
11
112.214000
21
179.029000
0
LINE
8
Layer 1
10
112.214000
20
179.029000
11
112.214000
21
179.120000
0
LINE
8
Layer 1
10
112.212000
20
179.031000
11
112.736000
21
179.031000
0
LINE
8
Layer 1
10
112.736000
20
179.031000
11
112.736000
21
179.122000
0
LINE
8
Layer 1
10
112.736000
20
179.122000
11
112.212000
21
179.122000
0
LINE
8
Layer 1
10
112.212000
20
179.122000
11
112.212000
21
179.031000
0
LINE
8
Layer 1
10
112.214000
20
179.497000
11
112.738000
21
179.497000
0
LINE
8
Layer 1
10
112.738000
20
179.497000
11
112.738000
21
179.402000
0
LINE
8
Layer 1
10
112.738000
20
179.402000
11
112.214000
21
179.402000
0
LINE
8
Layer 1
10
112.214000
20
179.402000
11
112.214000
21
179.497000
0
LINE
8
Layer 1
10
112.212000
20
179.404000
11
112.736000
21
179.404000
0
LINE
8
Layer 1
10
112.736000
20
179.404000
11
112.736000
21
179.499000
0
LINE
8
Layer 1
10
112.736000
20
179.499000
11
112.212000
21
179.499000
0
LINE
8
Layer 1
10
112.212000
20
179.499000
11
112.212000
21
179.404000
0
LINE
8
Layer 1
10
112.214000
20
179.870000
11
112.738000
21
179.870000
0
LINE
8
Layer 1
10
112.738000
20
179.870000
11
112.738000
21
179.775000
0
LINE
8
Layer 1
10
112.738000
20
179.775000
11
112.214000
21
179.775000
0
LINE
8
Layer 1
10
112.214000
20
179.775000
11
112.214000
21
179.870000
0
LINE
8
Layer 1
10
112.212000
20
179.776000
11
112.736000
21
179.776000
0
LINE
8
Layer 1
10
112.736000
20
179.776000
11
112.736000
21
179.872000
0
LINE
8
Layer 1
10
112.736000
20
179.872000
11
112.212000
21
179.872000
0
LINE
8
Layer 1
10
112.212000
20
179.872000
11
112.212000
21
179.776000
0
LINE
8
Layer 1
10
114.568000
20
179.203000
11
114.941000
21
179.203000
0
LINE
8
Layer 1
10
114.941000
20
179.203000
11
114.941000
21
178.865000
0
LINE
8
Layer 1
10
114.941000
20
178.865000
11
114.568000
21
178.865000
0
LINE
8
Layer 1
10
114.568000
20
178.865000
11
114.568000
21
179.203000
0
LINE
8
Layer 1
10
114.941000
20
178.865000
11
114.941000
21
179.203000
0
LINE
8
Layer 1
10
114.941000
20
179.203000
11
114.568000
21
179.203000
0
LINE
8
Layer 1
10
114.568000
20
179.203000
11
114.568000
21
178.865000
0
LINE
8
Layer 1
10
114.568000
20
178.865000
11
114.941000
21
178.865000
0
LINE
8
Layer 1
10
114.568000
20
180.366000
11
114.941000
21
180.366000
0
LINE
8
Layer 1
10
114.941000
20
180.366000
11
114.941000
21
180.028000
0
LINE
8
Layer 1
10
114.941000
20
180.028000
11
114.568000
21
180.028000
0
LINE
8
Layer 1
10
114.568000
20
180.028000
11
114.568000
21
180.366000
0
LINE
8
Layer 1
10
114.941000
20
180.028000
11
114.941000
21
180.366000
0
LINE
8
Layer 1
10
114.941000
20
180.366000
11
114.568000
21
180.366000
0
LINE
8
Layer 1
10
114.568000
20
180.366000
11
114.568000
21
180.028000
0
LINE
8
Layer 1
10
114.568000
20
180.028000
11
114.941000
21
180.028000
0
LINE
8
Layer 1
10
110.262000
20
178.615000
11
110.734000
21
178.615000
0
LINE
8
Layer 1
10
110.734000
20
178.615000
11
110.734000
21
178.143000
0
LINE
8
Layer 1
10
110.734000
20
178.143000
11
110.262000
21
178.143000
0
LINE
8
Layer 1
10
110.262000
20
178.143000
11
110.262000
21
178.615000
0
LINE
8
Layer 1
10
110.260000
20
178.145000
11
110.732000
21
178.145000
0
LINE
8
Layer 1
10
110.732000
20
178.145000
11
110.732000
21
178.617000
0
LINE
8
Layer 1
10
110.732000
20
178.617000
11
110.260000
21
178.617000
0
LINE
8
Layer 1
10
110.260000
20
178.617000
11
110.260000
21
178.145000
0
LINE
8
Layer 1
10
109.270000
20
178.369000
11
109.798000
21
178.369000
0
LINE
8
Layer 1
10
109.798000
20
178.369000
11
109.798000
21
178.278000
0
LINE
8
Layer 1
10
109.798000
20
178.278000
11
109.270000
21
178.278000
0
LINE
8
Layer 1
10
109.270000
20
178.278000
11
109.270000
21
178.369000
0
LINE
8
Layer 1
10
109.268000
20
178.280000
11
109.796000
21
178.280000
0
LINE
8
Layer 1
10
109.796000
20
178.280000
11
109.796000
21
178.371000
0
LINE
8
Layer 1
10
109.796000
20
178.371000
11
109.268000
21
178.371000
0
LINE
8
Layer 1
10
109.268000
20
178.371000
11
109.268000
21
178.280000
0
LINE
8
Layer 1
10
109.270000
20
177.996000
11
109.798000
21
177.996000
0
LINE
8
Layer 1
10
109.798000
20
177.996000
11
109.798000
21
177.901000
0
LINE
8
Layer 1
10
109.798000
20
177.901000
11
109.270000
21
177.901000
0
LINE
8
Layer 1
10
109.270000
20
177.901000
11
109.270000
21
177.996000
0
LINE
8
Layer 1
10
109.268000
20
177.903000
11
109.796000
21
177.903000
0
LINE
8
Layer 1
10
109.796000
20
177.903000
11
109.796000
21
177.998000
0
LINE
8
Layer 1
10
109.796000
20
177.998000
11
109.268000
21
177.998000
0
LINE
8
Layer 1
10
109.268000
20
177.998000
11
109.268000
21
177.903000
0
LINE
8
Layer 1
10
110.020000
20
177.675000
11
110.115000
21
177.675000
0
LINE
8
Layer 1
10
110.115000
20
177.675000
11
110.115000
21
177.151000
0
LINE
8
Layer 1
10
110.115000
20
177.151000
11
110.020000
21
177.151000
0
LINE
8
Layer 1
10
110.020000
20
177.151000
11
110.020000
21
177.675000
0
LINE
8
Layer 1
10
110.018000
20
177.153000
11
110.113000
21
177.153000
0
LINE
8
Layer 1
10
110.113000
20
177.153000
11
110.113000
21
177.677000
0
LINE
8
Layer 1
10
110.113000
20
177.677000
11
110.018000
21
177.677000
0
LINE
8
Layer 1
10
110.018000
20
177.677000
11
110.018000
21
177.153000
0
LINE
8
Layer 1
10
110.396000
20
177.675000
11
110.488000
21
177.675000
0
LINE
8
Layer 1
10
110.488000
20
177.675000
11
110.488000
21
177.151000
0
LINE
8
Layer 1
10
110.488000
20
177.151000
11
110.396000
21
177.151000
0
LINE
8
Layer 1
10
110.396000
20
177.151000
11
110.396000
21
177.675000
0
LINE
8
Layer 1
10
110.394000
20
177.153000
11
110.486000
21
177.153000
0
LINE
8
Layer 1
10
110.486000
20
177.153000
11
110.486000
21
177.677000
0
LINE
8
Layer 1
10
110.486000
20
177.677000
11
110.394000
21
177.677000
0
LINE
8
Layer 1
10
110.394000
20
177.677000
11
110.394000
21
177.153000
0
LINE
8
Layer 1
10
110.769000
20
177.675000
11
110.864000
21
177.675000
0
LINE
8
Layer 1
10
110.864000
20
177.675000
11
110.864000
21
177.151000
0
LINE
8
Layer 1
10
110.864000
20
177.151000
11
110.769000
21
177.151000
0
LINE
8
Layer 1
10
110.769000
20
177.151000
11
110.769000
21
177.675000
0
LINE
8
Layer 1
10
110.767000
20
177.153000
11
110.864000
21
177.153000
0
LINE
8
Layer 1
10
110.864000
20
177.153000
11
110.864000
21
177.677000
0
LINE
8
Layer 1
10
110.864000
20
177.677000
11
110.767000
21
177.677000
0
LINE
8
Layer 1
10
110.767000
20
177.677000
11
110.767000
21
177.153000
0
LINE
8
Layer 1
10
111.147000
20
177.675000
11
111.238000
21
177.675000
0
LINE
8
Layer 1
10
111.238000
20
177.675000
11
111.238000
21
177.151000
0
LINE
8
Layer 1
10
111.238000
20
177.151000
11
111.147000
21
177.151000
0
LINE
8
Layer 1
10
111.147000
20
177.151000
11
111.147000
21
177.675000
0
LINE
8
Layer 1
10
111.145000
20
177.153000
11
111.237000
21
177.153000
0
LINE
8
Layer 1
10
111.237000
20
177.153000
11
111.237000
21
177.677000
0
LINE
8
Layer 1
10
111.237000
20
177.677000
11
111.145000
21
177.677000
0
LINE
8
Layer 1
10
111.145000
20
177.677000
11
111.145000
21
177.153000
0
LINE
8
Layer 1
10
111.520000
20
177.675000
11
111.615000
21
177.675000
0
LINE
8
Layer 1
10
111.615000
20
177.675000
11
111.615000
21
177.151000
0
LINE
8
Layer 1
10
111.615000
20
177.151000
11
111.520000
21
177.151000
0
LINE
8
Layer 1
10
111.520000
20
177.151000
11
111.520000
21
177.675000
0
LINE
8
Layer 1
10
111.518000
20
177.153000
11
111.613000
21
177.153000
0
LINE
8
Layer 1
10
111.613000
20
177.153000
11
111.613000
21
177.677000
0
LINE
8
Layer 1
10
111.613000
20
177.677000
11
111.518000
21
177.677000
0
LINE
8
Layer 1
10
111.518000
20
177.677000
11
111.518000
21
177.153000
0
LINE
8
Layer 1
10
111.897000
20
177.675000
11
111.988000
21
177.675000
0
LINE
8
Layer 1
10
111.988000
20
177.675000
11
111.988000
21
177.151000
0
LINE
8
Layer 1
10
111.988000
20
177.151000
11
111.897000
21
177.151000
0
LINE
8
Layer 1
10
111.897000
20
177.151000
11
111.897000
21
177.675000
0
LINE
8
Layer 1
10
111.895000
20
177.153000
11
111.986000
21
177.153000
0
LINE
8
Layer 1
10
111.986000
20
177.153000
11
111.986000
21
177.677000
0
LINE
8
Layer 1
10
111.986000
20
177.677000
11
111.895000
21
177.677000
0
LINE
8
Layer 1
10
111.895000
20
177.677000
11
111.895000
21
177.153000
0
LINE
8
Layer 1
10
111.274000
20
179.627000
11
111.746000
21
179.627000
0
LINE
8
Layer 1
10
111.746000
20
179.627000
11
111.746000
21
179.156000
0
LINE
8
Layer 1
10
111.746000
20
179.156000
11
111.274000
21
179.156000
0
LINE
8
Layer 1
10
111.274000
20
179.156000
11
111.274000
21
179.627000
0
LINE
8
Layer 1
10
111.272000
20
179.157000
11
111.744000
21
179.157000
0
LINE
8
Layer 1
10
111.744000
20
179.157000
11
111.744000
21
179.629000
0
LINE
8
Layer 1
10
111.744000
20
179.629000
11
111.272000
21
179.629000
0
LINE
8
Layer 1
10
111.272000
20
179.629000
11
111.272000
21
179.157000
0
LINE
8
Layer 1
10
111.274000
20
178.615000
11
111.746000
21
178.615000
0
LINE
8
Layer 1
10
111.746000
20
178.615000
11
111.746000
21
178.143000
0
LINE
8
Layer 1
10
111.746000
20
178.143000
11
111.274000
21
178.143000
0
LINE
8
Layer 1
10
111.274000
20
178.143000
11
111.274000
21
178.615000
0
LINE
8
Layer 1
10
111.272000
20
178.145000
11
111.744000
21
178.145000
0
LINE
8
Layer 1
10
111.744000
20
178.145000
11
111.744000
21
178.617000
0
LINE
8
Layer 1
10
111.744000
20
178.617000
11
111.272000
21
178.617000
0
LINE
8
Layer 1
10
111.272000
20
178.617000
11
111.272000
21
178.145000
0
LINE
8
Layer 1
10
112.214000
20
177.996000
11
112.738000
21
177.996000
0
LINE
8
Layer 1
10
112.738000
20
177.996000
11
112.738000
21
177.901000
0
LINE
8
Layer 1
10
112.738000
20
177.901000
11
112.214000
21
177.901000
0
LINE
8
Layer 1
10
112.214000
20
177.901000
11
112.214000
21
177.996000
0
LINE
8
Layer 1
10
112.212000
20
177.903000
11
112.736000
21
177.903000
0
LINE
8
Layer 1
10
112.736000
20
177.903000
11
112.736000
21
177.998000
0
LINE
8
Layer 1
10
112.736000
20
177.998000
11
112.212000
21
177.998000
0
LINE
8
Layer 1
10
112.212000
20
177.998000
11
112.212000
21
177.903000
0
LINE
8
Layer 1
10
112.214000
20
178.369000
11
112.738000
21
178.369000
0
LINE
8
Layer 1
10
112.738000
20
178.369000
11
112.738000
21
178.278000
0
LINE
8
Layer 1
10
112.738000
20
178.278000
11
112.214000
21
178.278000
0
LINE
8
Layer 1
10
112.214000
20
178.278000
11
112.214000
21
178.369000
0
LINE
8
Layer 1
10
112.212000
20
178.280000
11
112.736000
21
178.280000
0
LINE
8
Layer 1
10
112.736000
20
178.280000
11
112.736000
21
178.371000
0
LINE
8
Layer 1
10
112.736000
20
178.371000
11
112.212000
21
178.371000
0
LINE
8
Layer 1
10
112.212000
20
178.371000
11
112.212000
21
178.280000
0
LINE
8
Layer 1
10
112.214000
20
178.747000
11
112.738000
21
178.747000
0
LINE
8
Layer 1
10
112.738000
20
178.747000
11
112.738000
21
178.651000
0
LINE
8
Layer 1
10
112.738000
20
178.651000
11
112.214000
21
178.651000
0
LINE
8
Layer 1
10
112.214000
20
178.651000
11
112.214000
21
178.747000
0
LINE
8
Layer 1
10
112.212000
20
178.653000
11
112.736000
21
178.653000
0
LINE
8
Layer 1
10
112.736000
20
178.653000
11
112.736000
21
178.749000
0
LINE
8
Layer 1
10
112.736000
20
178.749000
11
112.212000
21
178.749000
0
LINE
8
Layer 1
10
112.212000
20
178.749000
11
112.212000
21
178.653000
0
LINE
8
Layer 1
10
111.520000
20
180.619000
11
111.615000
21
180.619000
0
LINE
8
Layer 1
10
111.615000
20
180.619000
11
111.615000
21
180.096000
0
LINE
8
Layer 1
10
111.615000
20
180.096000
11
111.520000
21
180.096000
0
LINE
8
Layer 1
10
111.520000
20
180.096000
11
111.520000
21
180.619000
0
LINE
8
Layer 1
10
111.518000
20
180.098000
11
111.613000
21
180.098000
0
LINE
8
Layer 1
10
111.613000
20
180.098000
11
111.613000
21
180.621000
0
LINE
8
Layer 1
10
111.613000
20
180.621000
11
111.518000
21
180.621000
0
LINE
8
Layer 1
10
111.518000
20
180.621000
11
111.518000
21
180.098000
0
LINE
8
Layer 1
10
111.147000
20
180.619000
11
111.238000
21
180.619000
0
LINE
8
Layer 1
10
111.238000
20
180.619000
11
111.238000
21
180.096000
0
LINE
8
Layer 1
10
111.238000
20
180.096000
11
111.147000
21
180.096000
0
LINE
8
Layer 1
10
111.147000
20
180.096000
11
111.147000
21
180.619000
0
LINE
8
Layer 1
10
111.145000
20
180.098000
11
111.237000
21
180.098000
0
LINE
8
Layer 1
10
111.237000
20
180.098000
11
111.237000
21
180.621000
0
LINE
8
Layer 1
10
111.237000
20
180.621000
11
111.145000
21
180.621000
0
LINE
8
Layer 1
10
111.145000
20
180.621000
11
111.145000
21
180.098000
0
LINE
8
Layer 1
10
110.769000
20
180.619000
11
110.864000
21
180.619000
0
LINE
8
Layer 1
10
110.864000
20
180.619000
11
110.864000
21
180.096000
0
LINE
8
Layer 1
10
110.864000
20
180.096000
11
110.769000
21
180.096000
0
LINE
8
Layer 1
10
110.769000
20
180.096000
11
110.769000
21
180.619000
0
LINE
8
Layer 1
10
110.767000
20
180.098000
11
110.864000
21
180.098000
0
LINE
8
Layer 1
10
110.864000
20
180.098000
11
110.864000
21
180.621000
0
LINE
8
Layer 1
10
110.864000
20
180.621000
11
110.767000
21
180.621000
0
LINE
8
Layer 1
10
110.767000
20
180.621000
11
110.767000
21
180.098000
0
LINE
8
Layer 1
10
110.396000
20
180.619000
11
110.488000
21
180.619000
0
LINE
8
Layer 1
10
110.488000
20
180.619000
11
110.488000
21
180.096000
0
LINE
8
Layer 1
10
110.488000
20
180.096000
11
110.396000
21
180.096000
0
LINE
8
Layer 1
10
110.396000
20
180.096000
11
110.396000
21
180.619000
0
LINE
8
Layer 1
10
110.394000
20
180.098000
11
110.486000
21
180.098000
0
LINE
8
Layer 1
10
110.486000
20
180.098000
11
110.486000
21
180.621000
0
LINE
8
Layer 1
10
110.486000
20
180.621000
11
110.394000
21
180.621000
0
LINE
8
Layer 1
10
110.394000
20
180.621000
11
110.394000
21
180.098000
0
LINE
8
Layer 1
10
110.020000
20
180.619000
11
110.115000
21
180.619000
0
LINE
8
Layer 1
10
110.115000
20
180.619000
11
110.115000
21
180.096000
0
LINE
8
Layer 1
10
110.115000
20
180.096000
11
110.020000
21
180.096000
0
LINE
8
Layer 1
10
110.020000
20
180.096000
11
110.020000
21
180.619000
0
LINE
8
Layer 1
10
110.018000
20
180.098000
11
110.113000
21
180.098000
0
LINE
8
Layer 1
10
110.113000
20
180.098000
11
110.113000
21
180.621000
0
LINE
8
Layer 1
10
110.113000
20
180.621000
11
110.018000
21
180.621000
0
LINE
8
Layer 1
10
110.018000
20
180.621000
11
110.018000
21
180.098000
0
LINE
8
Layer 1
10
110.262000
20
179.627000
11
110.734000
21
179.627000
0
LINE
8
Layer 1
10
110.734000
20
179.627000
11
110.734000
21
179.156000
0
LINE
8
Layer 1
10
110.734000
20
179.156000
11
110.262000
21
179.156000
0
LINE
8
Layer 1
10
110.262000
20
179.156000
11
110.262000
21
179.627000
0
LINE
8
Layer 1
10
110.260000
20
179.157000
11
110.732000
21
179.157000
0
LINE
8
Layer 1
10
110.732000
20
179.157000
11
110.732000
21
179.629000
0
LINE
8
Layer 1
10
110.732000
20
179.629000
11
110.260000
21
179.629000
0
LINE
8
Layer 1
10
110.260000
20
179.629000
11
110.260000
21
179.157000
0
LINE
8
Layer 1
10
109.270000
20
179.870000
11
109.798000
21
179.870000
0
LINE
8
Layer 1
10
109.798000
20
179.870000
11
109.798000
21
179.775000
0
LINE
8
Layer 1
10
109.798000
20
179.775000
11
109.270000
21
179.775000
0
LINE
8
Layer 1
10
109.270000
20
179.775000
11
109.270000
21
179.870000
0
LINE
8
Layer 1
10
109.268000
20
179.776000
11
109.796000
21
179.776000
0
LINE
8
Layer 1
10
109.796000
20
179.776000
11
109.796000
21
179.872000
0
LINE
8
Layer 1
10
109.796000
20
179.872000
11
109.268000
21
179.872000
0
LINE
8
Layer 1
10
109.268000
20
179.872000
11
109.268000
21
179.776000
0
LINE
8
Layer 1
10
109.270000
20
179.497000
11
109.798000
21
179.497000
0
LINE
8
Layer 1
10
109.798000
20
179.497000
11
109.798000
21
179.402000
0
LINE
8
Layer 1
10
109.798000
20
179.402000
11
109.270000
21
179.402000
0
LINE
8
Layer 1
10
109.270000
20
179.402000
11
109.270000
21
179.497000
0
LINE
8
Layer 1
10
109.268000
20
179.404000
11
109.796000
21
179.404000
0
LINE
8
Layer 1
10
109.796000
20
179.404000
11
109.796000
21
179.499000
0
LINE
8
Layer 1
10
109.796000
20
179.499000
11
109.268000
21
179.499000
0
LINE
8
Layer 1
10
109.268000
20
179.499000
11
109.268000
21
179.404000
0
LINE
8
Layer 1
10
109.270000
20
179.120000
11
109.798000
21
179.120000
0
LINE
8
Layer 1
10
109.798000
20
179.120000
11
109.798000
21
179.029000
0
LINE
8
Layer 1
10
109.798000
20
179.029000
11
109.270000
21
179.029000
0
LINE
8
Layer 1
10
109.270000
20
179.029000
11
109.270000
21
179.120000
0
LINE
8
Layer 1
10
109.268000
20
179.031000
11
109.796000
21
179.031000
0
LINE
8
Layer 1
10
109.796000
20
179.031000
11
109.796000
21
179.122000
0
LINE
8
Layer 1
10
109.796000
20
179.122000
11
109.268000
21
179.122000
0
LINE
8
Layer 1
10
109.268000
20
179.122000
11
109.268000
21
179.031000
0
LINE
8
Layer 1
10
109.270000
20
178.747000
11
109.798000
21
178.747000
0
LINE
8
Layer 1
10
109.798000
20
178.747000
11
109.798000
21
178.651000
0
LINE
8
Layer 1
10
109.798000
20
178.651000
11
109.270000
21
178.651000
0
LINE
8
Layer 1
10
109.270000
20
178.651000
11
109.270000
21
178.747000
0
LINE
8
Layer 1
10
109.268000
20
178.653000
11
109.796000
21
178.653000
0
LINE
8
Layer 1
10
109.796000
20
178.653000
11
109.796000
21
178.749000
0
LINE
8
Layer 1
10
109.796000
20
178.749000
11
109.268000
21
178.749000
0
LINE
8
Layer 1
10
109.268000
20
178.749000
11
109.268000
21
178.653000
0
LINE
8
Layer 1
10
99.613400
20
179.497000
11
100.177000
21
179.497000
0
LINE
8
Layer 1
10
100.177000
20
179.497000
11
100.177000
21
179.402000
0
LINE
8
Layer 1
10
100.177000
20
179.402000
11
99.613400
21
179.402000
0
LINE
8
Layer 1
10
99.613400
20
179.402000
11
99.613400
21
179.497000
0
LINE
8
Layer 1
10
99.611500
20
179.404000
11
100.175000
21
179.404000
0
LINE
8
Layer 1
10
100.175000
20
179.404000
11
100.175000
21
179.499000
0
LINE
8
Layer 1
10
100.175000
20
179.499000
11
99.611500
21
179.499000
0
LINE
8
Layer 1
10
99.611500
20
179.499000
11
99.611500
21
179.404000
0
LINE
8
Layer 1
10
99.613400
20
179.870000
11
100.177000
21
179.870000
0
LINE
8
Layer 1
10
100.177000
20
179.870000
11
100.177000
21
179.775000
0
LINE
8
Layer 1
10
100.177000
20
179.775000
11
99.613400
21
179.775000
0
LINE
8
Layer 1
10
99.613400
20
179.775000
11
99.613400
21
179.870000
0
LINE
8
Layer 1
10
99.611500
20
179.776000
11
100.175000
21
179.776000
0
LINE
8
Layer 1
10
100.175000
20
179.776000
11
100.175000
21
179.872000
0
LINE
8
Layer 1
10
100.175000
20
179.872000
11
99.611500
21
179.872000
0
LINE
8
Layer 1
10
99.611500
20
179.872000
11
99.611500
21
179.776000
0
LINE
8
Layer 1
10
99.613400
20
180.247000
11
100.177000
21
180.247000
0
LINE
8
Layer 1
10
100.177000
20
180.247000
11
100.177000
21
180.151000
0
LINE
8
Layer 1
10
100.177000
20
180.151000
11
99.613400
21
180.151000
0
LINE
8
Layer 1
10
99.613400
20
180.151000
11
99.613400
21
180.247000
0
LINE
8
Layer 1
10
99.611500
20
180.153000
11
100.175000
21
180.153000
0
LINE
8
Layer 1
10
100.175000
20
180.153000
11
100.175000
21
180.248000
0
LINE
8
Layer 1
10
100.175000
20
180.248000
11
99.611500
21
180.248000
0
LINE
8
Layer 1
10
99.611500
20
180.248000
11
99.611500
21
180.153000
0
LINE
8
Layer 1
10
99.613400
20
180.619000
11
100.177000
21
180.619000
0
LINE
8
Layer 1
10
100.177000
20
180.619000
11
100.177000
21
180.524000
0
LINE
8
Layer 1
10
100.177000
20
180.524000
11
99.613400
21
180.524000
0
LINE
8
Layer 1
10
99.613400
20
180.524000
11
99.613400
21
180.619000
0
LINE
8
Layer 1
10
99.611500
20
180.526000
11
100.175000
21
180.526000
0
LINE
8
Layer 1
10
100.175000
20
180.526000
11
100.175000
21
180.621000
0
LINE
8
Layer 1
10
100.175000
20
180.621000
11
99.611500
21
180.621000
0
LINE
8
Layer 1
10
99.611500
20
180.621000
11
99.611500
21
180.526000
0
LINE
8
Layer 1
10
100.880000
20
179.993000
11
101.257000
21
179.993000
0
LINE
8
Layer 1
10
101.257000
20
179.993000
11
101.257000
21
179.655000
0
LINE
8
Layer 1
10
101.257000
20
179.655000
11
100.880000
21
179.655000
0
LINE
8
Layer 1
10
100.880000
20
179.655000
11
100.880000
21
179.993000
0
LINE
8
Layer 1
10
101.257000
20
179.655000
11
101.257000
21
179.993000
0
LINE
8
Layer 1
10
101.257000
20
179.993000
11
100.880000
21
179.993000
0
LINE
8
Layer 1
10
100.880000
20
179.993000
11
100.880000
21
179.655000
0
LINE
8
Layer 1
10
100.880000
20
179.655000
11
101.257000
21
179.655000
0
LINE
8
Layer 1
10
100.880000
20
181.156000
11
101.257000
21
181.156000
0
LINE
8
Layer 1
10
101.257000
20
181.156000
11
101.257000
21
180.818000
0
LINE
8
Layer 1
10
101.257000
20
180.818000
11
100.880000
21
180.818000
0
LINE
8
Layer 1
10
100.880000
20
180.818000
11
100.880000
21
181.156000
0
LINE
8
Layer 1
10
101.257000
20
180.818000
11
101.257000
21
181.156000
0
LINE
8
Layer 1
10
101.257000
20
181.156000
11
100.880000
21
181.156000
0
LINE
8
Layer 1
10
100.880000
20
181.156000
11
100.880000
21
180.818000
0
LINE
8
Layer 1
10
100.880000
20
180.818000
11
101.257000
21
180.818000
0
LINE
8
Layer 1
10
105.594000
20
183.378000
11
105.900000
21
183.378000
0
LINE
8
Layer 1
10
105.900000
20
183.378000
11
105.900000
21
182.632000
0
LINE
8
Layer 1
10
105.900000
20
182.632000
11
105.594000
21
182.632000
0
LINE
8
Layer 1
10
105.594000
20
182.632000
11
105.594000
21
183.378000
0
LINE
8
Layer 1
10
105.102000
20
183.378000
11
105.404000
21
183.378000
0
LINE
8
Layer 1
10
105.404000
20
183.378000
11
105.404000
21
182.632000
0
LINE
8
Layer 1
10
105.404000
20
182.632000
11
105.102000
21
182.632000
0
LINE
8
Layer 1
10
105.102000
20
182.632000
11
105.102000
21
183.378000
0
LINE
8
Layer 1
10
104.606000
20
183.378000
11
104.908000
21
183.378000
0
LINE
8
Layer 1
10
104.908000
20
183.378000
11
104.908000
21
182.632000
0
LINE
8
Layer 1
10
104.908000
20
182.632000
11
104.606000
21
182.632000
0
LINE
8
Layer 1
10
104.606000
20
182.632000
11
104.606000
21
183.378000
0
LINE
8
Layer 1
10
104.110000
20
183.378000
11
104.415000
21
183.378000
0
LINE
8
Layer 1
10
104.415000
20
183.378000
11
104.415000
21
182.632000
0
LINE
8
Layer 1
10
104.415000
20
182.632000
11
104.110000
21
182.632000
0
LINE
8
Layer 1
10
104.110000
20
182.632000
11
104.110000
21
183.378000
0
LINE
8
Layer 1
10
104.166000
20
182.156000
11
105.845000
21
182.156000
0
LINE
8
Layer 1
10
105.845000
20
182.156000
11
105.845000
21
180.866000
0
LINE
8
Layer 1
10
105.845000
20
180.866000
11
104.166000
21
180.866000
0
LINE
8
Layer 1
10
104.166000
20
180.866000
11
104.166000
21
182.156000
0
LINE
8
Layer 1
10
105.594000
20
180.481000
11
105.594000
21
180.866000
0
LINE
8
Layer 1
10
105.594000
20
180.866000
11
105.404000
21
180.866000
0
LINE
8
Layer 1
10
105.404000
20
180.866000
11
105.404000
21
180.481000
0
LINE
8
Layer 1
10
105.404000
20
180.481000
11
105.102000
21
180.481000
0
LINE
8
Layer 1
10
105.102000
20
180.481000
11
105.102000
21
180.866000
0
LINE
8
Layer 1
10
105.102000
20
180.866000
11
104.908000
21
180.866000
0
LINE
8
Layer 1
10
104.908000
20
180.866000
11
104.908000
21
180.481000
0
LINE
8
Layer 1
10
104.908000
20
180.481000
11
104.606000
21
180.481000
0
LINE
8
Layer 1
10
104.606000
20
180.481000
11
104.606000
21
180.866000
0
LINE
8
Layer 1
10
104.606000
20
180.866000
11
104.415000
21
180.866000
0
LINE
8
Layer 1
10
104.415000
20
180.866000
11
104.415000
21
180.481000
0
LINE
8
Layer 1
10
104.415000
20
180.481000
11
104.110000
21
180.481000
0
LINE
8
Layer 1
10
104.110000
20
180.481000
11
104.110000
21
181.052000
0
LINE
8
Layer 1
10
104.110000
20
181.052000
11
105.900000
21
181.052000
0
LINE
8
Layer 1
10
105.900000
20
181.052000
11
105.900000
21
180.481000
0
LINE
8
Layer 1
10
105.900000
20
180.481000
11
105.594000
21
180.481000
0
LINE
8
Layer 1
10
101.559000
20
184.700000
11
102.646000
21
184.700000
0
LINE
8
Layer 1
10
102.646000
20
184.700000
11
102.646000
21
183.949000
0
LINE
8
Layer 1
10
102.646000
20
183.949000
11
101.559000
21
183.949000
0
LINE
8
Layer 1
10
101.559000
20
183.949000
11
101.559000
21
184.700000
0
LINE
8
Layer 1
10
102.046000
20
186.009000
11
102.646000
21
186.009000
0
LINE
8
Layer 1
10
102.646000
20
186.009000
11
102.646000
21
184.886000
0
LINE
8
Layer 1
10
102.646000
20
184.886000
11
102.046000
21
184.886000
0
LINE
8
Layer 1
10
102.046000
20
184.886000
11
102.046000
21
186.009000
0
LINE
8
Layer 1
10
103.487000
20
185.037000
11
103.899000
21
185.037000
0
LINE
8
Layer 1
10
103.899000
20
185.037000
11
103.899000
21
184.736000
0
LINE
8
Layer 1
10
103.899000
20
184.736000
11
103.487000
21
184.736000
0
LINE
8
Layer 1
10
103.487000
20
184.736000
11
103.487000
21
185.037000
0
LINE
8
Layer 1
10
103.898000
20
184.737000
11
103.898000
21
185.039000
0
LINE
8
Layer 1
10
103.898000
20
185.039000
11
103.485000
21
185.039000
0
LINE
8
Layer 1
10
103.485000
20
185.039000
11
103.485000
21
184.737000
0
LINE
8
Layer 1
10
103.485000
20
184.737000
11
103.898000
21
184.737000
0
LINE
8
Layer 1
10
103.487000
20
186.272000
11
103.899000
21
186.272000
0
LINE
8
Layer 1
10
103.899000
20
186.272000
11
103.899000
21
185.974000
0
LINE
8
Layer 1
10
103.899000
20
185.974000
11
103.487000
21
185.974000
0
LINE
8
Layer 1
10
103.487000
20
185.974000
11
103.487000
21
186.272000
0
LINE
8
Layer 1
10
103.898000
20
185.976000
11
103.898000
21
186.274000
0
LINE
8
Layer 1
10
103.898000
20
186.274000
11
103.485000
21
186.274000
0
LINE
8
Layer 1
10
103.485000
20
186.274000
11
103.485000
21
185.976000
0
LINE
8
Layer 1
10
103.485000
20
185.976000
11
103.898000
21
185.976000
0
LINE
8
Layer 1
10
89.072500
20
185.148000
11
89.255400
21
184.965000
0
LINE
8
Layer 1
10
89.255400
20
184.965000
11
89.437300
21
185.148000
0
LINE
8
Layer 1
10
89.437300
20
185.148000
11
89.255400
21
185.331000
0
LINE
8
Layer 1
10
89.255400
20
185.331000
11
89.072500
21
185.148000
0
LINE
8
Layer 1
10
89.072600
20
185.148000
11
89.255500
21
184.965000
0
LINE
8
Layer 1
10
89.255500
20
184.965000
11
89.437400
21
185.148000
0
LINE
8
Layer 1
10
89.437400
20
185.148000
11
89.255500
21
185.331000
0
LINE
8
Layer 1
10
89.255500
20
185.331000
11
89.072600
21
185.148000
0
LINE
8
Layer 1
10
88.619800
20
184.700000
11
88.802700
21
184.517000
0
LINE
8
Layer 1
10
88.802700
20
184.517000
11
88.988800
21
184.700000
0
LINE
8
Layer 1
10
88.988800
20
184.700000
11
88.802700
21
184.883000
0
LINE
8
Layer 1
10
88.802700
20
184.883000
11
88.619800
21
184.700000
0
LINE
8
Layer 1
10
88.619900
20
184.700000
11
88.802800
21
184.517000
0
LINE
8
Layer 1
10
88.802800
20
184.517000
11
88.988900
21
184.700000
0
LINE
8
Layer 1
10
88.988900
20
184.700000
11
88.802800
21
184.883000
0
LINE
8
Layer 1
10
88.802800
20
184.883000
11
88.619900
21
184.700000
0
LINE
8
Layer 1
10
89.521000
20
184.700000
11
89.707100
21
184.517000
0
LINE
8
Layer 1
10
89.707100
20
184.517000
11
89.890000
21
184.700000
0
LINE
8
Layer 1
10
89.890000
20
184.700000
11
89.707100
21
184.883000
0
LINE
8
Layer 1
10
89.707100
20
184.883000
11
89.521000
21
184.700000
0
LINE
8
Layer 1
10
89.521200
20
184.700000
11
89.707200
21
184.517000
0
LINE
8
Layer 1
10
89.707200
20
184.517000
11
89.890100
21
184.700000
0
LINE
8
Layer 1
10
89.890100
20
184.700000
11
89.707200
21
184.883000
0
LINE
8
Layer 1
10
89.707200
20
184.883000
11
89.521200
21
184.700000
0
LINE
8
Layer 1
10
89.072500
20
184.247000
11
89.255400
21
184.065000
0
LINE
8
Layer 1
10
89.255400
20
184.065000
11
89.437300
21
184.247000
0
LINE
8
Layer 1
10
89.437300
20
184.247000
11
89.255400
21
184.430000
0
LINE
8
Layer 1
10
89.255400
20
184.430000
11
89.072500
21
184.247000
0
LINE
8
Layer 1
10
89.072600
20
184.247000
11
89.255500
21
184.065000
0
LINE
8
Layer 1
10
89.255500
20
184.065000
11
89.437400
21
184.247000
0
LINE
8
Layer 1
10
89.437400
20
184.247000
11
89.255500
21
184.430000
0
LINE
8
Layer 1
10
89.255500
20
184.430000
11
89.072600
21
184.247000
0
LINE
8
Layer 1
10
88.967100
20
185.890000
11
88.910200
21
185.832000
0
LINE
8
Layer 1
10
88.910200
20
185.832000
11
88.852300
21
185.890000
0
LINE
8
Layer 1
10
88.852300
20
185.890000
11
88.910200
21
185.948000
0
LINE
8
Layer 1
10
88.910200
20
185.948000
11
88.967100
21
185.890000
0
LINE
8
Layer 1
10
88.967100
20
185.890000
11
88.967100
21
185.890000
0
LINE
8
Layer 1
10
88.751100
20
186.104000
11
89.096300
21
185.759000
0
LINE
8
Layer 1
10
89.096300
20
185.759000
11
89.096300
21
185.704000
0
LINE
8
Layer 1
10
89.096300
20
185.704000
11
89.068400
21
185.679000
0
LINE
8
Layer 1
10
89.068400
20
185.679000
11
88.699400
21
186.049000
0
LINE
8
Layer 1
10
88.699400
20
186.049000
11
88.751100
21
186.104000
0
LINE
8
Layer 1
10
88.751200
20
186.104000
11
89.096400
21
185.759000
0
LINE
8
Layer 1
10
89.096400
20
185.759000
11
89.096400
21
185.704000
0
LINE
8
Layer 1
10
89.096400
20
185.704000
11
89.068500
21
185.679000
0
LINE
8
Layer 1
10
89.068500
20
185.679000
11
88.699500
21
186.049000
0
LINE
8
Layer 1
10
88.699500
20
186.049000
11
88.751200
21
186.104000
0
LINE
8
Layer 1
10
88.485400
20
185.839000
11
88.858500
21
185.466000
0
LINE
8
Layer 1
10
88.858500
20
185.466000
11
88.910200
21
185.521000
0
LINE
8
Layer 1
10
88.910200
20
185.521000
11
88.540200
21
185.890000
0
LINE
8
Layer 1
10
88.540200
20
185.890000
11
88.485400
21
185.839000
0
LINE
8
Layer 1
10
88.485600
20
185.839000
11
88.858700
21
185.465000
0
LINE
8
Layer 1
10
88.858700
20
185.465000
11
88.910300
21
185.521000
0
LINE
8
Layer 1
10
88.910300
20
185.521000
11
88.540300
21
185.890000
0
LINE
8
Layer 1
10
88.540300
20
185.890000
11
88.485600
21
185.839000
0
LINE
8
Layer 1
10
88.274600
20
185.625000
11
88.643600
21
185.256000
0
LINE
8
Layer 1
10
88.643600
20
185.256000
11
88.699400
21
185.307000
0
LINE
8
Layer 1
10
88.699400
20
185.307000
11
88.326300
21
185.679000
0
LINE
8
Layer 1
10
88.326300
20
185.679000
11
88.274600
21
185.625000
0
LINE
8
Layer 1
10
88.274700
20
185.625000
11
88.643700
21
185.256000
0
LINE
8
Layer 1
10
88.643700
20
185.256000
11
88.699500
21
185.307000
0
LINE
8
Layer 1
10
88.699500
20
185.307000
11
88.326400
21
185.679000
0
LINE
8
Layer 1
10
88.326400
20
185.679000
11
88.274700
21
185.625000
0
LINE
8
Layer 1
10
88.060700
20
185.414000
11
88.433800
21
185.045000
0
LINE
8
Layer 1
10
88.433800
20
185.045000
11
88.485400
21
185.097000
0
LINE
8
Layer 1
10
88.485400
20
185.097000
11
88.116500
21
185.466000
0
LINE
8
Layer 1
10
88.116500
20
185.466000
11
88.060700
21
185.414000
0
LINE
8
Layer 1
10
88.060800
20
185.414000
11
88.433900
21
185.045000
0
LINE
8
Layer 1
10
88.433900
20
185.045000
11
88.485600
21
185.096000
0
LINE
8
Layer 1
10
88.485600
20
185.096000
11
88.116600
21
185.465000
0
LINE
8
Layer 1
10
88.116600
20
185.465000
11
88.060800
21
185.414000
0
LINE
8
Layer 1
10
88.118500
20
185.045000
11
88.060700
21
184.987000
0
LINE
8
Layer 1
10
88.060700
20
184.987000
11
88.002800
21
185.045000
0
LINE
8
Layer 1
10
88.002800
20
185.045000
11
88.060700
21
185.103000
0
LINE
8
Layer 1
10
88.060700
20
185.103000
11
88.118500
21
185.045000
0
LINE
8
Layer 1
10
88.118500
20
185.045000
11
88.118500
21
185.045000
0
LINE
8
Layer 1
10
87.901500
20
185.256000
11
88.274600
21
184.883000
0
LINE
8
Layer 1
10
88.274600
20
184.883000
11
88.246700
21
184.859000
0
LINE
8
Layer 1
10
88.246700
20
184.859000
11
88.195000
21
184.859000
0
LINE
8
Layer 1
10
88.195000
20
184.859000
11
87.849800
21
185.204000
0
LINE
8
Layer 1
10
87.849800
20
185.204000
11
87.901500
21
185.256000
0
LINE
8
Layer 1
10
87.901600
20
185.256000
11
88.274700
21
184.883000
0
LINE
8
Layer 1
10
88.274700
20
184.883000
11
88.246800
21
184.859000
0
LINE
8
Layer 1
10
88.246800
20
184.859000
11
88.195100
21
184.859000
0
LINE
8
Layer 1
10
88.195100
20
184.859000
11
87.849900
21
185.204000
0
LINE
8
Layer 1
10
87.849900
20
185.204000
11
87.901600
21
185.256000
0
LINE
8
Layer 1
10
88.118500
20
184.354000
11
88.060700
21
184.297000
0
LINE
8
Layer 1
10
88.060700
20
184.297000
11
88.002800
21
184.354000
0
LINE
8
Layer 1
10
88.002800
20
184.354000
11
88.060700
21
184.412000
0
LINE
8
Layer 1
10
88.060700
20
184.412000
11
88.118500
21
184.354000
0
LINE
8
Layer 1
10
88.118500
20
184.354000
11
88.118500
21
184.354000
0
LINE
8
Layer 1
10
88.195000
20
184.537000
11
88.246700
21
184.537000
0
LINE
8
Layer 1
10
88.246700
20
184.537000
11
88.274600
21
184.514000
0
LINE
8
Layer 1
10
88.274600
20
184.514000
11
87.901500
21
184.141000
0
LINE
8
Layer 1
10
87.901500
20
184.141000
11
87.849800
21
184.195000
0
LINE
8
Layer 1
10
87.849800
20
184.195000
11
88.195000
21
184.537000
0
LINE
8
Layer 1
10
88.195100
20
184.537000
11
88.246800
21
184.537000
0
LINE
8
Layer 1
10
88.246800
20
184.537000
11
88.274700
21
184.514000
0
LINE
8
Layer 1
10
88.274700
20
184.514000
11
87.901600
21
184.140000
0
LINE
8
Layer 1
10
87.901600
20
184.140000
11
87.849900
21
184.195000
0
LINE
8
Layer 1
10
87.849900
20
184.195000
11
88.195100
21
184.537000
0
LINE
8
Layer 1
10
88.060700
20
183.981000
11
88.116500
21
183.930000
0
LINE
8
Layer 1
10
88.116500
20
183.930000
11
88.485400
21
184.299000
0
LINE
8
Layer 1
10
88.485400
20
184.299000
11
88.433800
21
184.354000
0
LINE
8
Layer 1
10
88.433800
20
184.354000
11
88.060700
21
183.981000
0
LINE
8
Layer 1
10
88.060800
20
183.981000
11
88.116600
21
183.930000
0
LINE
8
Layer 1
10
88.116600
20
183.930000
11
88.485600
21
184.299000
0
LINE
8
Layer 1
10
88.485600
20
184.299000
11
88.433900
21
184.354000
0
LINE
8
Layer 1
10
88.433900
20
184.354000
11
88.060800
21
183.981000
0
LINE
8
Layer 1
10
88.274600
20
183.771000
11
88.326300
21
183.716000
0
LINE
8
Layer 1
10
88.326300
20
183.716000
11
88.699400
21
184.089000
0
LINE
8
Layer 1
10
88.699400
20
184.089000
11
88.643600
21
184.141000
0
LINE
8
Layer 1
10
88.643600
20
184.141000
11
88.274600
21
183.771000
0
LINE
8
Layer 1
10
88.274700
20
183.770000
11
88.326400
21
183.716000
0
LINE
8
Layer 1
10
88.326400
20
183.716000
11
88.699500
21
184.089000
0
LINE
8
Layer 1
10
88.699500
20
184.089000
11
88.643700
21
184.140000
0
LINE
8
Layer 1
10
88.643700
20
184.140000
11
88.274700
21
183.770000
0
LINE
8
Layer 1
10
88.485400
20
183.557000
11
88.540200
21
183.505000
0
LINE
8
Layer 1
10
88.540200
20
183.505000
11
88.910200
21
183.878000
0
LINE
8
Layer 1
10
88.910200
20
183.878000
11
88.858500
21
183.930000
0
LINE
8
Layer 1
10
88.858500
20
183.930000
11
88.485400
21
183.557000
0
LINE
8
Layer 1
10
88.485600
20
183.557000
11
88.540300
21
183.505000
0
LINE
8
Layer 1
10
88.540300
20
183.505000
11
88.910300
21
183.878000
0
LINE
8
Layer 1
10
88.910300
20
183.878000
11
88.858700
21
183.930000
0
LINE
8
Layer 1
10
88.858700
20
183.930000
11
88.485600
21
183.557000
0
LINE
8
Layer 1
10
88.967100
20
183.505000
11
88.910200
21
183.447000
0
LINE
8
Layer 1
10
88.910200
20
183.447000
11
88.852300
21
183.505000
0
LINE
8
Layer 1
10
88.852300
20
183.505000
11
88.910200
21
183.563000
0
LINE
8
Layer 1
10
88.910200
20
183.563000
11
88.967100
21
183.505000
0
LINE
8
Layer 1
10
88.967100
20
183.505000
11
88.967100
21
183.505000
0
LINE
8
Layer 1
10
89.068400
20
183.716000
11
89.096300
21
183.692000
0
LINE
8
Layer 1
10
89.096300
20
183.692000
11
89.096300
21
183.636000
0
LINE
8
Layer 1
10
89.096300
20
183.636000
11
88.751100
21
183.295000
0
LINE
8
Layer 1
10
88.751100
20
183.295000
11
88.699400
21
183.347000
0
LINE
8
Layer 1
10
88.699400
20
183.347000
11
89.068400
21
183.716000
0
LINE
8
Layer 1
10
89.068500
20
183.716000
11
89.096400
21
183.692000
0
LINE
8
Layer 1
10
89.096400
20
183.692000
11
89.096400
21
183.636000
0
LINE
8
Layer 1
10
89.096400
20
183.636000
11
88.751200
21
183.295000
0
LINE
8
Layer 1
10
88.751200
20
183.295000
11
88.699500
21
183.347000
0
LINE
8
Layer 1
10
88.699500
20
183.347000
11
89.068500
21
183.716000
0
LINE
8
Layer 1
10
89.657500
20
183.505000
11
89.600600
21
183.447000
0
LINE
8
Layer 1
10
89.600600
20
183.447000
11
89.542700
21
183.505000
0
LINE
8
Layer 1
10
89.542700
20
183.505000
11
89.600600
21
183.563000
0
LINE
8
Layer 1
10
89.600600
20
183.563000
11
89.657500
21
183.505000
0
LINE
8
Layer 1
10
89.657500
20
183.505000
11
89.657500
21
183.505000
0
LINE
8
Layer 1
10
89.441500
20
183.716000
11
89.810400
21
183.347000
0
LINE
8
Layer 1
10
89.810400
20
183.347000
11
89.758700
21
183.295000
0
LINE
8
Layer 1
10
89.758700
20
183.295000
11
89.413600
21
183.636000
0
LINE
8
Layer 1
10
89.413600
20
183.636000
11
89.413600
21
183.692000
0
LINE
8
Layer 1
10
89.413600
20
183.692000
11
89.441500
21
183.716000
0
LINE
8
Layer 1
10
89.441600
20
183.716000
11
89.810500
21
183.347000
0
LINE
8
Layer 1
10
89.810500
20
183.347000
11
89.758900
21
183.295000
0
LINE
8
Layer 1
10
89.758900
20
183.295000
11
89.413700
21
183.636000
0
LINE
8
Layer 1
10
89.413700
20
183.636000
11
89.413700
21
183.692000
0
LINE
8
Layer 1
10
89.413700
20
183.692000
11
89.441600
21
183.716000
0
LINE
8
Layer 1
10
89.600600
20
183.878000
11
89.969600
21
183.505000
0
LINE
8
Layer 1
10
89.969600
20
183.505000
11
90.025400
21
183.557000
0
LINE
8
Layer 1
10
90.025400
20
183.557000
11
89.652300
21
183.930000
0
LINE
8
Layer 1
10
89.652300
20
183.930000
11
89.600600
21
183.878000
0
LINE
8
Layer 1
10
89.600700
20
183.878000
11
89.969700
21
183.505000
0
LINE
8
Layer 1
10
89.969700
20
183.505000
11
90.025500
21
183.557000
0
LINE
8
Layer 1
10
90.025500
20
183.557000
11
89.652400
21
183.930000
0
LINE
8
Layer 1
10
89.652400
20
183.930000
11
89.600700
21
183.878000
0
LINE
8
Layer 1
10
89.810400
20
184.089000
11
90.183500
21
183.716000
0
LINE
8
Layer 1
10
90.183500
20
183.716000
11
90.235200
21
183.771000
0
LINE
8
Layer 1
10
90.235200
20
183.771000
11
89.866200
21
184.141000
0
LINE
8
Layer 1
10
89.866200
20
184.141000
11
89.810400
21
184.089000
0
LINE
8
Layer 1
10
89.810500
20
184.089000
11
90.183600
21
183.716000
0
LINE
8
Layer 1
10
90.183600
20
183.716000
11
90.235300
21
183.770000
0
LINE
8
Layer 1
10
90.235300
20
183.770000
11
89.866300
21
184.140000
0
LINE
8
Layer 1
10
89.866300
20
184.140000
11
89.810500
21
184.089000
0
LINE
8
Layer 1
10
90.025400
20
184.299000
11
90.394400
21
183.930000
0
LINE
8
Layer 1
10
90.394400
20
183.930000
11
90.450200
21
183.981000
0
LINE
8
Layer 1
10
90.450200
20
183.981000
11
90.077100
21
184.354000
0
LINE
8
Layer 1
10
90.077100
20
184.354000
11
90.025400
21
184.299000
0
LINE
8
Layer 1
10
90.025500
20
184.299000
11
90.394500
21
183.930000
0
LINE
8
Layer 1
10
90.394500
20
183.930000
11
90.450300
21
183.981000
0
LINE
8
Layer 1
10
90.450300
20
183.981000
11
90.077200
21
184.354000
0
LINE
8
Layer 1
10
90.077200
20
184.354000
11
90.025500
21
184.299000
0
LINE
8
Layer 1
10
90.507000
20
184.354000
11
90.450200
21
184.297000
0
LINE
8
Layer 1
10
90.450200
20
184.297000
11
90.392300
21
184.354000
0
LINE
8
Layer 1
10
90.392300
20
184.354000
11
90.450200
21
184.412000
0
LINE
8
Layer 1
10
90.450200
20
184.412000
11
90.507000
21
184.354000
0
LINE
8
Layer 1
10
90.507000
20
184.354000
11
90.507000
21
184.354000
0
LINE
8
Layer 1
10
90.263100
20
184.537000
11
90.314800
21
184.537000
0
LINE
8
Layer 1
10
90.314800
20
184.537000
11
90.660000
21
184.195000
0
LINE
8
Layer 1
10
90.660000
20
184.195000
11
90.608300
21
184.141000
0
LINE
8
Layer 1
10
90.608300
20
184.141000
11
90.235200
21
184.514000
0
LINE
8
Layer 1
10
90.235200
20
184.514000
11
90.263100
21
184.537000
0
LINE
8
Layer 1
10
90.263200
20
184.537000
11
90.314900
21
184.537000
0
LINE
8
Layer 1
10
90.314900
20
184.537000
11
90.660100
21
184.195000
0
LINE
8
Layer 1
10
90.660100
20
184.195000
11
90.608400
21
184.140000
0
LINE
8
Layer 1
10
90.608400
20
184.140000
11
90.235300
21
184.514000
0
LINE
8
Layer 1
10
90.235300
20
184.514000
11
90.263200
21
184.537000
0
LINE
8
Layer 1
10
93.306800
20
183.723000
11
94.057200
21
183.723000
0
LINE
8
Layer 1
10
94.057200
20
183.723000
11
94.057200
21
182.560000
0
LINE
8
Layer 1
10
94.057200
20
182.560000
11
93.306800
21
182.560000
0
LINE
8
Layer 1
10
93.306800
20
182.560000
11
93.306800
21
183.723000
0
LINE
8
Layer 1
10
93.084600
20
185.485000
11
93.684100
21
185.485000
0
LINE
8
Layer 1
10
93.684100
20
185.485000
11
93.684100
21
184.438000
0
LINE
8
Layer 1
10
93.684100
20
184.438000
11
93.084600
21
184.438000
0
LINE
8
Layer 1
10
93.084600
20
184.438000
11
93.084600
21
185.485000
0
LINE
8
Layer 1
10
90.507000
20
185.045000
11
90.450200
21
184.987000
0
LINE
8
Layer 1
10
90.450200
20
184.987000
11
90.392300
21
185.045000
0
LINE
8
Layer 1
10
90.392300
20
185.045000
11
90.450200
21
185.103000
0
LINE
8
Layer 1
10
90.450200
20
185.103000
11
90.507000
21
185.045000
0
LINE
8
Layer 1
10
90.507000
20
185.045000
11
90.507000
21
185.045000
0
LINE
8
Layer 1
10
90.608300
20
185.256000
11
90.660000
21
185.204000
0
LINE
8
Layer 1
10
90.660000
20
185.204000
11
90.314800
21
184.859000
0
LINE
8
Layer 1
10
90.314800
20
184.859000
11
90.263100
21
184.859000
0
LINE
8
Layer 1
10
90.263100
20
184.859000
11
90.235200
21
184.883000
0
LINE
8
Layer 1
10
90.235200
20
184.883000
11
90.608300
21
185.256000
0
LINE
8
Layer 1
10
90.608400
20
185.256000
11
90.660100
21
185.204000
0
LINE
8
Layer 1
10
90.660100
20
185.204000
11
90.314900
21
184.859000
0
LINE
8
Layer 1
10
90.314900
20
184.859000
11
90.263200
21
184.859000
0
LINE
8
Layer 1
10
90.263200
20
184.859000
11
90.235300
21
184.883000
0
LINE
8
Layer 1
10
90.235300
20
184.883000
11
90.608400
21
185.256000
0
LINE
8
Layer 1
10
90.025400
20
185.097000
11
90.077100
21
185.045000
0
LINE
8
Layer 1
10
90.077100
20
185.045000
11
90.450200
21
185.414000
0
LINE
8
Layer 1
10
90.450200
20
185.414000
11
90.394400
21
185.466000
0
LINE
8
Layer 1
10
90.394400
20
185.466000
11
90.025400
21
185.097000
0
LINE
8
Layer 1
10
90.025500
20
185.096000
11
90.077200
21
185.045000
0
LINE
8
Layer 1
10
90.077200
20
185.045000
11
90.450300
21
185.414000
0
LINE
8
Layer 1
10
90.450300
20
185.414000
11
90.394500
21
185.465000
0
LINE
8
Layer 1
10
90.394500
20
185.465000
11
90.025500
21
185.096000
0
LINE
8
Layer 1
10
89.810400
20
185.307000
11
89.866200
21
185.256000
0
LINE
8
Layer 1
10
89.866200
20
185.256000
11
90.235200
21
185.625000
0
LINE
8
Layer 1
10
90.235200
20
185.625000
11
90.183500
21
185.679000
0
LINE
8
Layer 1
10
90.183500
20
185.679000
11
89.810400
21
185.307000
0
LINE
8
Layer 1
10
89.810500
20
185.307000
11
89.866300
21
185.256000
0
LINE
8
Layer 1
10
89.866300
20
185.256000
11
90.235300
21
185.625000
0
LINE
8
Layer 1
10
90.235300
20
185.625000
11
90.183600
21
185.679000
0
LINE
8
Layer 1
10
90.183600
20
185.679000
11
89.810500
21
185.307000
0
LINE
8
Layer 1
10
89.600600
20
185.521000
11
89.652300
21
185.466000
0
LINE
8
Layer 1
10
89.652300
20
185.466000
11
90.025400
21
185.839000
0
LINE
8
Layer 1
10
90.025400
20
185.839000
11
89.969600
21
185.890000
0
LINE
8
Layer 1
10
89.969600
20
185.890000
11
89.600600
21
185.521000
0
LINE
8
Layer 1
10
89.600700
20
185.521000
11
89.652400
21
185.465000
0
LINE
8
Layer 1
10
89.652400
20
185.465000
11
90.025500
21
185.839000
0
LINE
8
Layer 1
10
90.025500
20
185.839000
11
89.969700
21
185.890000
0
LINE
8
Layer 1
10
89.969700
20
185.890000
11
89.600700
21
185.521000
0
LINE
8
Layer 1
10
89.657500
20
185.890000
11
89.600600
21
185.832000
0
LINE
8
Layer 1
10
89.600600
20
185.832000
11
89.542700
21
185.890000
0
LINE
8
Layer 1
10
89.542700
20
185.890000
11
89.600600
21
185.948000
0
LINE
8
Layer 1
10
89.600600
20
185.948000
11
89.657500
21
185.890000
0
LINE
8
Layer 1
10
89.657500
20
185.890000
11
89.657500
21
185.890000
0
LINE
8
Layer 1
10
89.758700
20
186.104000
11
89.810400
21
186.049000
0
LINE
8
Layer 1
10
89.810400
20
186.049000
11
89.441500
21
185.679000
0
LINE
8
Layer 1
10
89.441500
20
185.679000
11
89.413600
21
185.704000
0
LINE
8
Layer 1
10
89.413600
20
185.704000
11
89.413600
21
185.759000
0
LINE
8
Layer 1
10
89.413600
20
185.759000
11
89.758700
21
186.104000
0
LINE
8
Layer 1
10
89.758900
20
186.104000
11
89.810500
21
186.049000
0
LINE
8
Layer 1
10
89.810500
20
186.049000
11
89.441600
21
185.679000
0
LINE
8
Layer 1
10
89.441600
20
185.679000
11
89.413700
21
185.704000
0
LINE
8
Layer 1
10
89.413700
20
185.704000
11
89.413700
21
185.759000
0
LINE
8
Layer 1
10
89.413700
20
185.759000
11
89.758900
21
186.104000
0
LINE
8
Layer 1
10
86.028700
20
191.149000
11
87.116000
21
191.149000
0
LINE
8
Layer 1
10
87.116000
20
191.149000
11
87.116000
21
190.399000
0
LINE
8
Layer 1
10
87.116000
20
190.399000
11
86.028700
21
190.399000
0
LINE
8
Layer 1
10
86.028700
20
190.399000
11
86.028700
21
191.149000
0
LINE
8
Layer 1
10
89.894100
20
191.149000
11
90.981400
21
191.149000
0
LINE
8
Layer 1
10
90.981400
20
191.149000
11
90.981400
21
190.399000
0
LINE
8
Layer 1
10
90.981400
20
190.399000
11
89.894100
21
190.399000
0
LINE
8
Layer 1
10
89.894100
20
190.399000
11
89.894100
21
191.149000
0
LINE
8
Layer 1
10
86.028700
20
189.875000
11
87.116000
21
189.875000
0
LINE
8
Layer 1
10
87.116000
20
189.875000
11
87.116000
21
189.125000
0
LINE
8
Layer 1
10
87.116000
20
189.125000
11
86.028700
21
189.125000
0
LINE
8
Layer 1
10
86.028700
20
189.125000
11
86.028700
21
189.875000
0
LINE
8
Layer 1
10
89.894100
20
189.875000
11
90.981400
21
189.875000
0
LINE
8
Layer 1
10
90.981400
20
189.875000
11
90.981400
21
189.125000
0
LINE
8
Layer 1
10
90.981400
20
189.125000
11
89.894100
21
189.125000
0
LINE
8
Layer 1
10
89.894100
20
189.125000
11
89.894100
21
189.875000
0
LINE
8
Layer 1
10
91.863000
20
189.272000
11
92.275400
21
189.272000
0
LINE
8
Layer 1
10
92.275400
20
189.272000
11
92.275400
21
188.974000
0
LINE
8
Layer 1
10
92.275400
20
188.974000
11
91.863000
21
188.974000
0
LINE
8
Layer 1
10
91.863000
20
188.974000
11
91.863000
21
189.272000
0
LINE
8
Layer 1
10
91.861100
20
189.274000
11
91.861100
21
188.976000
0
LINE
8
Layer 1
10
91.861100
20
188.976000
11
92.273400
21
188.976000
0
LINE
8
Layer 1
10
92.273400
20
188.976000
11
92.273400
21
189.274000
0
LINE
8
Layer 1
10
92.273400
20
189.274000
11
91.861100
21
189.274000
0
LINE
8
Layer 1
10
91.863000
20
188.037000
11
92.275400
21
188.037000
0
LINE
8
Layer 1
10
92.275400
20
188.037000
11
92.275400
21
187.736000
0
LINE
8
Layer 1
10
92.275400
20
187.736000
11
91.863000
21
187.736000
0
LINE
8
Layer 1
10
91.863000
20
187.736000
11
91.863000
21
188.037000
0
LINE
8
Layer 1
10
91.861100
20
188.039000
11
91.861100
21
187.738000
0
LINE
8
Layer 1
10
91.861100
20
187.738000
11
92.273400
21
187.738000
0
LINE
8
Layer 1
10
92.273400
20
187.738000
11
92.273400
21
188.039000
0
LINE
8
Layer 1
10
92.273400
20
188.039000
11
91.861100
21
188.039000
0
LINE
8
Layer 1
10
95.219900
20
191.899000
11
95.748000
21
191.899000
0
LINE
8
Layer 1
10
95.748000
20
191.899000
11
95.748000
21
190.586000
0
LINE
8
Layer 1
10
95.748000
20
190.586000
11
95.219900
21
190.586000
0
LINE
8
Layer 1
10
95.219900
20
190.586000
11
95.219900
21
191.899000
0
LINE
8
Layer 1
10
96.045700
20
191.899000
11
96.569700
21
191.899000
0
LINE
8
Layer 1
10
96.569700
20
191.899000
11
96.569700
21
190.586000
0
LINE
8
Layer 1
10
96.569700
20
190.586000
11
96.045700
21
190.586000
0
LINE
8
Layer 1
10
96.045700
20
190.586000
11
96.045700
21
191.899000
0
LINE
8
Layer 1
10
96.871500
20
191.899000
11
97.395500
21
191.899000
0
LINE
8
Layer 1
10
97.395500
20
191.899000
11
97.395500
21
190.586000
0
LINE
8
Layer 1
10
97.395500
20
190.586000
11
96.871500
21
190.586000
0
LINE
8
Layer 1
10
96.871500
20
190.586000
11
96.871500
21
191.899000
0
LINE
8
Layer 1
10
97.696200
20
191.899000
11
98.220200
21
191.899000
0
LINE
8
Layer 1
10
98.220200
20
191.899000
11
98.220200
21
190.586000
0
LINE
8
Layer 1
10
98.220200
20
190.586000
11
97.696200
21
190.586000
0
LINE
8
Layer 1
10
97.696200
20
190.586000
11
97.696200
21
191.899000
0
LINE
8
Layer 1
10
98.522000
20
191.899000
11
99.046000
21
191.899000
0
LINE
8
Layer 1
10
99.046000
20
191.899000
11
99.046000
21
190.586000
0
LINE
8
Layer 1
10
99.046000
20
190.586000
11
98.522000
21
190.586000
0
LINE
8
Layer 1
10
98.522000
20
190.586000
11
98.522000
21
191.899000
0
LINE
8
Layer 1
10
93.084600
20
191.712000
11
94.208100
21
191.712000
0
LINE
8
Layer 1
10
94.208100
20
191.712000
11
94.208100
21
190.586000
0
LINE
8
Layer 1
10
94.208100
20
190.586000
11
93.084600
21
190.586000
0
LINE
8
Layer 1
10
93.084600
20
190.586000
11
93.084600
21
191.712000
0
LINE
8
Layer 1
10
99.347800
20
191.899000
11
99.871800
21
191.899000
0
LINE
8
Layer 1
10
99.871800
20
191.899000
11
99.871800
21
190.586000
0
LINE
8
Layer 1
10
99.871800
20
190.586000
11
99.347800
21
190.586000
0
LINE
8
Layer 1
10
99.347800
20
190.586000
11
99.347800
21
191.899000
0
LINE
8
Layer 1
10
100.174000
20
191.899000
11
100.697000
21
191.899000
0
LINE
8
Layer 1
10
100.697000
20
191.899000
11
100.697000
21
190.586000
0
LINE
8
Layer 1
10
100.697000
20
190.586000
11
100.174000
21
190.586000
0
LINE
8
Layer 1
10
100.174000
20
190.586000
11
100.174000
21
191.899000
0
LINE
8
Layer 1
10
100.994000
20
191.899000
11
101.522000
21
191.899000
0
LINE
8
Layer 1
10
101.522000
20
191.899000
11
101.522000
21
190.586000
0
LINE
8
Layer 1
10
101.522000
20
190.586000
11
100.994000
21
190.586000
0
LINE
8
Layer 1
10
100.994000
20
190.586000
11
100.994000
21
191.899000
0
LINE
8
Layer 1
10
101.669000
20
191.712000
11
102.646000
21
191.712000
0
LINE
8
Layer 1
10
102.646000
20
191.712000
11
102.646000
21
190.586000
0
LINE
8
Layer 1
10
102.646000
20
190.586000
11
101.669000
21
190.586000
0
LINE
8
Layer 1
10
101.669000
20
190.586000
11
101.669000
21
191.712000
0
LINE
8
Layer 1
10
110.314000
20
182.525000
11
110.571000
21
182.525000
0
LINE
8
Layer 1
10
110.571000
20
182.525000
11
110.571000
21
182.314000
0
LINE
8
Layer 1
10
110.571000
20
182.314000
11
110.314000
21
182.314000
0
LINE
8
Layer 1
10
110.314000
20
182.314000
11
110.314000
21
182.525000
0
LINE
8
Layer 1
10
110.314000
20
182.525000
11
110.314000
21
182.314000
0
LINE
8
Layer 1
10
110.314000
20
182.314000
11
110.571000
21
182.314000
0
LINE
8
Layer 1
10
110.571000
20
182.314000
11
110.571000
21
182.525000
0
LINE
8
Layer 1
10
110.571000
20
182.525000
11
110.314000
21
182.525000
0
LINE
8
Layer 1
10
110.314000
20
181.803000
11
110.571000
21
181.803000
0
LINE
8
Layer 1
10
110.571000
20
181.803000
11
110.571000
21
181.592000
0
LINE
8
Layer 1
10
110.571000
20
181.592000
11
110.314000
21
181.592000
0
LINE
8
Layer 1
10
110.314000
20
181.592000
11
110.314000
21
181.803000
0
LINE
8
Layer 1
10
110.314000
20
181.803000
11
110.314000
21
181.592000
0
LINE
8
Layer 1
10
110.314000
20
181.592000
11
110.571000
21
181.592000
0
LINE
8
Layer 1
10
110.571000
20
181.592000
11
110.571000
21
181.803000
0
LINE
8
Layer 1
10
110.571000
20
181.803000
11
110.314000
21
181.803000
0
LINE
8
Layer 1
10
109.337000
20
181.699000
11
109.674000
21
181.699000
0
LINE
8
Layer 1
10
109.674000
20
181.699000
11
109.674000
21
181.322000
0
LINE
8
Layer 1
10
109.674000
20
181.322000
11
109.337000
21
181.322000
0
LINE
8
Layer 1
10
109.337000
20
181.322000
11
109.337000
21
181.699000
0
LINE
8
Layer 1
10
109.674000
20
181.699000
11
109.337000
21
181.699000
0
LINE
8
Layer 1
10
109.337000
20
181.699000
11
109.337000
21
181.322000
0
LINE
8
Layer 1
10
109.337000
20
181.322000
11
109.674000
21
181.322000
0
LINE
8
Layer 1
10
109.674000
20
181.322000
11
109.674000
21
181.699000
0
LINE
8
Layer 1
10
108.174000
20
181.699000
11
108.511000
21
181.699000
0
LINE
8
Layer 1
10
108.511000
20
181.699000
11
108.511000
21
181.322000
0
LINE
8
Layer 1
10
108.511000
20
181.322000
11
108.174000
21
181.322000
0
LINE
8
Layer 1
10
108.174000
20
181.322000
11
108.174000
21
181.699000
0
LINE
8
Layer 1
10
108.511000
20
181.699000
11
108.174000
21
181.699000
0
LINE
8
Layer 1
10
108.174000
20
181.699000
11
108.174000
21
181.322000
0
LINE
8
Layer 1
10
108.174000
20
181.322000
11
108.511000
21
181.322000
0
LINE
8
Layer 1
10
108.511000
20
181.322000
11
108.511000
21
181.699000
0
LINE
8
Layer 1
10
111.885000
20
187.144000
11
112.000000
21
187.144000
0
LINE
8
Layer 1
10
112.000000
20
187.144000
11
112.000000
21
186.395000
0
LINE
8
Layer 1
10
112.000000
20
186.395000
11
111.885000
21
186.395000
0
LINE
8
Layer 1
10
111.885000
20
186.395000
11
111.885000
21
187.144000
0
LINE
8
Layer 1
10
111.998000
20
187.146000
11
111.883000
21
187.146000
0
LINE
8
Layer 1
10
111.883000
20
187.146000
11
111.883000
21
186.397000
0
LINE
8
Layer 1
10
111.883000
20
186.397000
11
111.998000
21
186.397000
0
LINE
8
Layer 1
10
111.998000
20
186.397000
11
111.998000
21
187.146000
0
LINE
8
Layer 1
10
111.135000
20
187.144000
11
111.250000
21
187.144000
0
LINE
8
Layer 1
10
111.250000
20
187.144000
11
111.250000
21
186.395000
0
LINE
8
Layer 1
10
111.250000
20
186.395000
11
111.135000
21
186.395000
0
LINE
8
Layer 1
10
111.135000
20
186.395000
11
111.135000
21
187.144000
0
LINE
8
Layer 1
10
111.248000
20
187.146000
11
111.133000
21
187.146000
0
LINE
8
Layer 1
10
111.133000
20
187.146000
11
111.133000
21
186.397000
0
LINE
8
Layer 1
10
111.133000
20
186.397000
11
111.248000
21
186.397000
0
LINE
8
Layer 1
10
111.248000
20
186.397000
11
111.248000
21
187.146000
0
LINE
8
Layer 1
10
110.762000
20
187.144000
11
110.873000
21
187.144000
0
LINE
8
Layer 1
10
110.873000
20
187.144000
11
110.873000
21
186.395000
0
LINE
8
Layer 1
10
110.873000
20
186.395000
11
110.762000
21
186.395000
0
LINE
8
Layer 1
10
110.762000
20
186.395000
11
110.762000
21
187.144000
0
LINE
8
Layer 1
10
110.871000
20
187.146000
11
110.760000
21
187.146000
0
LINE
8
Layer 1
10
110.760000
20
187.146000
11
110.760000
21
186.397000
0
LINE
8
Layer 1
10
110.760000
20
186.397000
11
110.871000
21
186.397000
0
LINE
8
Layer 1
10
110.871000
20
186.397000
11
110.871000
21
187.146000
0
LINE
8
Layer 1
10
111.511000
20
187.144000
11
111.623000
21
187.144000
0
LINE
8
Layer 1
10
111.623000
20
187.144000
11
111.623000
21
186.395000
0
LINE
8
Layer 1
10
111.623000
20
186.395000
11
111.511000
21
186.395000
0
LINE
8
Layer 1
10
111.511000
20
186.395000
11
111.511000
21
187.144000
0
LINE
8
Layer 1
10
111.621000
20
187.146000
11
111.509000
21
187.146000
0
LINE
8
Layer 1
10
111.509000
20
187.146000
11
111.509000
21
186.397000
0
LINE
8
Layer 1
10
111.509000
20
186.397000
11
111.621000
21
186.397000
0
LINE
8
Layer 1
10
111.621000
20
186.397000
11
111.621000
21
187.146000
0
LINE
8
Layer 1
10
110.012000
20
187.144000
11
110.122000
21
187.144000
0
LINE
8
Layer 1
10
110.122000
20
187.144000
11
110.122000
21
186.395000
0
LINE
8
Layer 1
10
110.122000
20
186.395000
11
110.012000
21
186.395000
0
LINE
8
Layer 1
10
110.012000
20
186.395000
11
110.012000
21
187.144000
0
LINE
8
Layer 1
10
110.120000
20
187.146000
11
110.010000
21
187.146000
0
LINE
8
Layer 1
10
110.010000
20
187.146000
11
110.010000
21
186.397000
0
LINE
8
Layer 1
10
110.010000
20
186.397000
11
110.120000
21
186.397000
0
LINE
8
Layer 1
10
110.120000
20
186.397000
11
110.120000
21
187.146000
0
LINE
8
Layer 1
10
109.091000
20
187.089000
11
109.317000
21
187.089000
0
LINE
8
Layer 1
10
109.317000
20
187.089000
11
109.317000
21
186.449000
0
LINE
8
Layer 1
10
109.317000
20
186.449000
11
109.091000
21
186.449000
0
LINE
8
Layer 1
10
109.091000
20
186.449000
11
109.091000
21
187.089000
0
LINE
8
Layer 1
10
109.317000
20
187.089000
11
109.091000
21
187.089000
0
LINE
8
Layer 1
10
109.091000
20
187.089000
11
109.091000
21
186.449000
0
LINE
8
Layer 1
10
109.091000
20
186.449000
11
109.317000
21
186.449000
0
LINE
8
Layer 1
10
109.317000
20
186.449000
11
109.317000
21
187.089000
0
LINE
8
Layer 1
10
109.091000
20
187.089000
11
109.317000
21
187.089000
0
LINE
8
Layer 1
10
109.317000
20
187.089000
11
109.317000
21
186.449000
0
LINE
8
Layer 1
10
109.317000
20
186.449000
11
109.091000
21
186.449000
0
LINE
8
Layer 1
10
109.091000
20
186.449000
11
109.091000
21
187.089000
0
LINE
8
Layer 1
10
109.317000
20
187.089000
11
109.091000
21
187.089000
0
LINE
8
Layer 1
10
109.091000
20
187.089000
11
109.091000
21
186.449000
0
LINE
8
Layer 1
10
109.091000
20
186.449000
11
109.317000
21
186.449000
0
LINE
8
Layer 1
10
109.317000
20
186.449000
11
109.317000
21
187.089000
0
LINE
8
Layer 1
10
109.635000
20
187.144000
11
109.749000
21
187.144000
0
LINE
8
Layer 1
10
109.749000
20
187.144000
11
109.749000
21
186.395000
0
LINE
8
Layer 1
10
109.749000
20
186.395000
11
109.635000
21
186.395000
0
LINE
8
Layer 1
10
109.635000
20
186.395000
11
109.635000
21
187.144000
0
LINE
8
Layer 1
10
109.748000
20
187.146000
11
109.633000
21
187.146000
0
LINE
8
Layer 1
10
109.633000
20
187.146000
11
109.633000
21
186.397000
0
LINE
8
Layer 1
10
109.633000
20
186.397000
11
109.748000
21
186.397000
0
LINE
8
Layer 1
10
109.748000
20
186.397000
11
109.748000
21
187.146000
0
LINE
8
Layer 1
10
110.385000
20
187.144000
11
110.500000
21
187.144000
0
LINE
8
Layer 1
10
110.500000
20
187.144000
11
110.500000
21
186.395000
0
LINE
8
Layer 1
10
110.500000
20
186.395000
11
110.385000
21
186.395000
0
LINE
8
Layer 1
10
110.385000
20
186.395000
11
110.385000
21
187.144000
0
LINE
8
Layer 1
10
110.498000
20
187.146000
11
110.383000
21
187.146000
0
LINE
8
Layer 1
10
110.383000
20
187.146000
11
110.383000
21
186.397000
0
LINE
8
Layer 1
10
110.383000
20
186.397000
11
110.498000
21
186.397000
0
LINE
8
Layer 1
10
110.498000
20
186.397000
11
110.498000
21
187.146000
0
LINE
8
Layer 1
10
113.294000
20
187.089000
11
113.516000
21
187.089000
0
LINE
8
Layer 1
10
113.516000
20
187.089000
11
113.516000
21
186.449000
0
LINE
8
Layer 1
10
113.516000
20
186.449000
11
113.294000
21
186.449000
0
LINE
8
Layer 1
10
113.294000
20
186.449000
11
113.294000
21
187.089000
0
LINE
8
Layer 1
10
113.517000
20
187.089000
11
113.294000
21
187.089000
0
LINE
8
Layer 1
10
113.294000
20
187.089000
11
113.294000
21
186.449000
0
LINE
8
Layer 1
10
113.294000
20
186.449000
11
113.517000
21
186.449000
0
LINE
8
Layer 1
10
113.517000
20
186.449000
11
113.517000
21
187.089000
0
LINE
8
Layer 1
10
112.695000
20
187.089000
11
112.917000
21
187.089000
0
LINE
8
Layer 1
10
112.917000
20
187.089000
11
112.917000
21
186.449000
0
LINE
8
Layer 1
10
112.917000
20
186.449000
11
112.695000
21
186.449000
0
LINE
8
Layer 1
10
112.695000
20
186.449000
11
112.695000
21
187.089000
0
LINE
8
Layer 1
10
112.917000
20
187.089000
11
112.695000
21
187.089000
0
LINE
8
Layer 1
10
112.695000
20
187.089000
11
112.695000
21
186.449000
0
LINE
8
Layer 1
10
112.695000
20
186.449000
11
112.917000
21
186.449000
0
LINE
8
Layer 1
10
112.917000
20
186.449000
11
112.917000
21
187.089000
0
LINE
8
Layer 1
10
112.262000
20
187.144000
11
112.373000
21
187.144000
0
LINE
8
Layer 1
10
112.373000
20
187.144000
11
112.373000
21
186.395000
0
LINE
8
Layer 1
10
112.373000
20
186.395000
11
112.262000
21
186.395000
0
LINE
8
Layer 1
10
112.262000
20
186.395000
11
112.262000
21
187.144000
0
LINE
8
Layer 1
10
112.371000
20
187.146000
11
112.260000
21
187.146000
0
LINE
8
Layer 1
10
112.260000
20
187.146000
11
112.260000
21
186.397000
0
LINE
8
Layer 1
10
112.260000
20
186.397000
11
112.371000
21
186.397000
0
LINE
8
Layer 1
10
112.371000
20
186.397000
11
112.371000
21
187.146000
0
LINE
8
Layer 1
10
112.695000
20
187.089000
11
112.917000
21
187.089000
0
LINE
8
Layer 1
10
112.917000
20
187.089000
11
112.917000
21
186.449000
0
LINE
8
Layer 1
10
112.917000
20
186.449000
11
112.695000
21
186.449000
0
LINE
8
Layer 1
10
112.695000
20
186.449000
11
112.695000
21
187.089000
0
LINE
8
Layer 1
10
112.917000
20
187.089000
11
112.695000
21
187.089000
0
LINE
8
Layer 1
10
112.695000
20
187.089000
11
112.695000
21
186.449000
0
LINE
8
Layer 1
10
112.695000
20
186.449000
11
112.917000
21
186.449000
0
LINE
8
Layer 1
10
112.917000
20
186.449000
11
112.917000
21
187.089000
0
LINE
8
Layer 1
10
113.294000
20
187.089000
11
113.516000
21
187.089000
0
LINE
8
Layer 1
10
113.516000
20
187.089000
11
113.516000
21
186.449000
0
LINE
8
Layer 1
10
113.516000
20
186.449000
11
113.294000
21
186.449000
0
LINE
8
Layer 1
10
113.294000
20
186.449000
11
113.294000
21
187.089000
0
LINE
8
Layer 1
10
113.517000
20
187.089000
11
113.294000
21
187.089000
0
LINE
8
Layer 1
10
113.294000
20
187.089000
11
113.294000
21
186.449000
0
LINE
8
Layer 1
10
113.294000
20
186.449000
11
113.517000
21
186.449000
0
LINE
8
Layer 1
10
113.517000
20
186.449000
11
113.517000
21
187.089000
0
LINE
8
Layer 1
10
108.491000
20
187.089000
11
108.718000
21
187.089000
0
LINE
8
Layer 1
10
108.718000
20
187.089000
11
108.718000
21
186.449000
0
LINE
8
Layer 1
10
108.718000
20
186.449000
11
108.491000
21
186.449000
0
LINE
8
Layer 1
10
108.491000
20
186.449000
11
108.491000
21
187.089000
0
LINE
8
Layer 1
10
108.718000
20
187.089000
11
108.492000
21
187.089000
0
LINE
8
Layer 1
10
108.492000
20
187.089000
11
108.492000
21
186.449000
0
LINE
8
Layer 1
10
108.492000
20
186.449000
11
108.718000
21
186.449000
0
LINE
8
Layer 1
10
108.718000
20
186.449000
11
108.718000
21
187.089000
0
LINE
8
Layer 1
10
108.491000
20
187.089000
11
108.718000
21
187.089000
0
LINE
8
Layer 1
10
108.718000
20
187.089000
11
108.718000
21
186.449000
0
LINE
8
Layer 1
10
108.718000
20
186.449000
11
108.491000
21
186.449000
0
LINE
8
Layer 1
10
108.491000
20
186.449000
11
108.491000
21
187.089000
0
LINE
8
Layer 1
10
108.718000
20
187.089000
11
108.492000
21
187.089000
0
LINE
8
Layer 1
10
108.492000
20
187.089000
11
108.492000
21
186.449000
0
LINE
8
Layer 1
10
108.492000
20
186.449000
11
108.718000
21
186.449000
0
LINE
8
Layer 1
10
108.718000
20
186.449000
11
108.718000
21
187.089000
0
LINE
8
Layer 1
10
107.765000
20
186.787000
11
107.765000
21
187.613000
0
LINE
8
Layer 1
10
107.765000
20
190.034000
11
107.765000
21
190.633000
0
LINE
8
Layer 1
10
114.246000
20
186.787000
11
114.246000
21
187.613000
0
LINE
8
Layer 1
10
114.246000
20
190.034000
11
114.246000
21
190.633000
0
LINE
8
Layer 1
10
117.417000
20
188.478000
11
117.643000
21
188.478000
0
LINE
8
Layer 1
10
117.643000
20
188.478000
11
117.643000
21
187.708000
0
LINE
8
Layer 1
10
117.643000
20
187.708000
11
117.417000
21
187.708000
0
LINE
8
Layer 1
10
117.417000
20
187.708000
11
117.417000
21
188.478000
0
LINE
8
Layer 1
10
117.417000
20
188.478000
11
117.417000
21
187.708000
0
LINE
8
Layer 1
10
117.417000
20
187.708000
11
117.643000
21
187.708000
0
LINE
8
Layer 1
10
117.643000
20
187.708000
11
117.643000
21
188.478000
0
LINE
8
Layer 1
10
117.643000
20
188.478000
11
117.417000
21
188.478000
0
LINE
8
Layer 1
10
115.993000
20
188.478000
11
116.219000
21
188.478000
0
LINE
8
Layer 1
10
116.219000
20
188.478000
11
116.219000
21
187.708000
0
LINE
8
Layer 1
10
116.219000
20
187.708000
11
115.993000
21
187.708000
0
LINE
8
Layer 1
10
115.993000
20
187.708000
11
115.993000
21
188.478000
0
LINE
8
Layer 1
10
115.993000
20
188.478000
11
115.993000
21
187.708000
0
LINE
8
Layer 1
10
115.993000
20
187.708000
11
116.219000
21
187.708000
0
LINE
8
Layer 1
10
116.219000
20
187.708000
11
116.219000
21
188.478000
0
LINE
8
Layer 1
10
116.219000
20
188.478000
11
115.993000
21
188.478000
0
LINE
8
Layer 1
10
116.707000
20
186.771000
11
116.929000
21
186.771000
0
LINE
8
Layer 1
10
116.929000
20
186.771000
11
116.929000
21
186.002000
0
LINE
8
Layer 1
10
116.929000
20
186.002000
11
116.707000
21
186.002000
0
LINE
8
Layer 1
10
116.707000
20
186.002000
11
116.707000
21
186.771000
0
LINE
8
Layer 1
10
116.707000
20
186.771000
11
116.707000
21
186.002000
0
LINE
8
Layer 1
10
116.707000
20
186.002000
11
116.929000
21
186.002000
0
LINE
8
Layer 1
10
116.929000
20
186.002000
11
116.929000
21
186.771000
0
LINE
8
Layer 1
10
116.929000
20
186.771000
11
116.707000
21
186.771000
0
LINE
8
Layer 1
10
111.897000
20
180.619000
11
111.988000
21
180.619000
0
LINE
8
Layer 1
10
111.988000
20
180.619000
11
111.988000
21
180.096000
0
LINE
8
Layer 1
10
111.988000
20
180.096000
11
111.897000
21
180.096000
0
LINE
8
Layer 1
10
111.897000
20
180.096000
11
111.897000
21
180.619000
0
LINE
8
Layer 1
10
111.895000
20
180.098000
11
111.986000
21
180.098000
0
LINE
8
Layer 1
10
111.986000
20
180.098000
11
111.986000
21
180.621000
0
LINE
8
Layer 1
10
111.986000
20
180.621000
11
111.895000
21
180.621000
0
LINE
8
Layer 1
10
111.895000
20
180.621000
11
111.895000
21
180.098000
0
LINE
8
Layer 1
10
111.949000
20
182.989000
11
111.802000
21
182.838000
0
LINE
8
Layer 1
10
111.802000
20
182.838000
11
111.981000
21
182.659000
0
LINE
8
Layer 1
10
111.981000
20
182.659000
11
112.130000
21
182.806000
0
LINE
8
Layer 1
10
112.130000
20
182.806000
11
111.949000
21
182.989000
0
LINE
8
Layer 1
10
111.949000
20
182.989000
11
111.802000
21
182.838000
0
LINE
8
Layer 1
10
111.802000
20
182.838000
11
111.981000
21
182.659000
0
LINE
8
Layer 1
10
111.981000
20
182.659000
11
112.131000
21
182.806000
0
LINE
8
Layer 1
10
112.131000
20
182.806000
11
111.949000
21
182.989000
0
LINE
8
Layer 1
10
111.440000
20
182.478000
11
111.289000
21
182.331000
0
LINE
8
Layer 1
10
111.289000
20
182.331000
11
111.472000
21
182.152000
0
LINE
8
Layer 1
10
111.472000
20
182.152000
11
111.619000
21
182.299000
0
LINE
8
Layer 1
10
111.619000
20
182.299000
11
111.440000
21
182.478000
0
LINE
8
Layer 1
10
111.440000
20
182.478000
11
111.289000
21
182.331000
0
LINE
8
Layer 1
10
111.289000
20
182.331000
11
111.472000
21
182.152000
0
LINE
8
Layer 1
10
111.472000
20
182.152000
11
111.619000
21
182.299000
0
LINE
8
Layer 1
10
111.619000
20
182.299000
11
111.440000
21
182.478000
0
LINE
8
Layer 1
10
112.992000
20
181.906000
11
115.016000
21
181.906000
0
LINE
8
Layer 1
10
115.016000
20
181.906000
11
115.016000
21
181.115000
0
LINE
8
Layer 1
10
115.016000
20
181.115000
11
112.992000
21
181.115000
0
LINE
8
Layer 1
10
112.992000
20
181.115000
11
112.992000
21
181.906000
0
LINE
8
Layer 1
10
112.992000
20
183.744000
11
115.016000
21
183.744000
0
LINE
8
Layer 1
10
115.016000
20
183.744000
11
115.016000
21
182.953000
0
LINE
8
Layer 1
10
115.016000
20
182.953000
11
112.992000
21
182.953000
0
LINE
8
Layer 1
10
112.992000
20
182.953000
11
112.992000
21
183.744000
0
LINE
8
Layer 1
10
112.182000
20
181.449000
11
112.393000
21
181.449000
0
LINE
8
Layer 1
10
112.393000
20
181.449000
11
112.393000
21
181.195000
0
LINE
8
Layer 1
10
112.393000
20
181.195000
11
112.182000
21
181.195000
0
LINE
8
Layer 1
10
112.182000
20
181.195000
11
112.182000
21
181.449000
0
LINE
8
Layer 1
10
112.393000
20
181.449000
11
112.182000
21
181.449000
0
LINE
8
Layer 1
10
112.182000
20
181.449000
11
112.182000
21
181.195000
0
LINE
8
Layer 1
10
112.182000
20
181.195000
11
112.393000
21
181.195000
0
LINE
8
Layer 1
10
112.393000
20
181.195000
11
112.393000
21
181.449000
0
LINE
8
Layer 1
10
111.464000
20
181.449000
11
111.671000
21
181.449000
0
LINE
8
Layer 1
10
111.671000
20
181.449000
11
111.671000
21
181.195000
0
LINE
8
Layer 1
10
111.671000
20
181.195000
11
111.464000
21
181.195000
0
LINE
8
Layer 1
10
111.464000
20
181.195000
11
111.464000
21
181.449000
0
LINE
8
Layer 1
10
111.671000
20
181.449000
11
111.464000
21
181.449000
0
LINE
8
Layer 1
10
111.464000
20
181.449000
11
111.464000
21
181.195000
0
LINE
8
Layer 1
10
111.464000
20
181.195000
11
111.671000
21
181.195000
0
LINE
8
Layer 1
10
111.671000
20
181.195000
11
111.671000
21
181.449000
0
LINE
8
Layer 1
10
97.784100
20
180.295000
11
98.164400
21
180.295000
0
LINE
8
Layer 1
10
98.164400
20
180.295000
11
98.164400
21
179.913000
0
LINE
8
Layer 1
10
98.164400
20
179.913000
11
97.784100
21
179.913000
0
LINE
8
Layer 1
10
97.784100
20
179.913000
11
97.784100
21
180.295000
0
LINE
8
Layer 1
10
97.782100
20
179.915000
11
98.163500
21
179.915000
0
LINE
8
Layer 1
10
98.163500
20
179.915000
11
98.163500
21
180.297000
0
LINE
8
Layer 1
10
98.163500
20
180.297000
11
97.782100
21
180.297000
0
LINE
8
Layer 1
10
97.782100
20
180.297000
11
97.782100
21
179.915000
0
LINE
8
Layer 1
10
97.784100
20
179.357000
11
98.164400
21
179.357000
0
LINE
8
Layer 1
10
98.164400
20
179.357000
11
98.164400
21
178.977000
0
LINE
8
Layer 1
10
98.164400
20
178.977000
11
97.784100
21
178.977000
0
LINE
8
Layer 1
10
97.784100
20
178.977000
11
97.784100
21
179.357000
0
LINE
8
Layer 1
10
97.782100
20
178.979000
11
98.163500
21
178.979000
0
LINE
8
Layer 1
10
98.163500
20
178.979000
11
98.163500
21
179.359000
0
LINE
8
Layer 1
10
98.163500
20
179.359000
11
97.782100
21
179.359000
0
LINE
8
Layer 1
10
97.782100
20
179.359000
11
97.782100
21
178.979000
0
LINE
8
Layer 1
10
98.720500
20
180.295000
11
99.101800
21
180.295000
0
LINE
8
Layer 1
10
99.101800
20
180.295000
11
99.101800
21
179.913000
0
LINE
8
Layer 1
10
99.101800
20
179.913000
11
98.720500
21
179.913000
0
LINE
8
Layer 1
10
98.720500
20
179.913000
11
98.720500
21
180.295000
0
LINE
8
Layer 1
10
98.718500
20
179.915000
11
99.099900
21
179.915000
0
LINE
8
Layer 1
10
99.099900
20
179.915000
11
99.099900
21
180.297000
0
LINE
8
Layer 1
10
99.099900
20
180.297000
11
98.718500
21
180.297000
0
LINE
8
Layer 1
10
98.718500
20
180.297000
11
98.718500
21
179.915000
0
LINE
8
Layer 1
10
98.720500
20
179.357000
11
99.101800
21
179.357000
0
LINE
8
Layer 1
10
99.101800
20
179.357000
11
99.101800
21
178.977000
0
LINE
8
Layer 1
10
99.101800
20
178.977000
11
98.720500
21
178.977000
0
LINE
8
Layer 1
10
98.720500
20
178.977000
11
98.720500
21
179.357000
0
LINE
8
Layer 1
10
98.718500
20
178.979000
11
99.099900
21
178.979000
0
LINE
8
Layer 1
10
99.099900
20
178.979000
11
99.099900
21
179.359000
0
LINE
8
Layer 1
10
99.099900
20
179.359000
11
98.718500
21
179.359000
0
LINE
8
Layer 1
10
98.718500
20
179.359000
11
98.718500
21
178.979000
0
LINE
8
Layer 1
10
96.708200
20
180.619000
11
97.271500
21
180.619000
0
LINE
8
Layer 1
10
97.271500
20
180.619000
11
97.271500
21
180.524000
0
LINE
8
Layer 1
10
97.271500
20
180.524000
11
96.708200
21
180.524000
0
LINE
8
Layer 1
10
96.708200
20
180.524000
11
96.708200
21
180.619000
0
LINE
8
Layer 1
10
96.706200
20
180.526000
11
97.270500
21
180.526000
0
LINE
8
Layer 1
10
97.270500
20
180.526000
11
97.270500
21
180.621000
0
LINE
8
Layer 1
10
97.270500
20
180.621000
11
96.706200
21
180.621000
0
LINE
8
Layer 1
10
96.706200
20
180.621000
11
96.706200
21
180.526000
0
LINE
8
Layer 1
10
96.708200
20
180.247000
11
97.271500
21
180.247000
0
LINE
8
Layer 1
10
97.271500
20
180.247000
11
97.271500
21
180.151000
0
LINE
8
Layer 1
10
97.271500
20
180.151000
11
96.708200
21
180.151000
0
LINE
8
Layer 1
10
96.708200
20
180.151000
11
96.708200
21
180.247000
0
LINE
8
Layer 1
10
96.706200
20
180.153000
11
97.270500
21
180.153000
0
LINE
8
Layer 1
10
97.270500
20
180.153000
11
97.270500
21
180.248000
0
LINE
8
Layer 1
10
97.270500
20
180.248000
11
96.706200
21
180.248000
0
LINE
8
Layer 1
10
96.706200
20
180.248000
11
96.706200
21
180.153000
0
LINE
8
Layer 1
10
96.708200
20
179.870000
11
97.271500
21
179.870000
0
LINE
8
Layer 1
10
97.271500
20
179.870000
11
97.271500
21
179.775000
0
LINE
8
Layer 1
10
97.271500
20
179.775000
11
96.708200
21
179.775000
0
LINE
8
Layer 1
10
96.708200
20
179.775000
11
96.708200
21
179.870000
0
LINE
8
Layer 1
10
96.706200
20
179.776000
11
97.270500
21
179.776000
0
LINE
8
Layer 1
10
97.270500
20
179.776000
11
97.270500
21
179.872000
0
LINE
8
Layer 1
10
97.270500
20
179.872000
11
96.706200
21
179.872000
0
LINE
8
Layer 1
10
96.706200
20
179.872000
11
96.706200
21
179.776000
0
LINE
8
Layer 1
10
96.708200
20
179.497000
11
97.271500
21
179.497000
0
LINE
8
Layer 1
10
97.271500
20
179.497000
11
97.271500
21
179.402000
0
LINE
8
Layer 1
10
97.271500
20
179.402000
11
96.708200
21
179.402000
0
LINE
8
Layer 1
10
96.708200
20
179.402000
11
96.708200
21
179.497000
0
LINE
8
Layer 1
10
96.706200
20
179.404000
11
97.270500
21
179.404000
0
LINE
8
Layer 1
10
97.270500
20
179.404000
11
97.270500
21
179.499000
0
LINE
8
Layer 1
10
97.270500
20
179.499000
11
96.706200
21
179.499000
0
LINE
8
Layer 1
10
96.706200
20
179.499000
11
96.706200
21
179.404000
0
LINE
8
Layer 1
10
96.708200
20
179.120000
11
97.271500
21
179.120000
0
LINE
8
Layer 1
10
97.271500
20
179.120000
11
97.271500
21
179.029000
0
LINE
8
Layer 1
10
97.271500
20
179.029000
11
96.708200
21
179.029000
0
LINE
8
Layer 1
10
96.708200
20
179.029000
11
96.708200
21
179.120000
0
LINE
8
Layer 1
10
96.706200
20
179.031000
11
97.270500
21
179.031000
0
LINE
8
Layer 1
10
97.270500
20
179.031000
11
97.270500
21
179.122000
0
LINE
8
Layer 1
10
97.270500
20
179.122000
11
96.706200
21
179.122000
0
LINE
8
Layer 1
10
96.706200
20
179.122000
11
96.706200
21
179.031000
0
LINE
8
Layer 1
10
96.708200
20
178.747000
11
97.271500
21
178.747000
0
LINE
8
Layer 1
10
97.271500
20
178.747000
11
97.271500
21
178.651000
0
LINE
8
Layer 1
10
97.271500
20
178.651000
11
96.708200
21
178.651000
0
LINE
8
Layer 1
10
96.708200
20
178.651000
11
96.708200
21
178.747000
0
LINE
8
Layer 1
10
96.706200
20
178.653000
11
97.270500
21
178.653000
0
LINE
8
Layer 1
10
97.270500
20
178.653000
11
97.270500
21
178.749000
0
LINE
8
Layer 1
10
97.270500
20
178.749000
11
96.706200
21
178.749000
0
LINE
8
Layer 1
10
96.706200
20
178.749000
11
96.706200
21
178.653000
0
LINE
8
Layer 1
10
97.458500
20
178.464000
11
97.553600
21
178.464000
0
LINE
8
Layer 1
10
97.553600
20
178.464000
11
97.553600
21
177.901000
0
LINE
8
Layer 1
10
97.553600
20
177.901000
11
97.458500
21
177.901000
0
LINE
8
Layer 1
10
97.458500
20
177.901000
11
97.458500
21
178.464000
0
LINE
8
Layer 1
10
97.456600
20
177.903000
11
97.551700
21
177.903000
0
LINE
8
Layer 1
10
97.551700
20
177.903000
11
97.551700
21
178.466000
0
LINE
8
Layer 1
10
97.551700
20
178.466000
11
97.456600
21
178.466000
0
LINE
8
Layer 1
10
97.456600
20
178.466000
11
97.456600
21
177.903000
0
LINE
8
Layer 1
10
97.831600
20
178.464000
11
97.926700
21
178.464000
0
LINE
8
Layer 1
10
97.926700
20
178.464000
11
97.926700
21
177.901000
0
LINE
8
Layer 1
10
97.926700
20
177.901000
11
97.831600
21
177.901000
0
LINE
8
Layer 1
10
97.831600
20
177.901000
11
97.831600
21
178.464000
0
LINE
8
Layer 1
10
97.829700
20
177.903000
11
97.924800
21
177.903000
0
LINE
8
Layer 1
10
97.924800
20
177.903000
11
97.924800
21
178.466000
0
LINE
8
Layer 1
10
97.924800
20
178.466000
11
97.829700
21
178.466000
0
LINE
8
Layer 1
10
97.829700
20
178.466000
11
97.829700
21
177.903000
0
LINE
8
Layer 1
10
98.208900
20
178.464000
11
98.304000
21
178.464000
0
LINE
8
Layer 1
10
98.304000
20
178.464000
11
98.304000
21
177.901000
0
LINE
8
Layer 1
10
98.304000
20
177.901000
11
98.208900
21
177.901000
0
LINE
8
Layer 1
10
98.208900
20
177.901000
11
98.208900
21
178.464000
0
LINE
8
Layer 1
10
98.206900
20
177.903000
11
98.302000
21
177.903000
0
LINE
8
Layer 1
10
98.302000
20
177.903000
11
98.302000
21
178.466000
0
LINE
8
Layer 1
10
98.302000
20
178.466000
11
98.206900
21
178.466000
0
LINE
8
Layer 1
10
98.206900
20
178.466000
11
98.206900
21
177.903000
0
LINE
8
Layer 1
10
98.582000
20
178.464000
11
98.677100
21
178.464000
0
LINE
8
Layer 1
10
98.677100
20
178.464000
11
98.677100
21
177.901000
0
LINE
8
Layer 1
10
98.677100
20
177.901000
11
98.582000
21
177.901000
0
LINE
8
Layer 1
10
98.582000
20
177.901000
11
98.582000
21
178.464000
0
LINE
8
Layer 1
10
98.580000
20
177.903000
11
98.675100
21
177.903000
0
LINE
8
Layer 1
10
98.675100
20
177.903000
11
98.675100
21
178.466000
0
LINE
8
Layer 1
10
98.675100
20
178.466000
11
98.580000
21
178.466000
0
LINE
8
Layer 1
10
98.580000
20
178.466000
11
98.580000
21
177.903000
0
LINE
8
Layer 1
10
98.958200
20
178.464000
11
99.050200
21
178.464000
0
LINE
8
Layer 1
10
99.050200
20
178.464000
11
99.050200
21
177.901000
0
LINE
8
Layer 1
10
99.050200
20
177.901000
11
98.958200
21
177.901000
0
LINE
8
Layer 1
10
98.958200
20
177.901000
11
98.958200
21
178.464000
0
LINE
8
Layer 1
10
98.957300
20
177.903000
11
99.048200
21
177.903000
0
LINE
8
Layer 1
10
99.048200
20
177.903000
11
99.048200
21
178.466000
0
LINE
8
Layer 1
10
99.048200
20
178.466000
11
98.957300
21
178.466000
0
LINE
8
Layer 1
10
98.957300
20
178.466000
11
98.957300
21
177.903000
0
LINE
8
Layer 1
10
99.331300
20
178.464000
11
99.427400
21
178.464000
0
LINE
8
Layer 1
10
99.427400
20
178.464000
11
99.427400
21
177.901000
0
LINE
8
Layer 1
10
99.427400
20
177.901000
11
99.331300
21
177.901000
0
LINE
8
Layer 1
10
99.331300
20
177.901000
11
99.331300
21
178.464000
0
LINE
8
Layer 1
10
99.330400
20
177.903000
11
99.425500
21
177.903000
0
LINE
8
Layer 1
10
99.425500
20
177.903000
11
99.425500
21
178.466000
0
LINE
8
Layer 1
10
99.425500
20
178.466000
11
99.330400
21
178.466000
0
LINE
8
Layer 1
10
99.330400
20
178.466000
11
99.330400
21
177.903000
0
LINE
8
Layer 1
10
99.613400
20
178.747000
11
100.177000
21
178.747000
0
LINE
8
Layer 1
10
100.177000
20
178.747000
11
100.177000
21
178.651000
0
LINE
8
Layer 1
10
100.177000
20
178.651000
11
99.613400
21
178.651000
0
LINE
8
Layer 1
10
99.613400
20
178.651000
11
99.613400
21
178.747000
0
LINE
8
Layer 1
10
99.611500
20
178.653000
11
100.175000
21
178.653000
0
LINE
8
Layer 1
10
100.175000
20
178.653000
11
100.175000
21
178.749000
0
LINE
8
Layer 1
10
100.175000
20
178.749000
11
99.611500
21
178.749000
0
LINE
8
Layer 1
10
99.611500
20
178.749000
11
99.611500
21
178.653000
0
LINE
8
Layer 1
10
99.613400
20
179.120000
11
100.177000
21
179.120000
0
LINE
8
Layer 1
10
100.177000
20
179.120000
11
100.177000
21
179.029000
0
LINE
8
Layer 1
10
100.177000
20
179.029000
11
99.613400
21
179.029000
0
LINE
8
Layer 1
10
99.613400
20
179.029000
11
99.613400
21
179.120000
0
LINE
8
Layer 1
10
99.611500
20
179.031000
11
100.175000
21
179.031000
0
LINE
8
Layer 1
10
100.175000
20
179.031000
11
100.175000
21
179.122000
0
LINE
8
Layer 1
10
100.175000
20
179.122000
11
99.611500
21
179.122000
0
LINE
8
Layer 1
10
99.611500
20
179.122000
11
99.611500
21
179.031000
0
LINE
8
Layer 1
10
99.331300
20
181.370000
11
99.427400
21
181.370000
0
LINE
8
Layer 1
10
99.427400
20
181.370000
11
99.427400
21
180.806000
0
LINE
8
Layer 1
10
99.427400
20
180.806000
11
99.331300
21
180.806000
0
LINE
8
Layer 1
10
99.331300
20
180.806000
11
99.331300
21
181.370000
0
LINE
8
Layer 1
10
99.330400
20
180.808000
11
99.425500
21
180.808000
0
LINE
8
Layer 1
10
99.425500
20
180.808000
11
99.425500
21
181.372000
0
LINE
8
Layer 1
10
99.425500
20
181.372000
11
99.330400
21
181.372000
0
LINE
8
Layer 1
10
99.330400
20
181.372000
11
99.330400
21
180.808000
0
LINE
8
Layer 1
10
98.958200
20
181.370000
11
99.050200
21
181.370000
0
LINE
8
Layer 1
10
99.050200
20
181.370000
11
99.050200
21
180.806000
0
LINE
8
Layer 1
10
99.050200
20
180.806000
11
98.958200
21
180.806000
0
LINE
8
Layer 1
10
98.958200
20
180.806000
11
98.958200
21
181.370000
0
LINE
8
Layer 1
10
98.957300
20
180.808000
11
99.048200
21
180.808000
0
LINE
8
Layer 1
10
99.048200
20
180.808000
11
99.048200
21
181.372000
0
LINE
8
Layer 1
10
99.048200
20
181.372000
11
98.957300
21
181.372000
0
LINE
8
Layer 1
10
98.957300
20
181.372000
11
98.957300
21
180.808000
0
LINE
8
Layer 1
10
98.582000
20
181.370000
11
98.677100
21
181.370000
0
LINE
8
Layer 1
10
98.677100
20
181.370000
11
98.677100
21
180.806000
0
LINE
8
Layer 1
10
98.677100
20
180.806000
11
98.582000
21
180.806000
0
LINE
8
Layer 1
10
98.582000
20
180.806000
11
98.582000
21
181.370000
0
LINE
8
Layer 1
10
98.580000
20
180.808000
11
98.675100
21
180.808000
0
LINE
8
Layer 1
10
98.675100
20
180.808000
11
98.675100
21
181.372000
0
LINE
8
Layer 1
10
98.675100
20
181.372000
11
98.580000
21
181.372000
0
LINE
8
Layer 1
10
98.580000
20
181.372000
11
98.580000
21
180.808000
0
LINE
8
Layer 1
10
98.208900
20
181.370000
11
98.304000
21
181.370000
0
LINE
8
Layer 1
10
98.304000
20
181.370000
11
98.304000
21
180.806000
0
LINE
8
Layer 1
10
98.304000
20
180.806000
11
98.208900
21
180.806000
0
LINE
8
Layer 1
10
98.208900
20
180.806000
11
98.208900
21
181.370000
0
LINE
8
Layer 1
10
98.206900
20
180.808000
11
98.302000
21
180.808000
0
LINE
8
Layer 1
10
98.302000
20
180.808000
11
98.302000
21
181.372000
0
LINE
8
Layer 1
10
98.302000
20
181.372000
11
98.206900
21
181.372000
0
LINE
8
Layer 1
10
98.206900
20
181.372000
11
98.206900
21
180.808000
0
LINE
8
Layer 1
10
97.831600
20
181.370000
11
97.926700
21
181.370000
0
LINE
8
Layer 1
10
97.926700
20
181.370000
11
97.926700
21
180.806000
0
LINE
8
Layer 1
10
97.926700
20
180.806000
11
97.831600
21
180.806000
0
LINE
8
Layer 1
10
97.831600
20
180.806000
11
97.831600
21
181.370000
0
LINE
8
Layer 1
10
97.829700
20
180.808000
11
97.924800
21
180.808000
0
LINE
8
Layer 1
10
97.924800
20
180.808000
11
97.924800
21
181.372000
0
LINE
8
Layer 1
10
97.924800
20
181.372000
11
97.829700
21
181.372000
0
LINE
8
Layer 1
10
97.829700
20
181.372000
11
97.829700
21
180.808000
0
LINE
8
Layer 1
10
97.458500
20
181.370000
11
97.553600
21
181.370000
0
LINE
8
Layer 1
10
97.553600
20
181.370000
11
97.553600
21
180.806000
0
LINE
8
Layer 1
10
97.553600
20
180.806000
11
97.458500
21
180.806000
0
LINE
8
Layer 1
10
97.458500
20
180.806000
11
97.458500
21
181.370000
0
LINE
8
Layer 1
10
97.456600
20
180.808000
11
97.551700
21
180.808000
0
LINE
8
Layer 1
10
97.551700
20
180.808000
11
97.551700
21
181.372000
0
LINE
8
Layer 1
10
97.551700
20
181.372000
11
97.456600
21
181.372000
0
LINE
8
Layer 1
10
97.456600
20
181.372000
11
97.456600
21
180.808000
 0 
ENDSEC
 0 
EOF