%TF.GenerationSoftware,KiCad,Pcbnew,9.0.1-rc2-202503292320~1d443ca74c~ubuntu24.04.1*%
%TF.CreationDate,2025-04-04T23:21:44+10:00*%
%TF.ProjectId,Stormbreaker,53746f72-6d62-4726-9561-6b65722e6b69,rev?*%
%TF.SameCoordinates,Original*%
%TF.FileFunction,Copper,L4,Bot*%
%TF.FilePolarity,Positive*%
%FSLAX46Y46*%
G04 Gerber Fmt 4.6, Leading zero omitted, Abs format (unit mm)*
G04 Created by KiCad (PCBNEW 9.0.1-rc2-202503292320~1d443ca74c~ubuntu24.04.1) date 2025-04-04 23:21:44*
%MOMM*%
%LPD*%
G01*
G04 APERTURE LIST*
G04 Aperture macros list*
%AMRoundRect*
0 Rectangle with rounded corners*
0 $1 Rounding radius*
0 $2 $3 $4 $5 $6 $7 $8 $9 X,Y pos of 4 corners*
0 Add a 4 corners polygon primitive as box body*
4,1,4,$2,$3,$4,$5,$6,$7,$8,$9,$2,$3,0*
0 Add four circle primitives for the rounded corners*
1,1,$1+$1,$2,$3*
1,1,$1+$1,$4,$5*
1,1,$1+$1,$6,$7*
1,1,$1+$1,$8,$9*
0 Add four rect primitives between the rounded corners*
20,1,$1+$1,$2,$3,$4,$5,0*
20,1,$1+$1,$4,$5,$6,$7,0*
20,1,$1+$1,$6,$7,$8,$9,0*
20,1,$1+$1,$8,$9,$2,$3,0*%
%AMHorizOval*
0 Thick line with rounded ends*
0 $1 width*
0 $2 $3 position (X,Y) of the first rounded end (center of the circle)*
0 $4 $5 position (X,Y) of the second rounded end (center of the circle)*
0 Add line between two ends*
20,1,$1,$2,$3,$4,$5,0*
0 Add two circle primitives to create the rounded ends*
1,1,$1,$2,$3*
1,1,$1,$4,$5*%
%AMRotRect*
0 Rectangle, with rotation*
0 The origin of the aperture is its center*
0 $1 length*
0 $2 width*
0 $3 Rotation angle, in degrees counterclockwise*
0 Add horizontal line*
21,1,$1,$2,0,0,$3*%
G04 Aperture macros list end*
%TA.AperFunction,HeatsinkPad*%
%ADD10C,0.500000*%
%TD*%
%TA.AperFunction,HeatsinkPad*%
%ADD11R,2.700000X2.700000*%
%TD*%
%TA.AperFunction,ComponentPad*%
%ADD12RotRect,0.850000X0.850000X135.000000*%
%TD*%
%TA.AperFunction,ComponentPad*%
%ADD13HorizOval,0.850000X0.000000X0.000000X0.000000X0.000000X0*%
%TD*%
%TA.AperFunction,HeatsinkPad*%
%ADD14O,1.000000X2.100000*%
%TD*%
%TA.AperFunction,HeatsinkPad*%
%ADD15O,1.000000X1.800000*%
%TD*%
%TA.AperFunction,ComponentPad*%
%ADD16RoundRect,0.250000X0.625000X-0.350000X0.625000X0.350000X-0.625000X0.350000X-0.625000X-0.350000X0*%
%TD*%
%TA.AperFunction,ComponentPad*%
%ADD17O,1.750000X1.200000*%
%TD*%
%TA.AperFunction,ComponentPad*%
%ADD18C,0.850000*%
%TD*%
%TA.AperFunction,ComponentPad*%
%ADD19R,0.850000X0.850000*%
%TD*%
%TA.AperFunction,ComponentPad*%
%ADD20O,0.850000X0.850000*%
%TD*%
%TA.AperFunction,ComponentPad*%
%ADD21R,1.000000X1.000000*%
%TD*%
%TA.AperFunction,ComponentPad*%
%ADD22O,1.000000X1.000000*%
%TD*%
%TA.AperFunction,SMDPad,CuDef*%
%ADD23RoundRect,0.225000X0.250000X-0.225000X0.250000X0.225000X-0.250000X0.225000X-0.250000X-0.225000X0*%
%TD*%
%TA.AperFunction,SMDPad,CuDef*%
%ADD24RoundRect,0.200000X-0.200000X-0.275000X0.200000X-0.275000X0.200000X0.275000X-0.200000X0.275000X0*%
%TD*%
%TA.AperFunction,SMDPad,CuDef*%
%ADD25RoundRect,0.225000X0.225000X0.250000X-0.225000X0.250000X-0.225000X-0.250000X0.225000X-0.250000X0*%
%TD*%
%TA.AperFunction,SMDPad,CuDef*%
%ADD26RoundRect,0.135000X-0.135000X-0.185000X0.135000X-0.185000X0.135000X0.185000X-0.135000X0.185000X0*%
%TD*%
%TA.AperFunction,SMDPad,CuDef*%
%ADD27RoundRect,0.135000X0.135000X0.185000X-0.135000X0.185000X-0.135000X-0.185000X0.135000X-0.185000X0*%
%TD*%
%TA.AperFunction,SMDPad,CuDef*%
%ADD28RoundRect,0.135000X0.185000X-0.135000X0.185000X0.135000X-0.185000X0.135000X-0.185000X-0.135000X0*%
%TD*%
%TA.AperFunction,SMDPad,CuDef*%
%ADD29RoundRect,0.135000X-0.185000X0.135000X-0.185000X-0.135000X0.185000X-0.135000X0.185000X0.135000X0*%
%TD*%
%TA.AperFunction,SMDPad,CuDef*%
%ADD30RoundRect,0.225000X-0.225000X-0.250000X0.225000X-0.250000X0.225000X0.250000X-0.225000X0.250000X0*%
%TD*%
%TA.AperFunction,SMDPad,CuDef*%
%ADD31RoundRect,0.200000X-0.053033X0.335876X-0.335876X0.053033X0.053033X-0.335876X0.335876X-0.053033X0*%
%TD*%
%TA.AperFunction,SMDPad,CuDef*%
%ADD32RoundRect,0.062500X0.062500X-0.337500X0.062500X0.337500X-0.062500X0.337500X-0.062500X-0.337500X0*%
%TD*%
%TA.AperFunction,SMDPad,CuDef*%
%ADD33RoundRect,0.062500X0.337500X-0.062500X0.337500X0.062500X-0.337500X0.062500X-0.337500X-0.062500X0*%
%TD*%
%TA.AperFunction,ComponentPad*%
%ADD34C,0.600000*%
%TD*%
%TA.AperFunction,SMDPad,CuDef*%
%ADD35RoundRect,0.250000X0.600000X-0.600000X0.600000X0.600000X-0.600000X0.600000X-0.600000X-0.600000X0*%
%TD*%
%TA.AperFunction,ViaPad*%
%ADD36C,0.600000*%
%TD*%
%TA.AperFunction,ViaPad*%
%ADD37C,0.800000*%
%TD*%
%TA.AperFunction,ViaPad*%
%ADD38C,0.500000*%
%TD*%
%TA.AperFunction,Conductor*%
%ADD39C,0.800000*%
%TD*%
%TA.AperFunction,Conductor*%
%ADD40C,0.200000*%
%TD*%
%TA.AperFunction,Conductor*%
%ADD41C,0.250000*%
%TD*%
%TA.AperFunction,Conductor*%
%ADD42C,0.400000*%
%TD*%
%TA.AperFunction,Conductor*%
%ADD43C,0.500000*%
%TD*%
%TA.AperFunction,Conductor*%
%ADD44C,0.600000*%
%TD*%
G04 APERTURE END LIST*
D10*
%TO.P,U1,25,PGND*%
%TO.N,GND*%
X146900000Y-57400000D03*
X146900000Y-58500000D03*
X146900000Y-59600000D03*
X148000000Y-57400000D03*
X148000000Y-58500000D03*
D11*
X148000000Y-58500000D03*
D10*
X148000000Y-59600000D03*
X149100000Y-57400000D03*
X149100000Y-58500000D03*
X149100000Y-59600000D03*
%TD*%
D12*
%TO.P,J3,1,Pin_1*%
%TO.N,VCC*%
X122542893Y-57457107D03*
D13*
%TO.P,J3,2,Pin_2*%
%TO.N,/PA0*%
X123250000Y-56750000D03*
%TO.P,J3,3,Pin_3*%
%TO.N,GND*%
X123957107Y-56042893D03*
%TD*%
D14*
%TO.P,J2,S1,SHIELD*%
%TO.N,GND*%
X152320000Y-47415000D03*
D15*
X152320000Y-43235000D03*
D14*
X143680000Y-47415000D03*
D15*
X143680000Y-43235000D03*
%TD*%
D16*
%TO.P,BT2,1,+*%
%TO.N,/BATT*%
X160750000Y-46000000D03*
D17*
%TO.P,BT2,2,-*%
%TO.N,GND*%
X160750000Y-44000000D03*
%TD*%
D12*
%TO.P,J5,1,Pin_1*%
%TO.N,SDA*%
X124191386Y-59426777D03*
D18*
%TO.P,J5,2,Pin_2*%
%TO.N,SCL*%
X124898493Y-58719670D03*
%TD*%
D19*
%TO.P,J4,1,Pin_1*%
%TO.N,VCC*%
X156750000Y-50500000D03*
D20*
%TO.P,J4,2,Pin_2*%
%TO.N,Net-(J4-Pin_2)*%
X155750000Y-50500000D03*
%TD*%
D21*
%TO.P,BT1,1,+*%
%TO.N,/BATT*%
X115250000Y-48000000D03*
D22*
%TO.P,BT1,2,-*%
%TO.N,GND*%
X115250000Y-49270000D03*
%TD*%
D23*
%TO.P,C13,1*%
%TO.N,VCC*%
X117000000Y-48250000D03*
%TO.P,C13,2*%
%TO.N,GND*%
X117000000Y-46700000D03*
%TD*%
D24*
%TO.P,R9,1*%
%TO.N,SDA_2*%
X122600000Y-49500000D03*
%TO.P,R9,2*%
%TO.N,VCC*%
X124250000Y-49500000D03*
%TD*%
D23*
%TO.P,C9,1*%
%TO.N,+3.3V*%
X126250000Y-60500000D03*
%TO.P,C9,2*%
%TO.N,GND*%
X126250000Y-58950000D03*
%TD*%
D24*
%TO.P,R10,1*%
%TO.N,SCL_2*%
X122600000Y-48000000D03*
%TO.P,R10,2*%
%TO.N,VCC*%
X124250000Y-48000000D03*
%TD*%
D25*
%TO.P,C11,1*%
%TO.N,SD_VCC*%
X129500000Y-46500000D03*
%TO.P,C11,2*%
%TO.N,GND*%
X127950000Y-46500000D03*
%TD*%
D26*
%TO.P,R1,1*%
%TO.N,GND*%
X145000000Y-61250000D03*
%TO.P,R1,2*%
%TO.N,Net-(U1-ILIM)*%
X146020000Y-61250000D03*
%TD*%
D23*
%TO.P,C2,1*%
%TO.N,/BATT*%
X151250000Y-58250000D03*
%TO.P,C2,2*%
%TO.N,GND*%
X151250000Y-56700000D03*
%TD*%
D27*
%TO.P,R12,1*%
%TO.N,Net-(U4-SDA)*%
X145000000Y-41750000D03*
%TO.P,R12,2*%
%TO.N,GND*%
X143980000Y-41750000D03*
%TD*%
D28*
%TO.P,R11,1*%
%TO.N,VBUS*%
X150500000Y-44220000D03*
%TO.P,R11,2*%
%TO.N,Net-(U4-GATE)*%
X150500000Y-43200000D03*
%TD*%
D23*
%TO.P,C10,1*%
%TO.N,+3.3V*%
X128250000Y-60500000D03*
%TO.P,C10,2*%
%TO.N,GND*%
X128250000Y-58950000D03*
%TD*%
D29*
%TO.P,R2,1*%
%TO.N,GND*%
X149750000Y-59980000D03*
%TO.P,R2,2*%
%TO.N,Net-(U1-TS)*%
X149750000Y-61000000D03*
%TD*%
D30*
%TO.P,C15,1*%
%TO.N,GND*%
X143495000Y-45500000D03*
%TO.P,C15,2*%
%TO.N,Net-(U4-VDD)*%
X145045000Y-45500000D03*
%TD*%
D31*
%TO.P,R7,1*%
%TO.N,/PA0*%
X122250000Y-55750000D03*
%TO.P,R7,2*%
%TO.N,VCC*%
X121083274Y-56916726D03*
%TD*%
D28*
%TO.P,R6,1*%
%TO.N,VBUS*%
X145000000Y-44250000D03*
%TO.P,R6,2*%
%TO.N,Net-(U4-~{DEBUG})*%
X145000000Y-43230000D03*
%TD*%
D27*
%TO.P,R3,1*%
%TO.N,Net-(U1-TS)*%
X148500000Y-60500000D03*
%TO.P,R3,2*%
%TO.N,Net-(U1-REGN)*%
X147480000Y-60500000D03*
%TD*%
D25*
%TO.P,C8,1*%
%TO.N,Net-(U2-VDD)*%
X127750000Y-55250000D03*
%TO.P,C8,2*%
%TO.N,GND*%
X126200000Y-55250000D03*
%TD*%
D32*
%TO.P,U4,1,D+*%
%TO.N,unconnected-(U4-D+-Pad1)*%
X148500000Y-44650000D03*
%TO.P,U4,2,D-*%
%TO.N,unconnected-(U4-D--Pad2)*%
X148000000Y-44650000D03*
%TO.P,U4,3,CC1*%
%TO.N,CC1*%
X147500000Y-44650000D03*
%TO.P,U4,4,CC2*%
%TO.N,CC2*%
X147000000Y-44650000D03*
D33*
%TO.P,U4,5,VDD*%
%TO.N,Net-(U4-VDD)*%
X146300000Y-43950000D03*
%TO.P,U4,6,~{DEBUG}*%
%TO.N,Net-(U4-~{DEBUG})*%
X146300000Y-43450000D03*
%TO.P,U4,7,OUT1*%
%TO.N,unconnected-(U4-OUT1-Pad7)*%
X146300000Y-42950000D03*
%TO.P,U4,8,ADDR*%
%TO.N,unconnected-(U4-ADDR-Pad8)*%
X146300000Y-42450000D03*
D32*
%TO.P,U4,9,SDA*%
%TO.N,Net-(U4-SDA)*%
X147000000Y-41750000D03*
%TO.P,U4,10,SCL*%
%TO.N,unconnected-(U4-SCL-Pad10)*%
X147500000Y-41750000D03*
%TO.P,U4,11,~{INT}*%
%TO.N,unconnected-(U4-~{INT}-Pad11)*%
X148000000Y-41750000D03*
%TO.P,U4,12,~{EN}*%
%TO.N,GND*%
X148500000Y-41750000D03*
D33*
%TO.P,U4,13,FAULT*%
%TO.N,unconnected-(U4-FAULT-Pad13)*%
X149200000Y-42450000D03*
%TO.P,U4,14,FLGIN*%
%TO.N,unconnected-(U4-FLGIN-Pad14)*%
X149200000Y-42950000D03*
%TO.P,U4,15,GATE*%
%TO.N,Net-(U4-GATE)*%
X149200000Y-43450000D03*
%TO.P,U4,16,VBUS*%
%TO.N,VBUS*%
X149200000Y-43950000D03*
D34*
%TO.P,U4,17,GND*%
%TO.N,GND*%
X147200000Y-43750000D03*
X147750000Y-43750000D03*
X148300000Y-43750000D03*
X147200000Y-43200000D03*
X147750000Y-43200000D03*
D35*
X147750000Y-43200000D03*
D34*
X148300000Y-43200000D03*
X147200000Y-42650000D03*
X147750000Y-42650000D03*
X148300000Y-42650000D03*
%TD*%
D36*
%TO.N,GND*%
X136250000Y-53000000D03*
X151200000Y-47990000D03*
X116000000Y-52000000D03*
X119000000Y-55000000D03*
X118000000Y-54000000D03*
D37*
X131250000Y-57500000D03*
X133500000Y-53000000D03*
D36*
X117500000Y-45000000D03*
D37*
X136750000Y-57750000D03*
D36*
X132805000Y-42025000D03*
X137500000Y-55000000D03*
X124855000Y-42150000D03*
X144800000Y-47990000D03*
X135000000Y-60000000D03*
X157500000Y-42500000D03*
D37*
X136750000Y-56250000D03*
D36*
X125000000Y-54500000D03*
D37*
X119000000Y-50750000D03*
X136750000Y-57000000D03*
D36*
X124750000Y-51500000D03*
X136205000Y-42150000D03*
D37*
X137500000Y-57000000D03*
D36*
X142500000Y-57500000D03*
D37*
X136000000Y-57000000D03*
D36*
X136455000Y-49750000D03*
X152250000Y-56500000D03*
X131500000Y-61250000D03*
X126500000Y-53000000D03*
D37*
%TO.N,/BATT*%
X151250000Y-60500000D03*
X152750000Y-60500000D03*
X152000000Y-60500000D03*
X152750000Y-59750000D03*
X152000000Y-61250000D03*
X152000000Y-59750000D03*
X151250000Y-61250000D03*
X152750000Y-61250000D03*
X151250000Y-59750000D03*
D36*
%TO.N,VBUS*%
X150400000Y-47990000D03*
X145600000Y-47990000D03*
D37*
X146250000Y-52250000D03*
X145500000Y-53750000D03*
X146250000Y-53000000D03*
X145500000Y-52250000D03*
X145500000Y-53000000D03*
X146250000Y-53750000D03*
D38*
%TO.N,Net-(U1-REGN)*%
X148000000Y-55000000D03*
D37*
%TO.N,VCC*%
X141750000Y-50250000D03*
X151250000Y-52750000D03*
D38*
X154000000Y-58250000D03*
D37*
X151250000Y-52000000D03*
X139500000Y-50250000D03*
X152750000Y-52750000D03*
X141000000Y-50250000D03*
X139500000Y-51000000D03*
D38*
X154500000Y-58750000D03*
D37*
X152000000Y-51250000D03*
D38*
X155000000Y-58750000D03*
D37*
X141750000Y-51750000D03*
D36*
X126660000Y-48750000D03*
D38*
X154500000Y-58250000D03*
D37*
X152000000Y-50500000D03*
X140250000Y-50250000D03*
D38*
X154000000Y-58750000D03*
D37*
X152750000Y-50500000D03*
X152000000Y-52000000D03*
X140250000Y-51750000D03*
X141000000Y-51750000D03*
D38*
X117000000Y-49315686D03*
D37*
X141000000Y-51000000D03*
D38*
X155000000Y-58250000D03*
D37*
X141750000Y-51000000D03*
X152750000Y-52000000D03*
X152000000Y-52750000D03*
X151250000Y-50500000D03*
X140250000Y-51000000D03*
X151250000Y-51250000D03*
X139500000Y-49500000D03*
X140250000Y-49500000D03*
X141750000Y-49500000D03*
X139500000Y-51750000D03*
X141000000Y-49500000D03*
X152750000Y-51250000D03*
D36*
%TO.N,Net-(U2-VDD)*%
X129000000Y-55050000D03*
%TO.N,+3.3V*%
X127250000Y-60500000D03*
%TO.N,SD_VCC*%
X130605000Y-46500000D03*
X130000000Y-60500000D03*
X132500000Y-54350000D03*
D38*
%TO.N,SD_D1*%
X132500000Y-60500000D03*
X135000000Y-54500000D03*
%TO.N,SD_D0*%
X134250000Y-58750000D03*
X134250000Y-54500000D03*
%TO.N,Net-(U1-ILIM)*%
X148000000Y-61500000D03*
%TO.N,Net-(U1-TS)*%
X149250000Y-61500000D03*
%TO.N,SCL*%
X121125940Y-52067093D03*
%TO.N,SDA*%
X120972182Y-52750000D03*
%TO.N,SDA_2*%
X143750000Y-59750000D03*
X126500000Y-51251000D03*
X122000000Y-49500000D03*
%TO.N,SCL_2*%
X144500000Y-59250000D03*
X122000000Y-48000000D03*
X126500000Y-50500000D03*
%TO.N,/BQ_STAT*%
X143000000Y-56500000D03*
X121750000Y-51750000D03*
%TO.N,/PA0*%
X120200000Y-48500000D03*
D36*
%TO.N,FAN_PWM*%
X123604998Y-50750000D03*
X156700000Y-47500000D03*
%TO.N,Net-(Q1-G)*%
X137750000Y-53007500D03*
D38*
X121236091Y-47736091D03*
%TO.N,CC2*%
X146250000Y-47000000D03*
%TO.N,CC1*%
X149250000Y-47000000D03*
D37*
%TO.N,VDD*%
X139250000Y-55750000D03*
X140750000Y-55000000D03*
X140000000Y-58500000D03*
X139250000Y-55000000D03*
X140000000Y-55000000D03*
X140000000Y-57750000D03*
X139250000Y-58500000D03*
X140000000Y-59250000D03*
X140750000Y-55750000D03*
X140750000Y-58500000D03*
X140000000Y-55750000D03*
%TD*%
D39*
%TO.N,/BATT*%
X151250000Y-58250000D02*
X151250000Y-59750000D01*
D40*
%TO.N,VBUS*%
X145636000Y-46636000D02*
X145636000Y-47954000D01*
X144294000Y-45974110D02*
X144595890Y-46276000D01*
X144294000Y-44956000D02*
X144294000Y-45974110D01*
D41*
X145674000Y-47916000D02*
X145600000Y-47990000D01*
D40*
X145276000Y-46276000D02*
X145636000Y-46636000D01*
X144595890Y-46276000D02*
X145276000Y-46276000D01*
X145000000Y-44250000D02*
X144294000Y-44956000D01*
X145636000Y-47954000D02*
X145600000Y-47990000D01*
%TO.N,Net-(U1-REGN)*%
X147250000Y-55750000D02*
X145750000Y-55750000D01*
X148000000Y-55000000D02*
X147250000Y-55750000D01*
X145250000Y-56250000D02*
X145250000Y-59750000D01*
X145750000Y-55750000D02*
X145250000Y-56250000D01*
X146000000Y-60500000D02*
X147480000Y-60500000D01*
X145250000Y-59750000D02*
X146000000Y-60500000D01*
D42*
%TO.N,VCC*%
X125000000Y-49500000D02*
X124250000Y-49500000D01*
X124250000Y-46750000D02*
X124250000Y-48000000D01*
D39*
X124250000Y-48000000D02*
X124250000Y-49500000D01*
D43*
X117000000Y-49315686D02*
X117000000Y-48250000D01*
D42*
X125750000Y-48750000D02*
X125000000Y-49500000D01*
X126660000Y-48750000D02*
X125750000Y-48750000D01*
X124000000Y-46500000D02*
X124250000Y-46750000D01*
X117000000Y-48250000D02*
X118000000Y-48250000D01*
X118000000Y-48250000D02*
X119750000Y-46500000D01*
X119750000Y-46500000D02*
X124000000Y-46500000D01*
D41*
%TO.N,Net-(U2-VDD)*%
X129000000Y-55050000D02*
X128800000Y-55250000D01*
X128800000Y-55250000D02*
X127750000Y-55250000D01*
D43*
%TO.N,SD_VCC*%
X131650000Y-54350000D02*
X130000000Y-56000000D01*
X132500000Y-54350000D02*
X131650000Y-54350000D01*
D44*
X130605000Y-46500000D02*
X129500000Y-46500000D01*
D43*
X130000000Y-56000000D02*
X130000000Y-60500000D01*
D41*
%TO.N,SD_D1*%
X135000000Y-59014616D02*
X133514616Y-60500000D01*
X133514616Y-60500000D02*
X132500000Y-60500000D01*
X135000000Y-54500000D02*
X135000000Y-58779232D01*
X135000000Y-58779232D02*
X135000000Y-59014616D01*
%TO.N,SD_D0*%
X134250000Y-54500000D02*
X134250000Y-58750000D01*
D40*
%TO.N,Net-(U1-ILIM)*%
X147000000Y-61500000D02*
X146750000Y-61250000D01*
X148000000Y-61500000D02*
X147000000Y-61500000D01*
X146750000Y-61250000D02*
X146020000Y-61250000D01*
D43*
%TO.N,Net-(U1-TS)*%
X149250000Y-61500000D02*
X149750000Y-61000000D01*
D40*
X148500000Y-61250000D02*
X148500000Y-60500000D01*
X149250000Y-61500000D02*
X148750000Y-61500000D01*
X148750000Y-61500000D02*
X148500000Y-61250000D01*
%TO.N,SCL*%
X122791585Y-53283551D02*
X125129047Y-55621012D01*
X121125940Y-52067093D02*
X122342398Y-53283551D01*
X122342398Y-53283551D02*
X122791585Y-53283551D01*
X125129047Y-55621012D02*
X125129047Y-57637728D01*
X125129047Y-57637728D02*
X124898493Y-57868282D01*
X124898493Y-57868282D02*
X124898493Y-58719670D01*
%TO.N,SDA*%
X120972182Y-52750000D02*
X121906733Y-53684551D01*
X123500000Y-58735391D02*
X124191386Y-59426777D01*
X122625485Y-53684551D02*
X124728047Y-55787112D01*
X121906733Y-53684551D02*
X122625485Y-53684551D01*
X124728047Y-57271953D02*
X123500000Y-58500000D01*
X124728047Y-55787112D02*
X124728047Y-57271953D01*
X123500000Y-58500000D02*
X123500000Y-58735391D01*
%TO.N,SDA_2*%
X137068100Y-51251000D02*
X139067100Y-53250000D01*
X142500000Y-53250000D02*
X143750000Y-54500000D01*
X122000000Y-49500000D02*
X122600000Y-49500000D01*
X126500000Y-51251000D02*
X137068100Y-51251000D01*
X139067100Y-53250000D02*
X142500000Y-53250000D01*
X143750000Y-54500000D02*
X143750000Y-59750000D01*
%TO.N,SCL_2*%
X144500000Y-54500000D02*
X142750000Y-52750000D01*
X137134200Y-50750000D02*
X126750000Y-50750000D01*
X142750000Y-52750000D02*
X139134200Y-52750000D01*
X126750000Y-50750000D02*
X126500000Y-50500000D01*
X139134200Y-52750000D02*
X137134200Y-50750000D01*
X122600000Y-48000000D02*
X122000000Y-48000000D01*
X144500000Y-59250000D02*
X144500000Y-54500000D01*
%TO.N,/BQ_STAT*%
X122508498Y-52882551D02*
X121750000Y-52124053D01*
X143000000Y-54500000D02*
X142250000Y-53750000D01*
X122957685Y-52882551D02*
X122508498Y-52882551D01*
X121750000Y-52124053D02*
X121750000Y-51750000D01*
X143000000Y-56500000D02*
X143000000Y-54500000D01*
X142250000Y-53750000D02*
X123825134Y-53750000D01*
X123825134Y-53750000D02*
X122957685Y-52882551D01*
%TO.N,/PA0*%
X122250000Y-55750000D02*
X119750000Y-53250000D01*
X120200000Y-48500000D02*
X119750000Y-48950000D01*
X119750000Y-48950000D02*
X119750000Y-53250000D01*
D39*
X122250000Y-55750000D02*
X123250000Y-56750000D01*
D40*
%TO.N,FAN_PWM*%
X154484000Y-48766000D02*
X135734000Y-48766000D01*
X124750000Y-50750000D02*
X123604998Y-50750000D01*
X126058049Y-49441951D02*
X124750000Y-50750000D01*
X155750000Y-47500000D02*
X154484000Y-48766000D01*
X156700000Y-47500000D02*
X155750000Y-47500000D01*
X135058049Y-49441951D02*
X126058049Y-49441951D01*
X135734000Y-48766000D02*
X135058049Y-49441951D01*
%TO.N,Net-(Q1-G)*%
X137750000Y-52750000D02*
X137750000Y-53007500D01*
X121236091Y-47736091D02*
X121236091Y-49736091D01*
X121236091Y-49736091D02*
X123750000Y-52250000D01*
X137250000Y-52250000D02*
X137750000Y-52750000D01*
X123750000Y-52250000D02*
X137250000Y-52250000D01*
%TO.N,CC2*%
X147000000Y-44650000D02*
X147000000Y-46750000D01*
X146750000Y-47000000D02*
X146250000Y-47000000D01*
X147000000Y-46750000D02*
X146750000Y-47000000D01*
%TO.N,CC1*%
X147800000Y-47000000D02*
X147500000Y-46700000D01*
X147500000Y-46700000D02*
X147500000Y-44650000D01*
X149250000Y-47000000D02*
X147800000Y-47000000D01*
D41*
%TO.N,Net-(U4-~{DEBUG})*%
X145020000Y-43250000D02*
X145500000Y-43250000D01*
D40*
X145000000Y-43230000D02*
X145020000Y-43250000D01*
D41*
X145500000Y-43250000D02*
X145700000Y-43450000D01*
X145700000Y-43450000D02*
X146300000Y-43450000D01*
%TO.N,Net-(U4-GATE)*%
X149750000Y-43450000D02*
X149200000Y-43450000D01*
X150000000Y-43200000D02*
X149750000Y-43450000D01*
X150500000Y-43200000D02*
X150000000Y-43200000D01*
D40*
%TO.N,Net-(U4-SDA)*%
X147000000Y-41750000D02*
X145000000Y-41750000D01*
%TO.N,Net-(U4-VDD)*%
X146300000Y-44950000D02*
X145750000Y-45500000D01*
X146300000Y-43950000D02*
X146300000Y-44950000D01*
X145750000Y-45500000D02*
X144750000Y-45500000D01*
%TD*%
%TA.AperFunction,Conductor*%
%TO.N,VCC*%
G36*
X142250000Y-52449500D02*
G01*
X139310033Y-52449500D01*
X139242994Y-52429815D01*
X139222352Y-52413181D01*
X139036319Y-52227148D01*
X139002834Y-52165825D01*
X139000000Y-52139467D01*
X139000000Y-49190500D01*
X139019685Y-49123461D01*
X139072489Y-49077706D01*
X139124000Y-49066500D01*
X142250000Y-49066500D01*
X142250000Y-52449500D01*
G37*
%TD.AperFunction*%
%TD*%
%TA.AperFunction,Conductor*%
%TO.N,GND*%
G36*
X144572708Y-41170185D02*
G01*
X144618463Y-41222989D01*
X144628407Y-41292147D01*
X144599382Y-41355703D01*
X144593350Y-41362181D01*
X144585935Y-41369595D01*
X144535931Y-41476828D01*
X144529500Y-41525683D01*
X144529500Y-41974316D01*
X144535931Y-42023171D01*
X144535932Y-42023173D01*
X144585935Y-42130404D01*
X144669596Y-42214065D01*
X144776827Y-42264068D01*
X144825683Y-42270500D01*
X144825684Y-42270500D01*
X145174317Y-42270500D01*
X145190601Y-42268356D01*
X145223173Y-42264068D01*
X145330404Y-42214065D01*
X145414065Y-42130404D01*
X145417939Y-42122095D01*
X145429401Y-42109077D01*
X145436608Y-42093297D01*
X145452011Y-42083397D01*
X145464110Y-42069657D01*
X145480994Y-42064771D01*
X145495386Y-42055523D01*
X145530321Y-42050500D01*
X145639382Y-42050500D01*
X145706421Y-42070185D01*
X145752176Y-42122989D01*
X145762120Y-42192147D01*
X145742485Y-42243390D01*
X145714759Y-42284884D01*
X145714758Y-42284887D01*
X145699500Y-42361595D01*
X145699500Y-42538398D01*
X145714760Y-42615119D01*
X145725446Y-42631111D01*
X145746323Y-42697788D01*
X145739057Y-42741878D01*
X145733910Y-42756222D01*
X145714760Y-42784883D01*
X145703729Y-42840333D01*
X145700619Y-42849004D01*
X145685237Y-42870095D01*
X145673136Y-42893230D01*
X145664979Y-42897874D01*
X145659450Y-42905457D01*
X145635104Y-42914885D01*
X145612419Y-42927803D01*
X145602145Y-42927650D01*
X145594296Y-42930690D01*
X145577647Y-42927285D01*
X145551813Y-42926901D01*
X145542853Y-42924500D01*
X145542850Y-42924500D01*
X145540331Y-42924500D01*
X145538282Y-42923898D01*
X145534793Y-42923439D01*
X145534864Y-42922894D01*
X145473292Y-42904815D01*
X145452650Y-42888181D01*
X145380404Y-42815935D01*
X145338005Y-42796164D01*
X145273173Y-42765932D01*
X145273171Y-42765931D01*
X145273172Y-42765931D01*
X145224317Y-42759500D01*
X145224316Y-42759500D01*
X144775684Y-42759500D01*
X144775683Y-42759500D01*
X144726828Y-42765931D01*
X144619595Y-42815935D01*
X144535935Y-42899595D01*
X144485931Y-43006828D01*
X144479500Y-43055683D01*
X144479500Y-43404316D01*
X144485931Y-43453171D01*
X144535935Y-43560404D01*
X144627267Y-43651736D01*
X144624443Y-43654559D01*
X144655183Y-43693042D01*
X144662352Y-43762542D01*
X144630808Y-43824886D01*
X144627101Y-43828098D01*
X144627267Y-43828264D01*
X144535935Y-43919595D01*
X144485931Y-44026828D01*
X144479500Y-44075683D01*
X144479500Y-44294167D01*
X144459815Y-44361206D01*
X144443181Y-44381848D01*
X144053541Y-44771487D01*
X144053535Y-44771495D01*
X144013982Y-44840004D01*
X144013979Y-44840009D01*
X144013659Y-44841205D01*
X143993500Y-44916438D01*
X143993500Y-46013672D01*
X143998842Y-46033608D01*
X144013979Y-46090100D01*
X144013980Y-46090101D01*
X144019408Y-46099502D01*
X144035164Y-46126793D01*
X144053540Y-46158621D01*
X144355430Y-46460511D01*
X144411379Y-46516460D01*
X144411381Y-46516461D01*
X144411385Y-46516464D01*
X144478288Y-46555090D01*
X144479901Y-46556021D01*
X144556328Y-46576500D01*
X144600100Y-46576500D01*
X144667139Y-46596185D01*
X144712894Y-46648989D01*
X144722838Y-46718147D01*
X144714662Y-46747950D01*
X144713498Y-46750759D01*
X144713497Y-46750763D01*
X144684500Y-46858982D01*
X144684500Y-46971018D01*
X144712531Y-47075629D01*
X144713497Y-47079236D01*
X144713498Y-47079239D01*
X144724635Y-47098528D01*
X144769515Y-47176263D01*
X144848737Y-47255485D01*
X144945763Y-47311503D01*
X144993313Y-47324244D01*
X145052972Y-47360608D01*
X145083502Y-47423454D01*
X145075208Y-47492830D01*
X145074670Y-47493924D01*
X145072509Y-47499064D01*
X145052826Y-47566096D01*
X145052825Y-47566101D01*
X145052825Y-47566102D01*
X145047995Y-47599697D01*
X145044500Y-47624003D01*
X145044500Y-47735195D01*
X145046592Y-47764443D01*
X145051615Y-47799378D01*
X145059194Y-47819700D01*
X145062785Y-47830935D01*
X145067894Y-47850001D01*
X145086902Y-47920941D01*
X145090775Y-47935393D01*
X145095000Y-47967487D01*
X145095000Y-48012512D01*
X145090775Y-48044604D01*
X145082686Y-48074793D01*
X145063300Y-48147142D01*
X145062691Y-48149334D01*
X145059011Y-48162122D01*
X145058408Y-48165383D01*
X145054941Y-48178763D01*
X145054797Y-48179003D01*
X145054680Y-48179751D01*
X145051506Y-48191597D01*
X145051501Y-48191619D01*
X145044500Y-48244801D01*
X145044500Y-48341500D01*
X145024815Y-48408539D01*
X144972011Y-48454294D01*
X144920500Y-48465500D01*
X135694438Y-48465500D01*
X135663867Y-48473691D01*
X135618008Y-48485979D01*
X135618007Y-48485980D01*
X135571238Y-48512983D01*
X135571237Y-48512983D01*
X135549495Y-48525535D01*
X135549487Y-48525541D01*
X134969897Y-49105132D01*
X134908574Y-49138617D01*
X134882216Y-49141451D01*
X127226698Y-49141451D01*
X127159659Y-49121766D01*
X127113904Y-49068962D01*
X127103960Y-48999804D01*
X127119312Y-48955449D01*
X127126391Y-48943188D01*
X127127804Y-48937915D01*
X127160500Y-48815892D01*
X127160500Y-48684108D01*
X127126392Y-48556814D01*
X127060500Y-48442686D01*
X126967314Y-48349500D01*
X126879664Y-48298895D01*
X126853187Y-48283608D01*
X126789539Y-48266554D01*
X126725892Y-48249500D01*
X126594108Y-48249500D01*
X126594106Y-48249500D01*
X126588046Y-48251124D01*
X126560680Y-48254418D01*
X126560716Y-48254885D01*
X126554642Y-48255347D01*
X126525110Y-48260542D01*
X126039833Y-48345906D01*
X126039829Y-48345907D01*
X126035163Y-48346728D01*
X126035098Y-48346360D01*
X126010175Y-48349500D01*
X125697273Y-48349500D01*
X125595410Y-48376793D01*
X125504087Y-48429520D01*
X125504084Y-48429522D01*
X125062181Y-48871425D01*
X125000858Y-48904910D01*
X124931166Y-48899926D01*
X124875233Y-48858054D01*
X124850816Y-48792590D01*
X124850500Y-48783744D01*
X124850500Y-47910954D01*
X124850499Y-47910940D01*
X124850499Y-47693482D01*
X124850452Y-47693186D01*
X124835646Y-47599696D01*
X124835644Y-47599692D01*
X124834473Y-47596088D01*
X124826344Y-47574241D01*
X124825983Y-47572773D01*
X124825982Y-47572766D01*
X124736870Y-47320314D01*
X124657571Y-47095662D01*
X124650500Y-47054388D01*
X124650500Y-46697275D01*
X124650500Y-46697273D01*
X124623207Y-46595413D01*
X124570480Y-46504087D01*
X124495913Y-46429520D01*
X124282899Y-46216506D01*
X128849500Y-46216506D01*
X128849500Y-46783493D01*
X128865279Y-46883121D01*
X128865280Y-46883124D01*
X128865281Y-46883126D01*
X128926472Y-47003220D01*
X128926473Y-47003221D01*
X128926476Y-47003225D01*
X129021774Y-47098523D01*
X129021778Y-47098526D01*
X129021780Y-47098528D01*
X129141874Y-47159719D01*
X129141876Y-47159719D01*
X129141878Y-47159720D01*
X129241507Y-47175500D01*
X129241512Y-47175500D01*
X129758493Y-47175500D01*
X129858121Y-47159720D01*
X129858122Y-47159719D01*
X129858126Y-47159719D01*
X129872335Y-47152479D01*
X129897438Y-47142949D01*
X130430170Y-47004486D01*
X130461357Y-47000500D01*
X130670890Y-47000500D01*
X130670892Y-47000500D01*
X130798186Y-46966392D01*
X130912314Y-46900500D01*
X131005500Y-46807314D01*
X131071392Y-46693186D01*
X131105500Y-46565892D01*
X131105500Y-46434108D01*
X131071392Y-46306814D01*
X131005500Y-46192686D01*
X130912314Y-46099500D01*
X130855250Y-46066554D01*
X130798187Y-46033608D01*
X130723783Y-46013672D01*
X130670892Y-45999500D01*
X130670891Y-45999500D01*
X130461361Y-45999500D01*
X130430168Y-45995512D01*
X129897434Y-45857046D01*
X129872335Y-45847520D01*
X129858127Y-45840281D01*
X129858123Y-45840279D01*
X129758493Y-45824500D01*
X129758488Y-45824500D01*
X129241512Y-45824500D01*
X129241507Y-45824500D01*
X129141878Y-45840279D01*
X129021778Y-45901473D01*
X129021774Y-45901476D01*
X128926476Y-45996774D01*
X128926473Y-45996778D01*
X128926472Y-45996780D01*
X128874133Y-46099502D01*
X128865279Y-46116878D01*
X128849500Y-46216506D01*
X124282899Y-46216506D01*
X124245913Y-46179520D01*
X124200250Y-46153156D01*
X124154589Y-46126793D01*
X124103657Y-46113146D01*
X124052727Y-46099500D01*
X124052726Y-46099500D01*
X119810339Y-46099500D01*
X119810323Y-46099499D01*
X119802727Y-46099499D01*
X119697273Y-46099499D01*
X119632430Y-46116874D01*
X119595412Y-46126793D01*
X119504084Y-46179522D01*
X117870426Y-47813181D01*
X117843498Y-47827884D01*
X117817680Y-47844477D01*
X117811479Y-47845368D01*
X117809103Y-47846666D01*
X117782745Y-47849500D01*
X117714115Y-47849500D01*
X117647076Y-47829815D01*
X117603630Y-47781794D01*
X117598528Y-47771780D01*
X117598523Y-47771774D01*
X117503225Y-47676476D01*
X117503221Y-47676473D01*
X117503220Y-47676472D01*
X117383126Y-47615281D01*
X117383124Y-47615280D01*
X117383121Y-47615279D01*
X117283493Y-47599500D01*
X117283488Y-47599500D01*
X116716512Y-47599500D01*
X116716507Y-47599500D01*
X116616878Y-47615279D01*
X116496778Y-47676473D01*
X116496774Y-47676476D01*
X116401476Y-47771774D01*
X116401473Y-47771778D01*
X116340279Y-47891878D01*
X116324500Y-47991506D01*
X116324500Y-48508493D01*
X116340279Y-48608121D01*
X116340280Y-48608124D01*
X116340281Y-48608126D01*
X116401472Y-48728220D01*
X116401473Y-48728221D01*
X116401476Y-48728225D01*
X116496774Y-48823523D01*
X116496777Y-48823525D01*
X116496780Y-48823528D01*
X116496782Y-48823529D01*
X116498379Y-48824689D01*
X116499858Y-48826607D01*
X116503680Y-48830429D01*
X116503186Y-48830922D01*
X116541048Y-48880017D01*
X116549500Y-48925012D01*
X116549500Y-49374995D01*
X116580201Y-49489572D01*
X116639511Y-49592299D01*
X116723387Y-49676175D01*
X116826114Y-49735485D01*
X116940691Y-49766186D01*
X116940694Y-49766186D01*
X117059306Y-49766186D01*
X117059309Y-49766186D01*
X117173886Y-49735485D01*
X117276613Y-49676175D01*
X117360489Y-49592299D01*
X117419799Y-49489572D01*
X117450500Y-49374995D01*
X117450500Y-48925012D01*
X117470185Y-48857973D01*
X117483590Y-48840683D01*
X117496171Y-48827119D01*
X117503220Y-48823528D01*
X117598528Y-48728220D01*
X117611467Y-48702824D01*
X117623205Y-48690171D01*
X117638990Y-48680765D01*
X117651604Y-48667410D01*
X117669556Y-48662553D01*
X117683228Y-48654408D01*
X117697838Y-48654903D01*
X117714115Y-48650500D01*
X118052725Y-48650500D01*
X118052727Y-48650500D01*
X118154588Y-48623207D01*
X118245913Y-48570480D01*
X119879573Y-46936818D01*
X119940896Y-46903334D01*
X119967254Y-46900500D01*
X123725500Y-46900500D01*
X123734185Y-46903050D01*
X123743147Y-46901762D01*
X123767187Y-46912740D01*
X123792539Y-46920185D01*
X123798466Y-46927025D01*
X123806703Y-46930787D01*
X123820992Y-46953021D01*
X123838294Y-46972989D01*
X123840581Y-46983503D01*
X123844477Y-46989565D01*
X123849500Y-47024500D01*
X123849500Y-47054385D01*
X123842429Y-47095659D01*
X123674020Y-47572753D01*
X123674012Y-47572779D01*
X123673567Y-47574573D01*
X123665486Y-47596210D01*
X123664353Y-47599697D01*
X123649500Y-47693475D01*
X123649500Y-49806517D01*
X123656717Y-49852082D01*
X123664354Y-49900304D01*
X123721950Y-50013342D01*
X123721952Y-50013344D01*
X123721954Y-50013347D01*
X123746426Y-50037819D01*
X123779911Y-50099142D01*
X123774927Y-50168834D01*
X123733055Y-50224767D01*
X123667591Y-50249184D01*
X123658745Y-50249500D01*
X123539106Y-50249500D01*
X123411810Y-50283608D01*
X123297684Y-50349500D01*
X123297681Y-50349502D01*
X123204500Y-50442683D01*
X123204498Y-50442686D01*
X123138606Y-50556812D01*
X123104498Y-50684108D01*
X123104498Y-50815891D01*
X123117823Y-50865622D01*
X123116160Y-50935472D01*
X123076997Y-50993335D01*
X123012768Y-51020838D01*
X122943866Y-51009251D01*
X122910367Y-50985396D01*
X122312151Y-50387180D01*
X122278666Y-50325857D01*
X122283650Y-50256165D01*
X122325522Y-50200232D01*
X122390986Y-50175815D01*
X122399805Y-50175499D01*
X122831518Y-50175499D01*
X122925304Y-50160646D01*
X123038342Y-50103050D01*
X123128050Y-50013342D01*
X123185646Y-49900304D01*
X123185646Y-49900302D01*
X123185647Y-49900301D01*
X123200499Y-49806524D01*
X123200500Y-49806519D01*
X123200499Y-49193482D01*
X123185646Y-49099696D01*
X123128050Y-48986658D01*
X123128046Y-48986654D01*
X123128045Y-48986652D01*
X123038347Y-48896954D01*
X123038343Y-48896951D01*
X123038342Y-48896950D01*
X123026062Y-48890693D01*
X122966773Y-48860483D01*
X122915978Y-48812508D01*
X122899183Y-48744687D01*
X122921721Y-48678553D01*
X122966771Y-48639517D01*
X123038342Y-48603050D01*
X123128050Y-48513342D01*
X123185646Y-48400304D01*
X123185646Y-48400302D01*
X123185647Y-48400301D01*
X123200499Y-48306524D01*
X123200500Y-48306519D01*
X123200499Y-47693482D01*
X123185646Y-47599696D01*
X123128050Y-47486658D01*
X123128046Y-47486654D01*
X123128045Y-47486652D01*
X123038347Y-47396954D01*
X123038344Y-47396952D01*
X123038342Y-47396950D01*
X122943523Y-47348637D01*
X122925301Y-47339352D01*
X122831524Y-47324500D01*
X122368482Y-47324500D01*
X122287519Y-47337323D01*
X122274696Y-47339354D01*
X122161658Y-47396950D01*
X122161657Y-47396951D01*
X122161652Y-47396954D01*
X122071950Y-47486657D01*
X122066214Y-47494552D01*
X122063940Y-47492899D01*
X122026454Y-47532591D01*
X121994785Y-47545603D01*
X121979610Y-47549500D01*
X121940691Y-47549500D01*
X121826114Y-47580201D01*
X121798922Y-47595900D01*
X121782467Y-47600126D01*
X121763835Y-47599488D01*
X121745720Y-47603882D01*
X121729643Y-47598317D01*
X121712639Y-47597735D01*
X121697310Y-47587125D01*
X121679694Y-47581028D01*
X121664751Y-47564590D01*
X121655188Y-47557971D01*
X121652196Y-47550778D01*
X121644238Y-47542024D01*
X121638792Y-47532591D01*
X121596580Y-47459478D01*
X121512704Y-47375602D01*
X121409977Y-47316292D01*
X121295400Y-47285591D01*
X121176782Y-47285591D01*
X121062205Y-47316292D01*
X121062203Y-47316292D01*
X121062203Y-47316293D01*
X120959478Y-47375602D01*
X120959475Y-47375604D01*
X120875604Y-47459475D01*
X120875602Y-47459478D01*
X120818737Y-47557971D01*
X120816292Y-47562205D01*
X120785591Y-47676782D01*
X120785591Y-47795400D01*
X120786957Y-47800500D01*
X120794347Y-47828078D01*
X120797708Y-47845556D01*
X120799529Y-47860899D01*
X120799529Y-47860901D01*
X120929511Y-48260542D01*
X120935591Y-48298895D01*
X120935591Y-49775653D01*
X120943862Y-49806519D01*
X120956070Y-49852082D01*
X120956072Y-49852085D01*
X120982890Y-49898534D01*
X120982891Y-49898537D01*
X120995626Y-49920595D01*
X120995630Y-49920600D01*
X120995631Y-49920602D01*
X123509540Y-52434511D01*
X123565489Y-52490460D01*
X123565491Y-52490461D01*
X123565495Y-52490464D01*
X123634004Y-52530017D01*
X123634011Y-52530021D01*
X123710438Y-52550500D01*
X137074167Y-52550500D01*
X137103607Y-52559144D01*
X137133594Y-52565668D01*
X137138609Y-52569422D01*
X137141206Y-52570185D01*
X137161848Y-52586819D01*
X137195141Y-52620112D01*
X137228626Y-52681435D01*
X137231297Y-52701442D01*
X137249337Y-53053214D01*
X137249500Y-53059565D01*
X137249500Y-53073398D01*
X137251536Y-53080998D01*
X137251715Y-53082361D01*
X137252353Y-53084048D01*
X137253962Y-53090050D01*
X137253967Y-53090065D01*
X137283608Y-53200687D01*
X137298756Y-53226924D01*
X137319874Y-53263501D01*
X137336347Y-53331399D01*
X137313495Y-53397426D01*
X137258574Y-53440617D01*
X137212487Y-53449500D01*
X124000967Y-53449500D01*
X123933928Y-53429815D01*
X123913286Y-53413181D01*
X123142197Y-52642092D01*
X123142192Y-52642088D01*
X123129308Y-52634650D01*
X123129306Y-52634649D01*
X123073676Y-52602531D01*
X123073675Y-52602530D01*
X123048198Y-52595703D01*
X122997247Y-52582051D01*
X122997245Y-52582051D01*
X122684331Y-52582051D01*
X122617292Y-52562366D01*
X122596650Y-52545732D01*
X122183739Y-52132821D01*
X122178829Y-52123829D01*
X122170747Y-52117534D01*
X122162368Y-52093683D01*
X122150254Y-52071498D01*
X122150368Y-52059526D01*
X122147589Y-52051614D01*
X122150740Y-52020690D01*
X122150781Y-52016464D01*
X122151094Y-52015145D01*
X122190903Y-51862664D01*
X122192325Y-51856872D01*
X122192474Y-51856225D01*
X122192736Y-51839957D01*
X122195863Y-51826803D01*
X122196374Y-51825907D01*
X122196726Y-51823390D01*
X122200500Y-51809309D01*
X122200500Y-51690691D01*
X122169799Y-51576114D01*
X122110489Y-51473387D01*
X122026613Y-51389511D01*
X121923886Y-51330201D01*
X121809309Y-51299500D01*
X121690691Y-51299500D01*
X121576114Y-51330201D01*
X121576112Y-51330201D01*
X121576112Y-51330202D01*
X121473387Y-51389511D01*
X121473384Y-51389513D01*
X121389513Y-51473384D01*
X121389507Y-51473393D01*
X121338114Y-51562406D01*
X121287547Y-51610621D01*
X121218940Y-51623843D01*
X121198637Y-51620180D01*
X121185249Y-51616593D01*
X121066631Y-51616593D01*
X120952054Y-51647294D01*
X120952052Y-51647294D01*
X120952052Y-51647295D01*
X120849327Y-51706604D01*
X120849324Y-51706606D01*
X120765453Y-51790477D01*
X120765451Y-51790480D01*
X120706141Y-51893207D01*
X120675440Y-52007784D01*
X120675440Y-52126402D01*
X120693179Y-52192604D01*
X120706142Y-52240982D01*
X120709063Y-52246041D01*
X120725536Y-52313941D01*
X120702684Y-52379968D01*
X120689358Y-52395722D01*
X120611693Y-52473387D01*
X120552383Y-52576114D01*
X120521682Y-52690691D01*
X120521682Y-52809309D01*
X120552383Y-52923886D01*
X120552384Y-52923887D01*
X120611692Y-53026612D01*
X120695570Y-53110490D01*
X120724872Y-53127408D01*
X120739604Y-53137388D01*
X120751738Y-53146948D01*
X121031833Y-53289560D01*
X121126239Y-53337627D01*
X121157658Y-53360447D01*
X121722222Y-53925011D01*
X121790745Y-53964573D01*
X121867171Y-53985051D01*
X122449652Y-53985051D01*
X122516691Y-54004736D01*
X122537333Y-54021370D01*
X124391228Y-55875264D01*
X124424713Y-55936587D01*
X124427547Y-55962945D01*
X124427547Y-57096120D01*
X124407862Y-57163159D01*
X124391228Y-57183801D01*
X123259541Y-58315487D01*
X123259535Y-58315495D01*
X123219982Y-58384004D01*
X123219979Y-58384009D01*
X123210348Y-58419953D01*
X123199500Y-58460438D01*
X123199500Y-58774953D01*
X123208705Y-58809306D01*
X123219979Y-58851381D01*
X123219980Y-58851382D01*
X123234651Y-58876793D01*
X123259540Y-58919902D01*
X123259542Y-58919904D01*
X123294360Y-58954722D01*
X123327845Y-59016045D01*
X123329591Y-59026015D01*
X123385294Y-59443794D01*
X123391840Y-59465297D01*
X123396858Y-59481782D01*
X123401478Y-59505008D01*
X123434606Y-59554588D01*
X123436412Y-59556394D01*
X123438909Y-59560097D01*
X123441323Y-59561814D01*
X123442136Y-59563399D01*
X123450430Y-59570412D01*
X124063569Y-60183552D01*
X124063572Y-60183555D01*
X124113153Y-60216684D01*
X124113155Y-60216685D01*
X124191386Y-60232245D01*
X124269617Y-60216685D01*
X124319197Y-60183557D01*
X124378751Y-60124003D01*
X125544500Y-60124003D01*
X125544500Y-60876007D01*
X125549197Y-60919686D01*
X125560397Y-60971174D01*
X125562890Y-60981372D01*
X125562891Y-60981375D01*
X125605899Y-61062083D01*
X125605901Y-61062086D01*
X125651660Y-61114895D01*
X125669242Y-61132839D01*
X125669246Y-61132843D01*
X125669247Y-61132844D01*
X125669249Y-61132845D01*
X125749059Y-61177488D01*
X125749063Y-61177490D01*
X125816102Y-61197175D01*
X125874000Y-61205500D01*
X125874004Y-61205500D01*
X128625991Y-61205500D01*
X128626000Y-61205500D01*
X128669684Y-61200803D01*
X128698875Y-61194452D01*
X128721174Y-61189602D01*
X128721190Y-61189598D01*
X128721195Y-61189597D01*
X128731373Y-61187110D01*
X128812085Y-61144100D01*
X128864889Y-61098345D01*
X128882843Y-61080754D01*
X128927490Y-61000937D01*
X128947175Y-60933898D01*
X128955500Y-60876000D01*
X128955500Y-60124000D01*
X128950803Y-60080316D01*
X128944099Y-60049500D01*
X128939602Y-60028825D01*
X128937587Y-60020581D01*
X128937110Y-60018627D01*
X128894100Y-59937915D01*
X128848345Y-59885111D01*
X128848339Y-59885104D01*
X128830757Y-59867160D01*
X128830756Y-59867159D01*
X128830754Y-59867157D01*
X128830752Y-59867156D01*
X128830750Y-59867154D01*
X128750940Y-59822511D01*
X128750935Y-59822509D01*
X128683903Y-59802826D01*
X128683899Y-59802825D01*
X128683898Y-59802825D01*
X128626000Y-59794500D01*
X125874000Y-59794500D01*
X125873992Y-59794500D01*
X125830313Y-59799197D01*
X125778825Y-59810397D01*
X125768627Y-59812890D01*
X125768624Y-59812891D01*
X125687916Y-59855899D01*
X125687913Y-59855901D01*
X125635104Y-59901660D01*
X125617160Y-59919242D01*
X125617154Y-59919249D01*
X125572511Y-59999059D01*
X125572509Y-59999064D01*
X125552826Y-60066096D01*
X125552825Y-60066101D01*
X125552825Y-60066102D01*
X125544502Y-60123992D01*
X125544500Y-60124003D01*
X124378751Y-60124003D01*
X124393771Y-60108983D01*
X124470865Y-60031890D01*
X124948161Y-59554593D01*
X124948164Y-59554590D01*
X124948166Y-59554588D01*
X124981294Y-59505008D01*
X124996854Y-59426777D01*
X124996853Y-59426775D01*
X124999236Y-59414799D01*
X125003590Y-59415665D01*
X125016539Y-59371567D01*
X125069343Y-59325812D01*
X125075349Y-59323541D01*
X125075317Y-59323464D01*
X125080943Y-59321133D01*
X125080945Y-59321133D01*
X125194779Y-59273981D01*
X125297226Y-59205528D01*
X125384351Y-59118403D01*
X125452804Y-59015956D01*
X125499956Y-58902122D01*
X125523993Y-58781276D01*
X125523993Y-58658064D01*
X125499956Y-58537218D01*
X125468153Y-58460439D01*
X125452806Y-58423387D01*
X125452804Y-58423384D01*
X125450512Y-58419953D01*
X125439218Y-58398913D01*
X125360209Y-58210035D01*
X125280670Y-58019891D01*
X125272960Y-57950450D01*
X125304017Y-57887862D01*
X125307348Y-57884396D01*
X125369507Y-57822239D01*
X125409069Y-57753716D01*
X125429547Y-57677290D01*
X125429547Y-57598166D01*
X125429547Y-55581450D01*
X125425270Y-55565489D01*
X125421254Y-55550500D01*
X125409070Y-55505027D01*
X125409069Y-55505025D01*
X125409069Y-55505024D01*
X125369507Y-55436501D01*
X124899511Y-54966506D01*
X127099500Y-54966506D01*
X127099500Y-55533493D01*
X127115279Y-55633121D01*
X127115280Y-55633124D01*
X127115281Y-55633126D01*
X127176472Y-55753220D01*
X127176473Y-55753221D01*
X127176476Y-55753225D01*
X127271774Y-55848523D01*
X127271778Y-55848526D01*
X127271780Y-55848528D01*
X127391874Y-55909719D01*
X127391876Y-55909719D01*
X127391878Y-55909720D01*
X127491507Y-55925500D01*
X127491512Y-55925500D01*
X128008493Y-55925500D01*
X128108121Y-55909720D01*
X128108121Y-55909719D01*
X128108126Y-55909719D01*
X128228220Y-55848528D01*
X128323528Y-55753220D01*
X128378228Y-55645864D01*
X128426199Y-55595072D01*
X128485322Y-55578208D01*
X128495887Y-55577919D01*
X128507199Y-55579546D01*
X128581086Y-55575590D01*
X128582707Y-55575546D01*
X128582859Y-55575586D01*
X128586095Y-55575500D01*
X128842851Y-55575500D01*
X128842853Y-55575500D01*
X128895273Y-55561453D01*
X128920736Y-55557406D01*
X129046434Y-55550677D01*
X129053063Y-55550500D01*
X129065891Y-55550500D01*
X129065892Y-55550500D01*
X129073251Y-55548528D01*
X129074772Y-55548329D01*
X129076665Y-55547613D01*
X129193186Y-55516392D01*
X129307314Y-55450500D01*
X129400500Y-55357314D01*
X129466392Y-55243186D01*
X129500500Y-55115892D01*
X129500500Y-54984108D01*
X129466392Y-54856814D01*
X129400500Y-54742686D01*
X129307314Y-54649500D01*
X129246199Y-54614215D01*
X129193187Y-54583608D01*
X129102485Y-54559305D01*
X129065892Y-54549500D01*
X128934108Y-54549500D01*
X128806814Y-54583608D01*
X128806813Y-54583608D01*
X128806811Y-54583609D01*
X128806810Y-54583609D01*
X128692685Y-54649499D01*
X128692684Y-54649500D01*
X128677218Y-54664965D01*
X128673914Y-54668149D01*
X128529174Y-54802535D01*
X128466651Y-54833724D01*
X128397192Y-54826160D01*
X128342850Y-54782244D01*
X128334325Y-54767971D01*
X128323528Y-54746780D01*
X128323526Y-54746778D01*
X128323523Y-54746774D01*
X128228225Y-54651476D01*
X128228221Y-54651473D01*
X128228220Y-54651472D01*
X128108126Y-54590281D01*
X128108124Y-54590280D01*
X128108121Y-54590279D01*
X128008493Y-54574500D01*
X128008488Y-54574500D01*
X127491512Y-54574500D01*
X127491507Y-54574500D01*
X127391878Y-54590279D01*
X127391874Y-54590280D01*
X127391874Y-54590281D01*
X127324772Y-54624471D01*
X127271778Y-54651473D01*
X127271774Y-54651476D01*
X127176476Y-54746774D01*
X127176473Y-54746778D01*
X127176472Y-54746780D01*
X127123625Y-54850499D01*
X127115279Y-54866878D01*
X127099500Y-54966506D01*
X124899511Y-54966506D01*
X124675691Y-54742686D01*
X124195186Y-54262181D01*
X124161701Y-54200858D01*
X124166685Y-54131167D01*
X124208557Y-54075233D01*
X124274021Y-54050816D01*
X124282867Y-54050500D01*
X131013035Y-54050500D01*
X131080074Y-54070185D01*
X131125829Y-54122989D01*
X131135773Y-54192147D01*
X131106748Y-54255703D01*
X131100716Y-54262181D01*
X129639513Y-55723383D01*
X129639509Y-55723389D01*
X129580201Y-55826112D01*
X129580200Y-55826117D01*
X129549500Y-55940691D01*
X129549500Y-59864060D01*
X129545358Y-59893591D01*
X129545404Y-59893600D01*
X129545204Y-59894693D01*
X129544717Y-59898169D01*
X129544310Y-59899589D01*
X129544309Y-59899596D01*
X129501390Y-60419357D01*
X129500479Y-60419281D01*
X129499606Y-60425924D01*
X129500561Y-60426050D01*
X129499500Y-60434106D01*
X129499500Y-60434108D01*
X129499500Y-60565892D01*
X129516554Y-60629539D01*
X129533608Y-60693187D01*
X129555894Y-60731786D01*
X129599500Y-60807314D01*
X129692686Y-60900500D01*
X129791521Y-60957563D01*
X129802783Y-60964065D01*
X129806814Y-60966392D01*
X129934108Y-61000500D01*
X129934110Y-61000500D01*
X130065890Y-61000500D01*
X130065892Y-61000500D01*
X130193186Y-60966392D01*
X130307314Y-60900500D01*
X130400500Y-60807314D01*
X130466392Y-60693186D01*
X130500500Y-60565892D01*
X130500500Y-60434108D01*
X130500500Y-60434106D01*
X130499439Y-60426047D01*
X130499766Y-60426003D01*
X130498608Y-60419356D01*
X130491947Y-60338691D01*
X130455690Y-59899590D01*
X130454606Y-59895485D01*
X130450500Y-59863840D01*
X130450500Y-56237965D01*
X130470185Y-56170926D01*
X130486819Y-56150284D01*
X131132079Y-55505024D01*
X131795989Y-54841113D01*
X131857310Y-54807630D01*
X131893872Y-54805217D01*
X132065039Y-54819350D01*
X132414193Y-54848182D01*
X132414194Y-54848181D01*
X132419356Y-54848608D01*
X132426007Y-54849766D01*
X132426051Y-54849439D01*
X132434107Y-54850500D01*
X132434108Y-54850500D01*
X132565890Y-54850500D01*
X132565892Y-54850500D01*
X132693186Y-54816392D01*
X132807314Y-54750500D01*
X132900500Y-54657314D01*
X132966392Y-54543186D01*
X133000500Y-54415892D01*
X133000500Y-54284108D01*
X132979730Y-54206592D01*
X132981393Y-54136743D01*
X133020556Y-54078881D01*
X133084784Y-54051377D01*
X133099505Y-54050500D01*
X133774553Y-54050500D01*
X133841592Y-54070185D01*
X133887347Y-54122989D01*
X133897291Y-54192147D01*
X133881940Y-54236499D01*
X133830201Y-54326114D01*
X133799500Y-54440691D01*
X133799500Y-54559309D01*
X133804940Y-54579615D01*
X133808888Y-54603438D01*
X133809187Y-54607902D01*
X133809609Y-54614230D01*
X133920236Y-55025109D01*
X133924500Y-55057347D01*
X133924500Y-58192653D01*
X133920235Y-58224891D01*
X133809602Y-58635799D01*
X133808203Y-58641346D01*
X133807984Y-58642215D01*
X133807825Y-58642892D01*
X133807824Y-58642899D01*
X133807768Y-58645814D01*
X133803567Y-58675509D01*
X133799500Y-58690686D01*
X133799500Y-58690691D01*
X133799500Y-58809309D01*
X133830201Y-58923886D01*
X133889511Y-59026613D01*
X133973387Y-59110489D01*
X134076114Y-59169799D01*
X134111866Y-59179378D01*
X134171526Y-59215743D01*
X134202055Y-59278590D01*
X134193760Y-59347965D01*
X134167453Y-59386834D01*
X133416108Y-60138181D01*
X133354785Y-60171666D01*
X133328427Y-60174500D01*
X133057351Y-60174500D01*
X133025113Y-60170236D01*
X133023482Y-60169797D01*
X132948188Y-60149524D01*
X132614204Y-60059602D01*
X132607902Y-60058012D01*
X132607210Y-60057849D01*
X132607205Y-60057848D01*
X132607204Y-60057848D01*
X132607202Y-60057847D01*
X132607196Y-60057847D01*
X132604243Y-60057790D01*
X132574573Y-60053590D01*
X132559309Y-60049500D01*
X132440691Y-60049500D01*
X132326114Y-60080201D01*
X132326112Y-60080201D01*
X132326112Y-60080202D01*
X132223387Y-60139511D01*
X132223384Y-60139513D01*
X132139513Y-60223384D01*
X132139511Y-60223387D01*
X132080201Y-60326114D01*
X132049500Y-60440691D01*
X132049500Y-60559309D01*
X132080201Y-60673886D01*
X132139511Y-60776613D01*
X132223387Y-60860489D01*
X132326114Y-60919799D01*
X132440691Y-60950500D01*
X132440694Y-60950500D01*
X132559309Y-60950500D01*
X132579607Y-60945060D01*
X132603444Y-60941109D01*
X132614229Y-60940390D01*
X133025109Y-60829763D01*
X133057345Y-60825500D01*
X133557467Y-60825500D01*
X133557469Y-60825500D01*
X133640255Y-60803318D01*
X133714478Y-60760465D01*
X134313639Y-60161304D01*
X135849500Y-60161304D01*
X135849500Y-60338695D01*
X135884103Y-60512658D01*
X135884106Y-60512667D01*
X135951983Y-60676540D01*
X135951990Y-60676553D01*
X136050535Y-60824034D01*
X136050538Y-60824038D01*
X136175961Y-60949461D01*
X136175965Y-60949464D01*
X136323446Y-61048009D01*
X136323459Y-61048016D01*
X136446363Y-61098923D01*
X136487334Y-61115894D01*
X136487336Y-61115894D01*
X136487341Y-61115896D01*
X136661304Y-61150499D01*
X136661307Y-61150500D01*
X136661309Y-61150500D01*
X136838693Y-61150500D01*
X136838694Y-61150499D01*
X136896682Y-61138964D01*
X137012658Y-61115896D01*
X137012661Y-61115894D01*
X137012666Y-61115894D01*
X137176547Y-61048013D01*
X137324035Y-60949464D01*
X137449464Y-60824035D01*
X137548013Y-60676547D01*
X137615894Y-60512666D01*
X137622508Y-60479419D01*
X137650499Y-60338695D01*
X137650500Y-60338693D01*
X137650500Y-60161306D01*
X137650499Y-60161304D01*
X137615896Y-59987341D01*
X137615893Y-59987332D01*
X137548016Y-59823459D01*
X137548009Y-59823446D01*
X137449464Y-59675965D01*
X137449461Y-59675961D01*
X137324038Y-59550538D01*
X137324034Y-59550535D01*
X137176553Y-59451990D01*
X137176540Y-59451983D01*
X137012667Y-59384106D01*
X137012658Y-59384103D01*
X136838694Y-59349500D01*
X136838691Y-59349500D01*
X136661309Y-59349500D01*
X136661306Y-59349500D01*
X136487341Y-59384103D01*
X136487332Y-59384106D01*
X136323459Y-59451983D01*
X136323446Y-59451990D01*
X136175965Y-59550535D01*
X136175961Y-59550538D01*
X136050538Y-59675961D01*
X136050535Y-59675965D01*
X135951990Y-59823446D01*
X135951983Y-59823459D01*
X135884106Y-59987332D01*
X135884103Y-59987341D01*
X135849500Y-60161304D01*
X134313639Y-60161304D01*
X135260465Y-59214478D01*
X135303318Y-59140255D01*
X135325500Y-59057469D01*
X135325500Y-58971763D01*
X135325500Y-58736379D01*
X135325500Y-55057346D01*
X135329764Y-55025108D01*
X135340803Y-54984110D01*
X135403700Y-54750500D01*
X135440394Y-54614215D01*
X135441986Y-54607902D01*
X135441994Y-54607870D01*
X135442162Y-54607156D01*
X135442218Y-54604231D01*
X135446421Y-54574530D01*
X135450500Y-54559309D01*
X135450500Y-54440691D01*
X135419799Y-54326114D01*
X135368059Y-54236499D01*
X135351587Y-54168601D01*
X135374439Y-54102574D01*
X135429360Y-54059383D01*
X135475447Y-54050500D01*
X137920500Y-54050500D01*
X137987539Y-54070185D01*
X138033294Y-54122989D01*
X138044500Y-54174500D01*
X138044500Y-59198638D01*
X138045678Y-59220618D01*
X138048511Y-59246965D01*
X138048512Y-59246967D01*
X138058414Y-59278590D01*
X138072465Y-59323464D01*
X138072470Y-59323478D01*
X138072471Y-59323483D01*
X138073743Y-59325812D01*
X138105956Y-59384805D01*
X138105958Y-59384808D01*
X138105960Y-59384811D01*
X138140998Y-59431615D01*
X138141002Y-59431619D01*
X138141009Y-59431629D01*
X138141013Y-59431633D01*
X138141016Y-59431636D01*
X138818365Y-60108986D01*
X138818366Y-60108987D01*
X138834716Y-60123674D01*
X138834730Y-60123686D01*
X138834738Y-60123693D01*
X138843136Y-60130460D01*
X138855379Y-60140327D01*
X138926424Y-60177490D01*
X138993456Y-60197173D01*
X138993458Y-60197173D01*
X138993464Y-60197175D01*
X139051362Y-60205500D01*
X139051366Y-60205500D01*
X140948639Y-60205500D01*
X140951180Y-60205363D01*
X140970607Y-60204322D01*
X140970614Y-60204321D01*
X140970618Y-60204321D01*
X140996965Y-60201488D01*
X141073482Y-60177529D01*
X141134805Y-60144044D01*
X141181629Y-60108991D01*
X141858991Y-59431629D01*
X141873693Y-59415262D01*
X141890327Y-59394620D01*
X141927490Y-59323575D01*
X141947175Y-59256536D01*
X141955500Y-59198638D01*
X141955500Y-54179833D01*
X141975185Y-54112794D01*
X142027989Y-54067039D01*
X142097147Y-54057095D01*
X142160703Y-54086120D01*
X142167181Y-54092152D01*
X142663181Y-54588152D01*
X142696666Y-54649475D01*
X142699500Y-54675833D01*
X142699500Y-55937193D01*
X142693420Y-55975546D01*
X142563432Y-56375204D01*
X142561521Y-56381715D01*
X142560091Y-56386586D01*
X142559755Y-56387866D01*
X142559741Y-56387919D01*
X142559460Y-56396653D01*
X142558570Y-56403114D01*
X142557349Y-56405828D01*
X142555509Y-56418261D01*
X142549500Y-56440687D01*
X142549500Y-56440691D01*
X142549500Y-56559309D01*
X142580201Y-56673886D01*
X142639511Y-56776613D01*
X142723387Y-56860489D01*
X142826114Y-56919799D01*
X142940691Y-56950500D01*
X142940694Y-56950500D01*
X143059306Y-56950500D01*
X143059309Y-56950500D01*
X143173886Y-56919799D01*
X143263501Y-56868059D01*
X143331398Y-56851586D01*
X143397426Y-56874437D01*
X143440617Y-56929358D01*
X143449500Y-56975446D01*
X143449500Y-59187193D01*
X143443420Y-59225546D01*
X143313432Y-59625204D01*
X143311521Y-59631715D01*
X143310091Y-59636586D01*
X143309755Y-59637866D01*
X143309741Y-59637919D01*
X143309460Y-59646653D01*
X143308570Y-59653114D01*
X143307349Y-59655828D01*
X143305509Y-59668261D01*
X143299500Y-59690687D01*
X143299500Y-59690691D01*
X143299500Y-59809309D01*
X143330201Y-59923886D01*
X143389511Y-60026613D01*
X143473387Y-60110489D01*
X143576114Y-60169799D01*
X143690691Y-60200500D01*
X143690694Y-60200500D01*
X143809306Y-60200500D01*
X143809309Y-60200500D01*
X143923886Y-60169799D01*
X144026613Y-60110489D01*
X144110489Y-60026613D01*
X144169799Y-59923886D01*
X144200500Y-59809309D01*
X144200500Y-59797740D01*
X144220185Y-59730701D01*
X144272989Y-59684946D01*
X144342147Y-59675002D01*
X144356575Y-59677961D01*
X144440691Y-59700500D01*
X144440694Y-59700500D01*
X144559306Y-59700500D01*
X144559309Y-59700500D01*
X144673886Y-59669799D01*
X144763501Y-59618059D01*
X144831398Y-59601586D01*
X144897426Y-59624437D01*
X144940617Y-59679358D01*
X144949500Y-59725446D01*
X144949500Y-59789562D01*
X144958581Y-59823453D01*
X144969979Y-59865990D01*
X144969980Y-59865991D01*
X144989382Y-59899596D01*
X144992634Y-59905229D01*
X145009540Y-59934511D01*
X145009542Y-59934513D01*
X145687599Y-60612570D01*
X145721084Y-60673893D01*
X145716100Y-60743585D01*
X145687599Y-60787932D01*
X145605935Y-60869595D01*
X145555931Y-60976828D01*
X145549500Y-61025683D01*
X145549500Y-61474316D01*
X145555931Y-61523171D01*
X145605935Y-61630404D01*
X145613350Y-61637819D01*
X145646835Y-61699142D01*
X145641851Y-61768834D01*
X145599979Y-61824767D01*
X145534515Y-61849184D01*
X145525669Y-61849500D01*
X125419086Y-61849500D01*
X125409358Y-61849118D01*
X125396696Y-61848121D01*
X125291053Y-61839807D01*
X125271834Y-61836763D01*
X125161195Y-61810200D01*
X125142689Y-61804186D01*
X125037576Y-61760645D01*
X125020241Y-61751812D01*
X124923219Y-61692352D01*
X124907479Y-61680914D01*
X124817063Y-61603682D01*
X124809922Y-61597081D01*
X124809917Y-61597076D01*
X124809914Y-61597074D01*
X124804000Y-61591160D01*
X124789245Y-61576403D01*
X124789240Y-61576401D01*
X121880020Y-58667181D01*
X121846535Y-58605858D01*
X121851519Y-58536166D01*
X121893391Y-58480233D01*
X121958855Y-58455816D01*
X121967701Y-58455500D01*
X122448639Y-58455500D01*
X122451180Y-58455363D01*
X122470607Y-58454322D01*
X122470614Y-58454321D01*
X122470618Y-58454321D01*
X122496965Y-58451488D01*
X122573482Y-58427529D01*
X122634805Y-58394044D01*
X122681629Y-58358991D01*
X123307629Y-57732991D01*
X123335195Y-57698785D01*
X123363696Y-57654438D01*
X123369137Y-57645477D01*
X123395797Y-57557993D01*
X123400781Y-57488301D01*
X123401037Y-57463166D01*
X123401036Y-57463164D01*
X123401127Y-57454297D01*
X123402677Y-57454312D01*
X123411812Y-57395069D01*
X123458103Y-57342734D01*
X123476624Y-57333166D01*
X123546279Y-57304314D01*
X123546279Y-57304313D01*
X123546286Y-57304311D01*
X123648733Y-57235858D01*
X123735858Y-57148733D01*
X123804311Y-57046286D01*
X123851463Y-56932452D01*
X123875500Y-56811606D01*
X123875500Y-56688394D01*
X123851463Y-56567548D01*
X123804311Y-56453714D01*
X123804310Y-56453713D01*
X123804307Y-56453707D01*
X123735858Y-56351267D01*
X123735855Y-56351263D01*
X123648736Y-56264144D01*
X123648728Y-56264138D01*
X123552339Y-56199733D01*
X123533548Y-56184312D01*
X122611658Y-55262423D01*
X122611650Y-55262416D01*
X122457876Y-55108642D01*
X122457875Y-55108641D01*
X122457874Y-55108640D01*
X122381057Y-55052828D01*
X122354278Y-55044126D01*
X122334955Y-55035982D01*
X122322937Y-55029672D01*
X122322938Y-55029672D01*
X122322932Y-55029670D01*
X122021631Y-54940691D01*
X121830552Y-54884262D01*
X121777991Y-54853020D01*
X120086819Y-53161848D01*
X120053334Y-53100525D01*
X120050500Y-53074167D01*
X120050500Y-49161318D01*
X120070185Y-49094279D01*
X120118233Y-49050820D01*
X120420444Y-48896948D01*
X120430680Y-48891365D01*
X120431833Y-48890693D01*
X120432083Y-48890547D01*
X120433685Y-48889043D01*
X120456529Y-48872084D01*
X120476613Y-48860489D01*
X120560489Y-48776613D01*
X120619799Y-48673886D01*
X120650500Y-48559309D01*
X120650500Y-48440691D01*
X120619799Y-48326114D01*
X120560489Y-48223387D01*
X120476613Y-48139511D01*
X120373886Y-48080201D01*
X120259309Y-48049500D01*
X120140691Y-48049500D01*
X120026114Y-48080201D01*
X120026112Y-48080201D01*
X120026112Y-48080202D01*
X119923387Y-48139510D01*
X119839510Y-48223387D01*
X119822591Y-48252691D01*
X119812607Y-48267427D01*
X119803051Y-48279555D01*
X119803050Y-48279556D01*
X119612368Y-48654061D01*
X119610970Y-48655985D01*
X119610702Y-48657220D01*
X119589552Y-48685476D01*
X119565489Y-48709540D01*
X119509541Y-48765487D01*
X119509535Y-48765495D01*
X119469982Y-48834004D01*
X119469979Y-48834009D01*
X119459954Y-48871425D01*
X119449500Y-48910438D01*
X119449500Y-53289562D01*
X119462379Y-53337627D01*
X119469979Y-53365990D01*
X119469982Y-53365995D01*
X119509535Y-53434504D01*
X119509541Y-53434512D01*
X121353020Y-55277991D01*
X121384262Y-55330552D01*
X121529671Y-55822935D01*
X121542305Y-55851028D01*
X121547142Y-55863560D01*
X121552828Y-55881057D01*
X121552829Y-55881058D01*
X121553193Y-55882178D01*
X121555190Y-55952019D01*
X121519111Y-56011853D01*
X121456411Y-56042683D01*
X121435263Y-56044500D01*
X121051361Y-56044500D01*
X121029381Y-56045678D01*
X121003034Y-56048511D01*
X121003032Y-56048512D01*
X120926521Y-56072470D01*
X120926516Y-56072471D01*
X120865188Y-56105960D01*
X120818384Y-56140998D01*
X120818363Y-56141016D01*
X120192374Y-56767005D01*
X120192368Y-56767012D01*
X120184149Y-56777211D01*
X120126755Y-56817056D01*
X120056929Y-56819547D01*
X119999920Y-56787081D01*
X117234209Y-54021370D01*
X114402760Y-51189920D01*
X114396145Y-51182763D01*
X114319094Y-51092534D01*
X114307665Y-51076803D01*
X114248208Y-50979764D01*
X114239381Y-50962436D01*
X114195844Y-50857314D01*
X114189832Y-50838811D01*
X114163270Y-50728159D01*
X114160229Y-50708948D01*
X114157662Y-50676327D01*
X114150882Y-50590147D01*
X114150500Y-50580421D01*
X114150500Y-47480247D01*
X114549500Y-47480247D01*
X114549500Y-48519752D01*
X114561131Y-48578229D01*
X114561132Y-48578230D01*
X114605447Y-48644552D01*
X114671769Y-48688867D01*
X114671770Y-48688868D01*
X114730247Y-48700499D01*
X114730250Y-48700500D01*
X114730252Y-48700500D01*
X115769750Y-48700500D01*
X115769751Y-48700499D01*
X115784568Y-48697552D01*
X115828229Y-48688868D01*
X115828229Y-48688867D01*
X115828231Y-48688867D01*
X115894552Y-48644552D01*
X115938867Y-48578231D01*
X115938867Y-48578229D01*
X115938868Y-48578229D01*
X115950499Y-48519752D01*
X115950500Y-48519750D01*
X115950500Y-47480249D01*
X115950499Y-47480247D01*
X115938868Y-47421770D01*
X115938867Y-47421769D01*
X115894552Y-47355447D01*
X115828230Y-47311132D01*
X115828229Y-47311131D01*
X115769752Y-47299500D01*
X115769748Y-47299500D01*
X114730252Y-47299500D01*
X114730247Y-47299500D01*
X114671770Y-47311131D01*
X114671769Y-47311132D01*
X114605447Y-47355447D01*
X114561132Y-47421769D01*
X114561131Y-47421770D01*
X114549500Y-47480247D01*
X114150500Y-47480247D01*
X114150500Y-42661304D01*
X139099500Y-42661304D01*
X139099500Y-42838695D01*
X139134103Y-43012658D01*
X139134106Y-43012667D01*
X139201983Y-43176540D01*
X139201990Y-43176553D01*
X139300535Y-43324034D01*
X139300538Y-43324038D01*
X139425961Y-43449461D01*
X139425965Y-43449464D01*
X139573446Y-43548009D01*
X139573459Y-43548016D01*
X139696363Y-43598923D01*
X139737334Y-43615894D01*
X139737336Y-43615894D01*
X139737341Y-43615896D01*
X139911304Y-43650499D01*
X139911307Y-43650500D01*
X139911309Y-43650500D01*
X140088693Y-43650500D01*
X140088694Y-43650499D01*
X140149195Y-43638465D01*
X140262658Y-43615896D01*
X140262661Y-43615894D01*
X140262666Y-43615894D01*
X140402535Y-43557958D01*
X140426540Y-43548016D01*
X140426540Y-43548015D01*
X140426547Y-43548013D01*
X140574035Y-43449464D01*
X140699464Y-43324035D01*
X140798013Y-43176547D01*
X140865894Y-43012666D01*
X140867056Y-43006828D01*
X140891748Y-42882692D01*
X140900500Y-42838691D01*
X140900500Y-42661309D01*
X140900500Y-42661306D01*
X140900499Y-42661304D01*
X140865896Y-42487341D01*
X140865893Y-42487332D01*
X140798016Y-42323459D01*
X140798009Y-42323446D01*
X140699464Y-42175965D01*
X140699461Y-42175961D01*
X140574038Y-42050538D01*
X140574034Y-42050535D01*
X140426553Y-41951990D01*
X140426540Y-41951983D01*
X140262667Y-41884106D01*
X140262658Y-41884103D01*
X140088694Y-41849500D01*
X140088691Y-41849500D01*
X139911309Y-41849500D01*
X139911306Y-41849500D01*
X139737341Y-41884103D01*
X139737332Y-41884106D01*
X139573459Y-41951983D01*
X139573446Y-41951990D01*
X139425965Y-42050535D01*
X139425961Y-42050538D01*
X139300538Y-42175961D01*
X139300535Y-42175965D01*
X139201990Y-42323446D01*
X139201983Y-42323459D01*
X139134106Y-42487332D01*
X139134103Y-42487341D01*
X139099500Y-42661304D01*
X114150500Y-42661304D01*
X114150500Y-42006092D01*
X114151097Y-41993938D01*
X114153448Y-41970064D01*
X114165626Y-41846417D01*
X114170365Y-41822593D01*
X114211622Y-41686585D01*
X114220916Y-41664148D01*
X114287913Y-41538806D01*
X114301411Y-41518606D01*
X114391569Y-41408748D01*
X114408748Y-41391569D01*
X114518606Y-41301411D01*
X114538806Y-41287913D01*
X114664148Y-41220916D01*
X114686585Y-41211622D01*
X114822593Y-41170365D01*
X114846419Y-41165626D01*
X114970515Y-41153404D01*
X114993940Y-41151097D01*
X115006093Y-41150500D01*
X115034351Y-41150500D01*
X144505669Y-41150500D01*
X144572708Y-41170185D01*
G37*
%TD.AperFunction*%
%TA.AperFunction,Conductor*%
G36*
X163256061Y-41151097D02*
G01*
X163403580Y-41165626D01*
X163427408Y-41170365D01*
X163563410Y-41211621D01*
X163585855Y-41220918D01*
X163707492Y-41285935D01*
X163711187Y-41287910D01*
X163731398Y-41301415D01*
X163841246Y-41391565D01*
X163858434Y-41408753D01*
X163948584Y-41518601D01*
X163962089Y-41538812D01*
X164029078Y-41664137D01*
X164038381Y-41686596D01*
X164079632Y-41822585D01*
X164084374Y-41846426D01*
X164098903Y-41993938D01*
X164099500Y-42006092D01*
X164099500Y-51580915D01*
X164099118Y-51590643D01*
X164089808Y-51708955D01*
X164086764Y-51728173D01*
X164060204Y-51838810D01*
X164054191Y-51857316D01*
X164010649Y-51962437D01*
X164001816Y-51979773D01*
X163942364Y-52076793D01*
X163930927Y-52092536D01*
X163853928Y-52182691D01*
X163847350Y-52189809D01*
X163844589Y-52192572D01*
X163844557Y-52192604D01*
X154439917Y-61597242D01*
X154432766Y-61603852D01*
X154342529Y-61680920D01*
X154326792Y-61692354D01*
X154229773Y-61751806D01*
X154212435Y-61760640D01*
X154107311Y-61804182D01*
X154088806Y-61810194D01*
X153978169Y-61836754D01*
X153958951Y-61839798D01*
X153840514Y-61849118D01*
X153830786Y-61849500D01*
X153299098Y-61849500D01*
X153232059Y-61829815D01*
X153186304Y-61777011D01*
X153176360Y-61707853D01*
X153205385Y-61644297D01*
X153211417Y-61637819D01*
X153218832Y-61630404D01*
X153230520Y-61618716D01*
X153309577Y-61481784D01*
X153350500Y-61329057D01*
X153350500Y-61170943D01*
X153309577Y-61018216D01*
X153262686Y-60936998D01*
X153246214Y-60869100D01*
X153262687Y-60813000D01*
X153265970Y-60807314D01*
X153309577Y-60731784D01*
X153350500Y-60579057D01*
X153350500Y-60420943D01*
X153309577Y-60268216D01*
X153262686Y-60186998D01*
X153246214Y-60119100D01*
X153262687Y-60063000D01*
X153309577Y-59981784D01*
X153350500Y-59829057D01*
X153350500Y-59670943D01*
X153309577Y-59518216D01*
X153301952Y-59505009D01*
X153230524Y-59381290D01*
X153230518Y-59381282D01*
X153118717Y-59269481D01*
X153118709Y-59269475D01*
X152981790Y-59190426D01*
X152981786Y-59190424D01*
X152981784Y-59190423D01*
X152829057Y-59149500D01*
X152670943Y-59149500D01*
X152518216Y-59190423D01*
X152518215Y-59190423D01*
X152436999Y-59237313D01*
X152369099Y-59253784D01*
X152313001Y-59237313D01*
X152231784Y-59190423D01*
X152183510Y-59177488D01*
X152079057Y-59149500D01*
X151991520Y-59149500D01*
X151924481Y-59129815D01*
X151878726Y-59077011D01*
X151867983Y-59014797D01*
X151870879Y-58981372D01*
X151899799Y-58647565D01*
X151908292Y-58617921D01*
X151906704Y-58617405D01*
X151909717Y-58608129D01*
X151909719Y-58608126D01*
X151920951Y-58537211D01*
X151925500Y-58508493D01*
X151925500Y-57991506D01*
X151909720Y-57891878D01*
X151909719Y-57891876D01*
X151909719Y-57891874D01*
X151848528Y-57771780D01*
X151848526Y-57771778D01*
X151848523Y-57771774D01*
X151753225Y-57676476D01*
X151753221Y-57676473D01*
X151753220Y-57676472D01*
X151633126Y-57615281D01*
X151633124Y-57615280D01*
X151633121Y-57615279D01*
X151533493Y-57599500D01*
X151533488Y-57599500D01*
X150966512Y-57599500D01*
X150966507Y-57599500D01*
X150866878Y-57615279D01*
X150746778Y-57676473D01*
X150746774Y-57676476D01*
X150651476Y-57771774D01*
X150651473Y-57771778D01*
X150590279Y-57891878D01*
X150574500Y-57991506D01*
X150574500Y-58508493D01*
X150590279Y-58608120D01*
X150593296Y-58617404D01*
X150591710Y-58617919D01*
X150600199Y-58647565D01*
X150644341Y-59157048D01*
X150645294Y-59160613D01*
X150649500Y-59192636D01*
X150649500Y-59829057D01*
X150678669Y-59937915D01*
X150690423Y-59981783D01*
X150690423Y-59981784D01*
X150737313Y-60063001D01*
X150753784Y-60130901D01*
X150737313Y-60186999D01*
X150690423Y-60268215D01*
X150690423Y-60268216D01*
X150649500Y-60420943D01*
X150649500Y-60579057D01*
X150677757Y-60684511D01*
X150690423Y-60731783D01*
X150690423Y-60731784D01*
X150737313Y-60813001D01*
X150753784Y-60880901D01*
X150737313Y-60936999D01*
X150690423Y-61018215D01*
X150690423Y-61018216D01*
X150649500Y-61170943D01*
X150649500Y-61329057D01*
X150687400Y-61470500D01*
X150690423Y-61481783D01*
X150690426Y-61481790D01*
X150769475Y-61618709D01*
X150769481Y-61618717D01*
X150788583Y-61637819D01*
X150822068Y-61699142D01*
X150817084Y-61768834D01*
X150775212Y-61824767D01*
X150709748Y-61849184D01*
X150700902Y-61849500D01*
X149836966Y-61849500D01*
X149815720Y-61843261D01*
X149793632Y-61841682D01*
X149782848Y-61833609D01*
X149769927Y-61829815D01*
X149755427Y-61813081D01*
X149737699Y-61799810D01*
X149732991Y-61787189D01*
X149724172Y-61777011D01*
X149721020Y-61755093D01*
X149713282Y-61734346D01*
X149716144Y-61721185D01*
X149714228Y-61707853D01*
X149723427Y-61687709D01*
X149728134Y-61666073D01*
X149741402Y-61648347D01*
X149743253Y-61644297D01*
X149749285Y-61637819D01*
X149880285Y-61506819D01*
X149941608Y-61473334D01*
X149967966Y-61470500D01*
X149974317Y-61470500D01*
X149990601Y-61468356D01*
X150023173Y-61464068D01*
X150130404Y-61414065D01*
X150214065Y-61330404D01*
X150264068Y-61223173D01*
X150270500Y-61174316D01*
X150270500Y-60825684D01*
X150264068Y-60776827D01*
X150214065Y-60669596D01*
X150130404Y-60585935D01*
X150023173Y-60535932D01*
X150023171Y-60535931D01*
X150023172Y-60535931D01*
X149974317Y-60529500D01*
X149974316Y-60529500D01*
X149525684Y-60529500D01*
X149525683Y-60529500D01*
X149476828Y-60535931D01*
X149369595Y-60585935D01*
X149285935Y-60669595D01*
X149235931Y-60776828D01*
X149229500Y-60825683D01*
X149229500Y-60832033D01*
X149220855Y-60861473D01*
X149214332Y-60891460D01*
X149210577Y-60896475D01*
X149209815Y-60899072D01*
X149193181Y-60919714D01*
X149133107Y-60979788D01*
X149071784Y-61013273D01*
X149002092Y-61008289D01*
X148946159Y-60966417D01*
X148921742Y-60900953D01*
X148933043Y-60839705D01*
X148964068Y-60773173D01*
X148970500Y-60724316D01*
X148970500Y-60275684D01*
X148969516Y-60268213D01*
X148964068Y-60226828D01*
X148964068Y-60226827D01*
X148914065Y-60119596D01*
X148830404Y-60035935D01*
X148723173Y-59985932D01*
X148723171Y-59985931D01*
X148723172Y-59985931D01*
X148674317Y-59979500D01*
X148674316Y-59979500D01*
X148325684Y-59979500D01*
X148325683Y-59979500D01*
X148276828Y-59985931D01*
X148169595Y-60035935D01*
X148078264Y-60127267D01*
X148075440Y-60124443D01*
X148036958Y-60155183D01*
X147967458Y-60162352D01*
X147905114Y-60130808D01*
X147901901Y-60127101D01*
X147901736Y-60127267D01*
X147810404Y-60035935D01*
X147703173Y-59985932D01*
X147703171Y-59985931D01*
X147703172Y-59985931D01*
X147654317Y-59979500D01*
X147654316Y-59979500D01*
X147305684Y-59979500D01*
X147305683Y-59979500D01*
X147256828Y-59985931D01*
X147149595Y-60035935D01*
X147065935Y-60119595D01*
X147065935Y-60119596D01*
X147062060Y-60127904D01*
X147015890Y-60180343D01*
X146949679Y-60199500D01*
X146175833Y-60199500D01*
X146108794Y-60179815D01*
X146088152Y-60163181D01*
X145586819Y-59661848D01*
X145553334Y-59600525D01*
X145550500Y-59574167D01*
X145550500Y-56425833D01*
X145570185Y-56358794D01*
X145586819Y-56338152D01*
X145838152Y-56086819D01*
X145899475Y-56053334D01*
X145925833Y-56050500D01*
X147289560Y-56050500D01*
X147289562Y-56050500D01*
X147365989Y-56030021D01*
X147434511Y-55990460D01*
X147490460Y-55934511D01*
X147814527Y-55610442D01*
X147845932Y-55587632D01*
X148220444Y-55396948D01*
X148230680Y-55391365D01*
X148231833Y-55390693D01*
X148232083Y-55390547D01*
X148233685Y-55389043D01*
X148256529Y-55372084D01*
X148276613Y-55360489D01*
X148360489Y-55276613D01*
X148419799Y-55173886D01*
X148450500Y-55059309D01*
X148450500Y-54940691D01*
X148419799Y-54826114D01*
X148360489Y-54723387D01*
X148276613Y-54639511D01*
X148173886Y-54580201D01*
X148059309Y-54549500D01*
X147940691Y-54549500D01*
X147826114Y-54580201D01*
X147826112Y-54580201D01*
X147826112Y-54580202D01*
X147723387Y-54639510D01*
X147639510Y-54723387D01*
X147622591Y-54752691D01*
X147612607Y-54767427D01*
X147603051Y-54779555D01*
X147603050Y-54779556D01*
X147412368Y-55154061D01*
X147389548Y-55185479D01*
X147161846Y-55413182D01*
X147100526Y-55446666D01*
X147074167Y-55449500D01*
X145710438Y-55449500D01*
X145634010Y-55469978D01*
X145565489Y-55509540D01*
X145565486Y-55509542D01*
X145012181Y-56062848D01*
X144950858Y-56096333D01*
X144881166Y-56091349D01*
X144825233Y-56049477D01*
X144800816Y-55984013D01*
X144800500Y-55975167D01*
X144800500Y-54460440D01*
X144800500Y-54460438D01*
X144788564Y-54415892D01*
X144780022Y-54384012D01*
X144740460Y-54315489D01*
X144342152Y-53917181D01*
X144308667Y-53855858D01*
X144313651Y-53786166D01*
X144355523Y-53730233D01*
X144420987Y-53705816D01*
X144429833Y-53705500D01*
X144775500Y-53705500D01*
X144842539Y-53725185D01*
X144888294Y-53777989D01*
X144897672Y-53821097D01*
X144898439Y-53820997D01*
X144899500Y-53829056D01*
X144899500Y-53829057D01*
X144935812Y-53964573D01*
X144940423Y-53981783D01*
X144940426Y-53981790D01*
X145019475Y-54118709D01*
X145019479Y-54118714D01*
X145019480Y-54118716D01*
X145131284Y-54230520D01*
X145131286Y-54230521D01*
X145131290Y-54230524D01*
X145186999Y-54262687D01*
X145268216Y-54309577D01*
X145420943Y-54350500D01*
X145420945Y-54350500D01*
X145579055Y-54350500D01*
X145579057Y-54350500D01*
X145731784Y-54309577D01*
X145813001Y-54262686D01*
X145880900Y-54246214D01*
X145936998Y-54262686D01*
X146018216Y-54309577D01*
X146170943Y-54350500D01*
X146170945Y-54350500D01*
X146329055Y-54350500D01*
X146329057Y-54350500D01*
X146481784Y-54309577D01*
X146618716Y-54230520D01*
X146730520Y-54118716D01*
X146809577Y-53981784D01*
X146850500Y-53829057D01*
X146850500Y-53829048D01*
X146851561Y-53820997D01*
X146852943Y-53821179D01*
X146870185Y-53762461D01*
X146922989Y-53716706D01*
X146974500Y-53705500D01*
X152613518Y-53705500D01*
X152680557Y-53725185D01*
X152701199Y-53741819D01*
X153258181Y-54298801D01*
X153291666Y-54360124D01*
X153294500Y-54386482D01*
X153294500Y-58876007D01*
X153299197Y-58919686D01*
X153310397Y-58971174D01*
X153312342Y-58979133D01*
X153312890Y-58981373D01*
X153355900Y-59062085D01*
X153374270Y-59083285D01*
X153401660Y-59114895D01*
X153416279Y-59129815D01*
X153419246Y-59132843D01*
X153419247Y-59132844D01*
X153419249Y-59132845D01*
X153497025Y-59176350D01*
X153499063Y-59177490D01*
X153566102Y-59197175D01*
X153624000Y-59205500D01*
X153624004Y-59205500D01*
X155448639Y-59205500D01*
X155451180Y-59205363D01*
X155470607Y-59204322D01*
X155470614Y-59204321D01*
X155470618Y-59204321D01*
X155496965Y-59201488D01*
X155573482Y-59177529D01*
X155634805Y-59144044D01*
X155681629Y-59108991D01*
X159108991Y-55681629D01*
X159123693Y-55665262D01*
X159140327Y-55644620D01*
X159177490Y-55573575D01*
X159185584Y-55546009D01*
X159197173Y-55506543D01*
X159197173Y-55506542D01*
X159197175Y-55506536D01*
X159205500Y-55448638D01*
X159205500Y-52250000D01*
X159205500Y-49124000D01*
X159200803Y-49080316D01*
X159194583Y-49051723D01*
X159189602Y-49028825D01*
X159189134Y-49026910D01*
X159187110Y-49018627D01*
X159144100Y-48937915D01*
X159098345Y-48885111D01*
X159098339Y-48885104D01*
X159080757Y-48867160D01*
X159080756Y-48867159D01*
X159080754Y-48867157D01*
X159080752Y-48867156D01*
X159080750Y-48867154D01*
X159000940Y-48822511D01*
X159000935Y-48822509D01*
X158933903Y-48802826D01*
X158933899Y-48802825D01*
X158933898Y-48802825D01*
X158876000Y-48794500D01*
X158875996Y-48794500D01*
X155179833Y-48794500D01*
X155112794Y-48774815D01*
X155067039Y-48722011D01*
X155057095Y-48652853D01*
X155086120Y-48589297D01*
X155092152Y-48582819D01*
X155838152Y-47836819D01*
X155865079Y-47822115D01*
X155890898Y-47805523D01*
X155897098Y-47804631D01*
X155899475Y-47803334D01*
X155925833Y-47800500D01*
X156034083Y-47800500D01*
X156076350Y-47807926D01*
X156131395Y-47827884D01*
X156485417Y-47956244D01*
X156505156Y-47965435D01*
X156506812Y-47966391D01*
X156506814Y-47966392D01*
X156526917Y-47971778D01*
X156537069Y-47974972D01*
X156558661Y-47982801D01*
X156570206Y-47986511D01*
X156573097Y-47987441D01*
X156574698Y-47987891D01*
X156574743Y-47987903D01*
X156574753Y-47987906D01*
X156578415Y-47988899D01*
X156578417Y-47988899D01*
X156585585Y-47989968D01*
X156585581Y-47989993D01*
X156606314Y-47993052D01*
X156634108Y-48000500D01*
X156634110Y-48000500D01*
X156765890Y-48000500D01*
X156765892Y-48000500D01*
X156893186Y-47966392D01*
X157007314Y-47900500D01*
X157100500Y-47807314D01*
X157166392Y-47693186D01*
X157200500Y-47565892D01*
X157200500Y-47434108D01*
X157166392Y-47306814D01*
X157159282Y-47294500D01*
X157139098Y-47259540D01*
X157100500Y-47192686D01*
X157007314Y-47099500D01*
X156929173Y-47054385D01*
X156893187Y-47033608D01*
X156819496Y-47013863D01*
X156765892Y-46999500D01*
X156634108Y-46999500D01*
X156634104Y-46999500D01*
X156587115Y-47012091D01*
X156587114Y-47012091D01*
X156580497Y-47013863D01*
X156558664Y-47017198D01*
X156532075Y-47026837D01*
X156526933Y-47028215D01*
X156526919Y-47028220D01*
X156506813Y-47033608D01*
X156506803Y-47033612D01*
X156505133Y-47034577D01*
X156485417Y-47043754D01*
X156076349Y-47192074D01*
X156034082Y-47199500D01*
X155710438Y-47199500D01*
X155679867Y-47207691D01*
X155634008Y-47219979D01*
X155634007Y-47219980D01*
X155598538Y-47240459D01*
X155565492Y-47259537D01*
X155565487Y-47259541D01*
X154395848Y-48429181D01*
X154334525Y-48462666D01*
X154308167Y-48465500D01*
X151079500Y-48465500D01*
X151076857Y-48464724D01*
X151074185Y-48465386D01*
X151043527Y-48454937D01*
X151012461Y-48445815D01*
X151010658Y-48443734D01*
X151008051Y-48442846D01*
X150987904Y-48417475D01*
X150966706Y-48393011D01*
X150965790Y-48389627D01*
X150964601Y-48388129D01*
X150962567Y-48377711D01*
X150956119Y-48353870D01*
X150955134Y-48344045D01*
X150955500Y-48341500D01*
X150955500Y-48244802D01*
X150953408Y-48215556D01*
X150948385Y-48180621D01*
X150935223Y-48145337D01*
X150936038Y-48145119D01*
X150934682Y-48140058D01*
X150934612Y-48139355D01*
X150932105Y-48130000D01*
X150932106Y-48130000D01*
X150910537Y-48049500D01*
X150909225Y-48044604D01*
X150905000Y-48012512D01*
X150905000Y-47967487D01*
X150909225Y-47935394D01*
X150913098Y-47920940D01*
X150932106Y-47850001D01*
X150932105Y-47850000D01*
X150936501Y-47833595D01*
X150936795Y-47832496D01*
X150939304Y-47823795D01*
X150939273Y-47823246D01*
X150941833Y-47813692D01*
X150941835Y-47813687D01*
X150941837Y-47813680D01*
X150945153Y-47801305D01*
X150945315Y-47800259D01*
X150948498Y-47788381D01*
X150955500Y-47735196D01*
X150955500Y-47500000D01*
X150955500Y-47433108D01*
X150975185Y-47366069D01*
X151027989Y-47320314D01*
X151047407Y-47313332D01*
X151054237Y-47311503D01*
X151151263Y-47255485D01*
X151230485Y-47176263D01*
X151286503Y-47079237D01*
X151315500Y-46971018D01*
X151315500Y-46858982D01*
X151286503Y-46750763D01*
X151230485Y-46653737D01*
X151151263Y-46574515D01*
X151086579Y-46537169D01*
X151054239Y-46518498D01*
X151054232Y-46518495D01*
X151047405Y-46516666D01*
X150987745Y-46480300D01*
X150957217Y-46417453D01*
X150955500Y-46396892D01*
X150955500Y-45595730D01*
X159674500Y-45595730D01*
X159674500Y-46404269D01*
X159677353Y-46434699D01*
X159677353Y-46434701D01*
X159721764Y-46561616D01*
X159722207Y-46562882D01*
X159802850Y-46672150D01*
X159912118Y-46752793D01*
X159954845Y-46767744D01*
X160040299Y-46797646D01*
X160070730Y-46800500D01*
X160070734Y-46800500D01*
X161429270Y-46800500D01*
X161459699Y-46797646D01*
X161459701Y-46797646D01*
X161523790Y-46775219D01*
X161587882Y-46752793D01*
X161697150Y-46672150D01*
X161777793Y-46562882D01*
X161816772Y-46451487D01*
X161822646Y-46434701D01*
X161822646Y-46434699D01*
X161825500Y-46404269D01*
X161825500Y-45595730D01*
X161822646Y-45565300D01*
X161822646Y-45565298D01*
X161777793Y-45437119D01*
X161777792Y-45437117D01*
X161731578Y-45374499D01*
X161697150Y-45327850D01*
X161587882Y-45247207D01*
X161587880Y-45247206D01*
X161459700Y-45202353D01*
X161429270Y-45199500D01*
X161429266Y-45199500D01*
X160070734Y-45199500D01*
X160070730Y-45199500D01*
X160040300Y-45202353D01*
X160040298Y-45202353D01*
X159912119Y-45247206D01*
X159912117Y-45247207D01*
X159802850Y-45327850D01*
X159722207Y-45437117D01*
X159722206Y-45437119D01*
X159677353Y-45565298D01*
X159677353Y-45565300D01*
X159674500Y-45595730D01*
X150955500Y-45595730D01*
X150955500Y-45136483D01*
X150975185Y-45069444D01*
X150991819Y-45048802D01*
X151043846Y-44996775D01*
X151108991Y-44931630D01*
X151123693Y-44915262D01*
X151123698Y-44915254D01*
X151123704Y-44915249D01*
X151140325Y-44894623D01*
X151140325Y-44894622D01*
X151140327Y-44894620D01*
X151177490Y-44823575D01*
X151197175Y-44756536D01*
X151205500Y-44698638D01*
X151205500Y-43874000D01*
X151200803Y-43830316D01*
X151191821Y-43789028D01*
X151189602Y-43778825D01*
X151188886Y-43775897D01*
X151187110Y-43768627D01*
X151144100Y-43687915D01*
X151098345Y-43635111D01*
X151098339Y-43635104D01*
X151080757Y-43617160D01*
X151080756Y-43617159D01*
X151080754Y-43617157D01*
X151056645Y-43603671D01*
X151007747Y-43553764D01*
X150993594Y-43485343D01*
X151004799Y-43443049D01*
X151014068Y-43423173D01*
X151020500Y-43374316D01*
X151020500Y-43025684D01*
X151018017Y-43006827D01*
X151014068Y-42976828D01*
X151000011Y-42946682D01*
X150964065Y-42869596D01*
X150880404Y-42785935D01*
X150773173Y-42735932D01*
X150773171Y-42735931D01*
X150773172Y-42735931D01*
X150724317Y-42729500D01*
X150724316Y-42729500D01*
X150275684Y-42729500D01*
X150275683Y-42729500D01*
X150226828Y-42735931D01*
X150119597Y-42785934D01*
X150067349Y-42838182D01*
X150046961Y-42849313D01*
X150029135Y-42864206D01*
X150013869Y-42867382D01*
X150006025Y-42871666D01*
X149995096Y-42873536D01*
X149987408Y-42874500D01*
X149957147Y-42874500D01*
X149930527Y-42881632D01*
X149922079Y-42882692D01*
X149895654Y-42878404D01*
X149868893Y-42877767D01*
X149861693Y-42872894D01*
X149853112Y-42871502D01*
X149833199Y-42853608D01*
X149811031Y-42838604D01*
X149806959Y-42830029D01*
X149801142Y-42824801D01*
X149796584Y-42808175D01*
X149790722Y-42795828D01*
X149789912Y-42796164D01*
X149785238Y-42784878D01*
X149774555Y-42768891D01*
X149753676Y-42702214D01*
X149764898Y-42661304D01*
X155099500Y-42661304D01*
X155099500Y-42838695D01*
X155134103Y-43012658D01*
X155134106Y-43012667D01*
X155201983Y-43176540D01*
X155201990Y-43176553D01*
X155300535Y-43324034D01*
X155300538Y-43324038D01*
X155425961Y-43449461D01*
X155425965Y-43449464D01*
X155573446Y-43548009D01*
X155573459Y-43548016D01*
X155696363Y-43598923D01*
X155737334Y-43615894D01*
X155737336Y-43615894D01*
X155737341Y-43615896D01*
X155911304Y-43650499D01*
X155911307Y-43650500D01*
X155911309Y-43650500D01*
X156088693Y-43650500D01*
X156088694Y-43650499D01*
X156149195Y-43638465D01*
X156262658Y-43615896D01*
X156262661Y-43615894D01*
X156262666Y-43615894D01*
X156402535Y-43557958D01*
X156426540Y-43548016D01*
X156426540Y-43548015D01*
X156426547Y-43548013D01*
X156574035Y-43449464D01*
X156699464Y-43324035D01*
X156798013Y-43176547D01*
X156865894Y-43012666D01*
X156867056Y-43006828D01*
X156891748Y-42882692D01*
X156900500Y-42838691D01*
X156900500Y-42661309D01*
X156900500Y-42661306D01*
X156900499Y-42661304D01*
X156865896Y-42487341D01*
X156865893Y-42487332D01*
X156798016Y-42323459D01*
X156798009Y-42323446D01*
X156699464Y-42175965D01*
X156699461Y-42175961D01*
X156574038Y-42050538D01*
X156574034Y-42050535D01*
X156426553Y-41951990D01*
X156426540Y-41951983D01*
X156262667Y-41884106D01*
X156262658Y-41884103D01*
X156088694Y-41849500D01*
X156088691Y-41849500D01*
X155911309Y-41849500D01*
X155911306Y-41849500D01*
X155737341Y-41884103D01*
X155737332Y-41884106D01*
X155573459Y-41951983D01*
X155573446Y-41951990D01*
X155425965Y-42050535D01*
X155425961Y-42050538D01*
X155300538Y-42175961D01*
X155300535Y-42175965D01*
X155201990Y-42323446D01*
X155201983Y-42323459D01*
X155134106Y-42487332D01*
X155134103Y-42487341D01*
X155099500Y-42661304D01*
X149764898Y-42661304D01*
X149772160Y-42634833D01*
X149774517Y-42631164D01*
X149785240Y-42615117D01*
X149800500Y-42538401D01*
X149800499Y-42361600D01*
X149785240Y-42284883D01*
X149785239Y-42284881D01*
X149785238Y-42284879D01*
X149757515Y-42243390D01*
X149727112Y-42197888D01*
X149640117Y-42139760D01*
X149640115Y-42139759D01*
X149640112Y-42139758D01*
X149563404Y-42124500D01*
X148836602Y-42124500D01*
X148759881Y-42139760D01*
X148759879Y-42139761D01*
X148672888Y-42197888D01*
X148614760Y-42284883D01*
X148614758Y-42284887D01*
X148599500Y-42361595D01*
X148599500Y-42538398D01*
X148614760Y-42615119D01*
X148625446Y-42631111D01*
X148646323Y-42697788D01*
X148627837Y-42765168D01*
X148625446Y-42768889D01*
X148614759Y-42784882D01*
X148599500Y-42861596D01*
X148599500Y-43038398D01*
X148614760Y-43115119D01*
X148625446Y-43131111D01*
X148646323Y-43197788D01*
X148627837Y-43265168D01*
X148625446Y-43268889D01*
X148614759Y-43284882D01*
X148599500Y-43361596D01*
X148599500Y-43538398D01*
X148606285Y-43572510D01*
X148614760Y-43615117D01*
X148615278Y-43615893D01*
X148622424Y-43626587D01*
X148624540Y-43633346D01*
X148629438Y-43638465D01*
X148634844Y-43666255D01*
X148643301Y-43693265D01*
X148641750Y-43701756D01*
X148642780Y-43707049D01*
X148634519Y-43741363D01*
X148625597Y-43763762D01*
X148615260Y-43783423D01*
X148614046Y-43786606D01*
X148613042Y-43789028D01*
X148611759Y-43793729D01*
X148598842Y-43830645D01*
X148593675Y-43845412D01*
X148593674Y-43845417D01*
X148562989Y-43933111D01*
X148556962Y-43956475D01*
X148521155Y-44016472D01*
X148458596Y-44047586D01*
X148436897Y-44049500D01*
X148411602Y-44049500D01*
X148334880Y-44064760D01*
X148318889Y-44075446D01*
X148252212Y-44096323D01*
X148184832Y-44077837D01*
X148181111Y-44075446D01*
X148165117Y-44064759D01*
X148088403Y-44049500D01*
X147911601Y-44049500D01*
X147834880Y-44064760D01*
X147818889Y-44075446D01*
X147752212Y-44096323D01*
X147684832Y-44077837D01*
X147681111Y-44075446D01*
X147665117Y-44064759D01*
X147588403Y-44049500D01*
X147411601Y-44049500D01*
X147334880Y-44064760D01*
X147318889Y-44075446D01*
X147252212Y-44096323D01*
X147224780Y-44093751D01*
X147201163Y-44088845D01*
X147165117Y-44064760D01*
X147088401Y-44049500D01*
X147011758Y-44049500D01*
X146999279Y-44046908D01*
X146979246Y-44036212D01*
X146957460Y-44029815D01*
X146949018Y-44020073D01*
X146937644Y-44014000D01*
X146926572Y-43994169D01*
X146911705Y-43977011D01*
X146908328Y-43961490D01*
X146903585Y-43952994D01*
X146904227Y-43942641D01*
X146900499Y-43925500D01*
X146900499Y-43861601D01*
X146894342Y-43830645D01*
X146885240Y-43784883D01*
X146885239Y-43784881D01*
X146885238Y-43784878D01*
X146874555Y-43768891D01*
X146853676Y-43702214D01*
X146872160Y-43634833D01*
X146874517Y-43631164D01*
X146885240Y-43615117D01*
X146900500Y-43538401D01*
X146900499Y-43361600D01*
X146885240Y-43284883D01*
X146885239Y-43284881D01*
X146885238Y-43284878D01*
X146874555Y-43268891D01*
X146853676Y-43202214D01*
X146872160Y-43134833D01*
X146874517Y-43131164D01*
X146885240Y-43115117D01*
X146900500Y-43038401D01*
X146900499Y-42861600D01*
X146885240Y-42784883D01*
X146885239Y-42784881D01*
X146885238Y-42784878D01*
X146874555Y-42768891D01*
X146853676Y-42702214D01*
X146856248Y-42674779D01*
X146861153Y-42651165D01*
X146885240Y-42615117D01*
X146900500Y-42538401D01*
X146900499Y-42461754D01*
X146903091Y-42449279D01*
X146913786Y-42429247D01*
X146920183Y-42407461D01*
X146929926Y-42399018D01*
X146935999Y-42387644D01*
X146955826Y-42376574D01*
X146972986Y-42361705D01*
X146988509Y-42358328D01*
X146997005Y-42353585D01*
X147007357Y-42354227D01*
X147024497Y-42350499D01*
X147088400Y-42350499D01*
X147165117Y-42335240D01*
X147181107Y-42324555D01*
X147247783Y-42303676D01*
X147315164Y-42322159D01*
X147318871Y-42324541D01*
X147334880Y-42335238D01*
X147334883Y-42335240D01*
X147334887Y-42335241D01*
X147373241Y-42342870D01*
X147411599Y-42350500D01*
X147588400Y-42350499D01*
X147665117Y-42335240D01*
X147681107Y-42324555D01*
X147747783Y-42303676D01*
X147815164Y-42322159D01*
X147818871Y-42324541D01*
X147834880Y-42335238D01*
X147834883Y-42335240D01*
X147834887Y-42335241D01*
X147873241Y-42342870D01*
X147911599Y-42350500D01*
X148088400Y-42350499D01*
X148165117Y-42335240D01*
X148252112Y-42277112D01*
X148310240Y-42190117D01*
X148325500Y-42113401D01*
X148325499Y-41386600D01*
X148310240Y-41309883D01*
X148310239Y-41309881D01*
X148308013Y-41298690D01*
X148314242Y-41229099D01*
X148357105Y-41173922D01*
X148422995Y-41150678D01*
X148429631Y-41150500D01*
X163215649Y-41150500D01*
X163243907Y-41150500D01*
X163256061Y-41151097D01*
G37*
%TD.AperFunction*%
%TA.AperFunction,Conductor*%
G36*
X138737539Y-49086185D02*
G01*
X138783294Y-49138989D01*
X138794500Y-49190500D01*
X138794500Y-51685967D01*
X138774815Y-51753006D01*
X138722011Y-51798761D01*
X138652853Y-51808705D01*
X138589297Y-51779680D01*
X138582819Y-51773648D01*
X137318712Y-50509541D01*
X137318707Y-50509537D01*
X137294409Y-50495509D01*
X137294409Y-50495508D01*
X137294407Y-50495508D01*
X137250194Y-50469981D01*
X137250193Y-50469980D01*
X137241160Y-50467559D01*
X137173762Y-50449500D01*
X137173760Y-50449500D01*
X127075735Y-50449500D01*
X127067850Y-50447184D01*
X127059733Y-50448463D01*
X127034815Y-50437484D01*
X127008696Y-50429815D01*
X127001667Y-50422879D01*
X126995794Y-50420292D01*
X126975392Y-50396954D01*
X126972327Y-50393930D01*
X126971699Y-50392982D01*
X126887665Y-50260881D01*
X126886714Y-50259399D01*
X126886585Y-50259200D01*
X126876157Y-50248603D01*
X126869542Y-50238606D01*
X126868920Y-50236588D01*
X126865567Y-50232183D01*
X126860489Y-50223387D01*
X126776613Y-50139511D01*
X126776612Y-50139510D01*
X126713458Y-50103048D01*
X126673886Y-50080201D01*
X126559309Y-50049500D01*
X126440691Y-50049500D01*
X126326114Y-50080201D01*
X126326112Y-50080201D01*
X126326112Y-50080202D01*
X126223387Y-50139511D01*
X126223384Y-50139513D01*
X126139513Y-50223384D01*
X126139511Y-50223387D01*
X126101033Y-50290033D01*
X126080201Y-50326114D01*
X126049500Y-50440691D01*
X126049500Y-50559309D01*
X126080201Y-50673886D01*
X126139511Y-50776613D01*
X126150719Y-50787821D01*
X126184202Y-50849145D01*
X126179215Y-50918837D01*
X126150719Y-50963179D01*
X126139511Y-50974387D01*
X126080201Y-51077114D01*
X126049500Y-51191691D01*
X126049500Y-51310309D01*
X126080201Y-51424886D01*
X126139511Y-51527613D01*
X126223387Y-51611489D01*
X126326114Y-51670799D01*
X126440691Y-51701500D01*
X126440694Y-51701500D01*
X126559307Y-51701500D01*
X126559309Y-51701500D01*
X126591997Y-51692740D01*
X126609470Y-51689381D01*
X126624808Y-51687562D01*
X126984792Y-51570480D01*
X127024455Y-51557580D01*
X127062807Y-51551500D01*
X136892267Y-51551500D01*
X136959306Y-51571185D01*
X136979948Y-51587819D01*
X137129948Y-51737819D01*
X137163433Y-51799142D01*
X137158449Y-51868834D01*
X137116577Y-51924767D01*
X137051113Y-51949184D01*
X137042267Y-51949500D01*
X123925833Y-51949500D01*
X123858794Y-51929815D01*
X123838152Y-51913181D01*
X123369601Y-51444630D01*
X123336116Y-51383307D01*
X123341100Y-51313615D01*
X123382972Y-51257682D01*
X123448436Y-51233265D01*
X123489370Y-51237173D01*
X123539106Y-51250500D01*
X123539109Y-51250500D01*
X123670888Y-51250500D01*
X123670890Y-51250500D01*
X123724502Y-51236134D01*
X123746335Y-51232801D01*
X123772925Y-51223160D01*
X123798184Y-51216392D01*
X123799847Y-51215431D01*
X123819578Y-51206243D01*
X124228647Y-51057926D01*
X124270914Y-51050500D01*
X124789560Y-51050500D01*
X124789562Y-51050500D01*
X124865989Y-51030021D01*
X124934511Y-50990460D01*
X124990460Y-50934511D01*
X126146201Y-49778770D01*
X126207524Y-49745285D01*
X126233882Y-49742451D01*
X135097609Y-49742451D01*
X135097611Y-49742451D01*
X135174038Y-49721972D01*
X135242560Y-49682411D01*
X135298509Y-49626462D01*
X135822152Y-49102819D01*
X135883475Y-49069334D01*
X135909833Y-49066500D01*
X138670500Y-49066500D01*
X138737539Y-49086185D01*
G37*
%TD.AperFunction*%
%TD*%
%TA.AperFunction,Conductor*%
%TO.N,VDD*%
G36*
X141693039Y-54070185D02*
G01*
X141738794Y-54122989D01*
X141750000Y-54174500D01*
X141750000Y-59198638D01*
X141730315Y-59265677D01*
X141713681Y-59286319D01*
X141036319Y-59963681D01*
X140974996Y-59997166D01*
X140948638Y-60000000D01*
X139051362Y-60000000D01*
X138984323Y-59980315D01*
X138963681Y-59963681D01*
X138286319Y-59286319D01*
X138252834Y-59224996D01*
X138250000Y-59198638D01*
X138250000Y-54174500D01*
X138269685Y-54107461D01*
X138322489Y-54061706D01*
X138374000Y-54050500D01*
X141626000Y-54050500D01*
X141693039Y-54070185D01*
G37*
%TD.AperFunction*%
%TD*%
%TA.AperFunction,Conductor*%
%TO.N,VCC*%
G36*
X153500000Y-54250000D02*
G01*
X152750000Y-53500000D01*
X153500000Y-53500000D01*
X153500000Y-54250000D01*
G37*
%TD.AperFunction*%
%TD*%
%TA.AperFunction,Conductor*%
%TO.N,/PA0*%
G36*
X121708657Y-55062539D02*
G01*
X122264730Y-55226756D01*
X122271693Y-55232386D01*
X122273104Y-55238488D01*
X122251175Y-55739997D01*
X122247390Y-55748113D01*
X122239997Y-55751175D01*
X121738488Y-55773104D01*
X121730073Y-55770042D01*
X121726757Y-55764730D01*
X121562540Y-55208659D01*
X121563483Y-55199756D01*
X121565485Y-55197077D01*
X121697075Y-55065487D01*
X121705347Y-55062061D01*
X121708657Y-55062539D01*
G37*
%TD.AperFunction*%
%TD*%
%TA.AperFunction,Conductor*%
%TO.N,VCC*%
G36*
X124449995Y-47128427D02*
G01*
X124452755Y-47132806D01*
X124632200Y-47641168D01*
X124631722Y-47650110D01*
X124629071Y-47653689D01*
X124257904Y-47993758D01*
X124249489Y-47996820D01*
X124242096Y-47993758D01*
X123870928Y-47653689D01*
X123867143Y-47645573D01*
X123867799Y-47641168D01*
X124047245Y-47132806D01*
X124053230Y-47126145D01*
X124058278Y-47125000D01*
X124441722Y-47125000D01*
X124449995Y-47128427D01*
G37*
%TD.AperFunction*%
%TD*%
%TA.AperFunction,Conductor*%
%TO.N,SDA*%
G36*
X123666785Y-58755788D02*
G01*
X124181244Y-58824383D01*
X124188991Y-58828873D01*
X124191397Y-58835966D01*
X124192079Y-59415756D01*
X124188662Y-59424033D01*
X124180393Y-59427470D01*
X124180365Y-59427470D01*
X123600575Y-59426788D01*
X123592306Y-59423351D01*
X123588992Y-59416636D01*
X123520398Y-58902176D01*
X123522701Y-58893524D01*
X123523714Y-58892366D01*
X123656968Y-58759112D01*
X123665240Y-58755686D01*
X123666785Y-58755788D01*
G37*
%TD.AperFunction*%
%TD*%
%TA.AperFunction,Conductor*%
%TO.N,Net-(Q1-G)*%
G36*
X121468431Y-47782254D02*
G01*
X121475857Y-47787258D01*
X121477569Y-47796048D01*
X121477229Y-47797339D01*
X121338719Y-48223206D01*
X121332902Y-48230013D01*
X121327593Y-48231287D01*
X121144589Y-48231287D01*
X121136316Y-48227860D01*
X121133463Y-48223206D01*
X120994952Y-47797339D01*
X120995652Y-47788411D01*
X121002459Y-47782594D01*
X121003741Y-47782256D01*
X121233766Y-47735563D01*
X121238416Y-47735563D01*
X121468431Y-47782254D01*
G37*
%TD.AperFunction*%
%TD*%
%TA.AperFunction,Conductor*%
%TO.N,/PA0*%
G36*
X120001915Y-48367680D02*
G01*
X120003068Y-48368352D01*
X120198726Y-48497981D01*
X120202018Y-48501273D01*
X120331647Y-48696931D01*
X120333359Y-48705720D01*
X120328355Y-48713147D01*
X120327202Y-48713819D01*
X119928127Y-48917011D01*
X119919199Y-48917711D01*
X119914545Y-48914858D01*
X119785141Y-48785454D01*
X119781714Y-48777181D01*
X119782986Y-48771877D01*
X119986181Y-48372795D01*
X119992987Y-48366980D01*
X120001915Y-48367680D01*
G37*
%TD.AperFunction*%
%TD*%
%TA.AperFunction,Conductor*%
%TO.N,Net-(U1-REGN)*%
G36*
X147801915Y-54867680D02*
G01*
X147803068Y-54868352D01*
X147998726Y-54997981D01*
X148002018Y-55001273D01*
X148131647Y-55196931D01*
X148133359Y-55205720D01*
X148128355Y-55213147D01*
X148127202Y-55213819D01*
X147728127Y-55417011D01*
X147719199Y-55417711D01*
X147714545Y-55414858D01*
X147585141Y-55285454D01*
X147581714Y-55277181D01*
X147582986Y-55271877D01*
X147786181Y-54872795D01*
X147792987Y-54866980D01*
X147801915Y-54867680D01*
G37*
%TD.AperFunction*%
%TD*%
%TA.AperFunction,Conductor*%
%TO.N,SCL*%
G36*
X121338843Y-51938898D02*
G01*
X121339218Y-51939505D01*
X121341995Y-51944314D01*
X121342264Y-51944810D01*
X121354361Y-51968568D01*
X121355066Y-51970273D01*
X121355563Y-51971810D01*
X121355570Y-51971828D01*
X121356751Y-51974775D01*
X121368900Y-51999973D01*
X121382544Y-52023948D01*
X121382801Y-52024426D01*
X121448226Y-52152924D01*
X121449500Y-52158230D01*
X121449500Y-52163617D01*
X121469978Y-52240042D01*
X121471937Y-52243433D01*
X121471938Y-52243436D01*
X121509537Y-52308560D01*
X121509541Y-52308565D01*
X121538888Y-52337912D01*
X121542315Y-52346185D01*
X121538888Y-52354458D01*
X121411394Y-52481951D01*
X121403121Y-52485378D01*
X121397813Y-52484104D01*
X121353202Y-52461390D01*
X121288584Y-52428489D01*
X121285620Y-52426336D01*
X121248796Y-52389512D01*
X121248791Y-52389508D01*
X121146070Y-52330201D01*
X121146066Y-52330199D01*
X121040600Y-52301940D01*
X121038319Y-52301065D01*
X120998737Y-52280912D01*
X120992920Y-52274105D01*
X120993620Y-52265177D01*
X120994292Y-52264024D01*
X121007933Y-52243436D01*
X121123921Y-52068365D01*
X121127213Y-52065074D01*
X121188566Y-52024426D01*
X121322629Y-51935605D01*
X121331416Y-51933894D01*
X121338843Y-51938898D01*
G37*
%TD.AperFunction*%
%TD*%
%TA.AperFunction,Conductor*%
%TO.N,SD_D0*%
G36*
X134482988Y-54546294D02*
G01*
X134490413Y-54551298D01*
X134492125Y-54560088D01*
X134491957Y-54560802D01*
X134377331Y-54986538D01*
X134371871Y-54993636D01*
X134366033Y-54995196D01*
X134133967Y-54995196D01*
X134125694Y-54991769D01*
X134122669Y-54986538D01*
X134108549Y-54934097D01*
X134008042Y-54560800D01*
X134009200Y-54551922D01*
X134016298Y-54546462D01*
X134016985Y-54546300D01*
X134247675Y-54499472D01*
X134252325Y-54499472D01*
X134482988Y-54546294D01*
G37*
%TD.AperFunction*%
%TD*%
%TA.AperFunction,Conductor*%
%TO.N,FAN_PWM*%
G36*
X123676280Y-50460389D02*
G01*
X124191523Y-50647204D01*
X124198132Y-50653244D01*
X124199234Y-50658202D01*
X124199234Y-50841797D01*
X124195807Y-50850070D01*
X124191522Y-50852796D01*
X123676288Y-51039608D01*
X123667342Y-51039207D01*
X123661301Y-51032597D01*
X123660835Y-51030939D01*
X123604467Y-50752318D01*
X123604467Y-50747680D01*
X123660833Y-50469067D01*
X123665832Y-50461641D01*
X123674620Y-50459922D01*
X123676280Y-50460389D01*
G37*
%TD.AperFunction*%
%TD*%
%TA.AperFunction,Conductor*%
%TO.N,SCL_2*%
G36*
X122061241Y-47758859D02*
G01*
X122487116Y-47897372D01*
X122493922Y-47903188D01*
X122495196Y-47908497D01*
X122495196Y-48091502D01*
X122491769Y-48099775D01*
X122487115Y-48102628D01*
X122061248Y-48241138D01*
X122052320Y-48240438D01*
X122046503Y-48233631D01*
X122046163Y-48232340D01*
X121999472Y-48002325D01*
X121999472Y-47997674D01*
X122046163Y-47767657D01*
X122051167Y-47760233D01*
X122059957Y-47758521D01*
X122061241Y-47758859D01*
G37*
%TD.AperFunction*%
%TD*%
%TA.AperFunction,Conductor*%
%TO.N,/BQ_STAT*%
G36*
X143099775Y-56008231D02*
G01*
X143102628Y-56012885D01*
X143241138Y-56438751D01*
X143240438Y-56447679D01*
X143233631Y-56453496D01*
X143232340Y-56453836D01*
X143002328Y-56500527D01*
X142997672Y-56500527D01*
X142767659Y-56453836D01*
X142760233Y-56448832D01*
X142758521Y-56440042D01*
X142758857Y-56438762D01*
X142897372Y-56012885D01*
X142903189Y-56006078D01*
X142908498Y-56004804D01*
X143091502Y-56004804D01*
X143099775Y-56008231D01*
G37*
%TD.AperFunction*%
%TD*%
%TA.AperFunction,Conductor*%
%TO.N,SDA_2*%
G36*
X126561241Y-51009859D02*
G01*
X126987116Y-51148372D01*
X126993922Y-51154188D01*
X126995196Y-51159497D01*
X126995196Y-51342502D01*
X126991769Y-51350775D01*
X126987115Y-51353628D01*
X126561248Y-51492138D01*
X126552320Y-51491438D01*
X126546503Y-51484631D01*
X126546163Y-51483340D01*
X126499472Y-51253325D01*
X126499472Y-51248674D01*
X126546163Y-51018657D01*
X126551167Y-51011233D01*
X126559957Y-51009521D01*
X126561241Y-51009859D01*
G37*
%TD.AperFunction*%
%TD*%
%TA.AperFunction,Conductor*%
%TO.N,Net-(U1-ILIM)*%
G36*
X146265690Y-60984631D02*
G01*
X146554031Y-61146646D01*
X146559565Y-61153686D01*
X146560000Y-61156846D01*
X146560000Y-61343153D01*
X146556573Y-61351426D01*
X146554031Y-61353353D01*
X146265690Y-61515368D01*
X146256799Y-61516433D01*
X146251189Y-61512913D01*
X146108573Y-61351426D01*
X146025838Y-61257743D01*
X146022931Y-61249275D01*
X146025838Y-61242256D01*
X146251190Y-60987085D01*
X146259234Y-60983153D01*
X146265690Y-60984631D01*
G37*
%TD.AperFunction*%
%TD*%
%TA.AperFunction,Conductor*%
%TO.N,/BATT*%
G36*
X151256833Y-58253918D02*
G01*
X151665579Y-58548111D01*
X151694605Y-58569003D01*
X151699318Y-58576617D01*
X151699426Y-58579509D01*
X151650926Y-59139310D01*
X151646798Y-59147256D01*
X151639270Y-59150000D01*
X150860730Y-59150000D01*
X150852457Y-59146573D01*
X150849074Y-59139310D01*
X150841012Y-59046261D01*
X150800573Y-58579507D01*
X150803273Y-58570971D01*
X150805390Y-58569006D01*
X151243165Y-58253918D01*
X151251882Y-58251867D01*
X151256833Y-58253918D01*
G37*
%TD.AperFunction*%
%TD*%
%TA.AperFunction,Conductor*%
%TO.N,FAN_PWM*%
G36*
X156637655Y-47210792D02*
G01*
X156643696Y-47217402D01*
X156644165Y-47219070D01*
X156700530Y-47497680D01*
X156700530Y-47502320D01*
X156644165Y-47780929D01*
X156639165Y-47788358D01*
X156630377Y-47790077D01*
X156628709Y-47789608D01*
X156113476Y-47602796D01*
X156106866Y-47596755D01*
X156105764Y-47591797D01*
X156105764Y-47408202D01*
X156109191Y-47399929D01*
X156113473Y-47397204D01*
X156628711Y-47210391D01*
X156637655Y-47210792D01*
G37*
%TD.AperFunction*%
%TD*%
%TA.AperFunction,Conductor*%
%TO.N,VBUS*%
G36*
X150750000Y-47735196D02*
G01*
X150735624Y-47788850D01*
X150736719Y-47789304D01*
X150733608Y-47796814D01*
X150699500Y-47924108D01*
X150699500Y-48055891D01*
X150733608Y-48183186D01*
X150736718Y-48190693D01*
X150735622Y-48191146D01*
X150737535Y-48198288D01*
X150744977Y-48209867D01*
X150750000Y-48244802D01*
X150750000Y-48341500D01*
X150730315Y-48408539D01*
X150677511Y-48454294D01*
X150626000Y-48465500D01*
X145374000Y-48465500D01*
X145306961Y-48445815D01*
X145261206Y-48393011D01*
X145250000Y-48341500D01*
X145250000Y-48244802D01*
X145264377Y-48191146D01*
X145263282Y-48190693D01*
X145266388Y-48183192D01*
X145266392Y-48183186D01*
X145300500Y-48055892D01*
X145300500Y-47924108D01*
X145266392Y-47796814D01*
X145266388Y-47796807D01*
X145263281Y-47789304D01*
X145264375Y-47788850D01*
X145262460Y-47781704D01*
X145255023Y-47770131D01*
X145250000Y-47735196D01*
X145250000Y-47624000D01*
X145269685Y-47556961D01*
X145322489Y-47511206D01*
X145374000Y-47500000D01*
X149250000Y-47500000D01*
X150750000Y-47500000D01*
X150750000Y-47735196D01*
G37*
%TD.AperFunction*%
%TD*%
%TA.AperFunction,Conductor*%
%TO.N,VCC*%
G36*
X158943039Y-49019685D02*
G01*
X158988794Y-49072489D01*
X159000000Y-49124000D01*
X159000000Y-52250000D01*
X153500000Y-52250000D01*
X153500000Y-53500000D01*
X146870652Y-53500000D01*
X146859164Y-53496626D01*
X146847244Y-53497771D01*
X146826255Y-53486963D01*
X146803613Y-53480315D01*
X146794217Y-53470466D01*
X146785126Y-53465785D01*
X146763295Y-53438052D01*
X146762717Y-53437052D01*
X146746212Y-53369160D01*
X146762687Y-53313000D01*
X146776219Y-53289562D01*
X146809577Y-53231784D01*
X146850500Y-53079057D01*
X146850500Y-52920943D01*
X146809577Y-52768216D01*
X146762686Y-52686998D01*
X146746214Y-52619100D01*
X146762687Y-52563000D01*
X146809577Y-52481784D01*
X146850500Y-52329057D01*
X146850500Y-52170943D01*
X146809577Y-52018216D01*
X146809573Y-52018209D01*
X146730524Y-51881290D01*
X146730518Y-51881282D01*
X146618717Y-51769481D01*
X146618709Y-51769475D01*
X146481790Y-51690426D01*
X146481786Y-51690424D01*
X146481784Y-51690423D01*
X146329057Y-51649500D01*
X146170943Y-51649500D01*
X146018216Y-51690423D01*
X146018215Y-51690423D01*
X145936999Y-51737313D01*
X145869099Y-51753784D01*
X145813001Y-51737313D01*
X145731784Y-51690423D01*
X145579057Y-51649500D01*
X145420943Y-51649500D01*
X145268216Y-51690423D01*
X145268209Y-51690426D01*
X145131290Y-51769475D01*
X145131282Y-51769481D01*
X145019481Y-51881282D01*
X145019475Y-51881290D01*
X144940426Y-52018209D01*
X144940423Y-52018216D01*
X144899500Y-52170943D01*
X144899500Y-52329057D01*
X144937261Y-52469981D01*
X144940423Y-52481783D01*
X144940423Y-52481784D01*
X144987313Y-52563001D01*
X145003784Y-52630901D01*
X144987313Y-52686999D01*
X144940423Y-52768215D01*
X144940423Y-52768216D01*
X144899500Y-52920943D01*
X144899500Y-53079057D01*
X144934704Y-53210438D01*
X144940423Y-53231783D01*
X144940423Y-53231784D01*
X144987313Y-53313001D01*
X144990139Y-53324651D01*
X144997094Y-53334413D01*
X144998222Y-53357974D01*
X145003784Y-53380901D01*
X144999947Y-53393974D01*
X145000437Y-53404202D01*
X144987328Y-53436972D01*
X144986751Y-53437972D01*
X144936197Y-53486201D01*
X144879348Y-53500000D01*
X143976333Y-53500000D01*
X143909294Y-53480315D01*
X143888652Y-53463681D01*
X142934512Y-52509541D01*
X142934507Y-52509537D01*
X142910907Y-52495912D01*
X142910907Y-52495911D01*
X142910905Y-52495911D01*
X142865994Y-52469981D01*
X142865993Y-52469980D01*
X142856960Y-52467559D01*
X142789562Y-52449500D01*
X142250000Y-52449500D01*
X142250000Y-50438389D01*
X155124500Y-50438389D01*
X155124500Y-50561610D01*
X155148535Y-50682444D01*
X155148538Y-50682454D01*
X155195687Y-50796283D01*
X155195692Y-50796292D01*
X155264141Y-50898732D01*
X155264144Y-50898736D01*
X155351263Y-50985855D01*
X155351267Y-50985858D01*
X155453707Y-51054307D01*
X155453713Y-51054310D01*
X155453714Y-51054311D01*
X155567548Y-51101463D01*
X155688389Y-51125499D01*
X155688393Y-51125500D01*
X155688394Y-51125500D01*
X155811607Y-51125500D01*
X155811608Y-51125499D01*
X155932452Y-51101463D01*
X156046286Y-51054311D01*
X156148733Y-50985858D01*
X156235858Y-50898733D01*
X156304311Y-50796286D01*
X156351463Y-50682452D01*
X156375500Y-50561606D01*
X156375500Y-50438394D01*
X156351463Y-50317548D01*
X156304311Y-50203714D01*
X156304310Y-50203713D01*
X156304307Y-50203707D01*
X156235858Y-50101267D01*
X156235855Y-50101263D01*
X156148736Y-50014144D01*
X156148732Y-50014141D01*
X156046292Y-49945692D01*
X156046283Y-49945687D01*
X155932454Y-49898538D01*
X155932455Y-49898538D01*
X155932452Y-49898537D01*
X155932448Y-49898536D01*
X155932444Y-49898535D01*
X155811610Y-49874500D01*
X155811606Y-49874500D01*
X155688394Y-49874500D01*
X155688389Y-49874500D01*
X155567555Y-49898535D01*
X155567545Y-49898538D01*
X155453716Y-49945687D01*
X155453707Y-49945692D01*
X155351267Y-50014141D01*
X155351263Y-50014144D01*
X155264144Y-50101263D01*
X155264141Y-50101267D01*
X155195692Y-50203707D01*
X155195687Y-50203716D01*
X155148538Y-50317545D01*
X155148535Y-50317555D01*
X155124500Y-50438389D01*
X142250000Y-50438389D01*
X142250000Y-49066500D01*
X154523560Y-49066500D01*
X154523562Y-49066500D01*
X154599989Y-49046021D01*
X154650927Y-49016611D01*
X154712926Y-49000000D01*
X158876000Y-49000000D01*
X158943039Y-49019685D01*
G37*
%TD.AperFunction*%
%TD*%
%TA.AperFunction,Conductor*%
%TO.N,SD_VCC*%
G36*
X129830643Y-46052016D02*
G01*
X130391244Y-46197724D01*
X130398388Y-46203121D01*
X130400000Y-46209047D01*
X130400000Y-46790952D01*
X130396573Y-46799225D01*
X130391243Y-46802276D01*
X129830643Y-46947983D01*
X129821774Y-46946747D01*
X129818204Y-46943494D01*
X129503918Y-46506834D01*
X129501867Y-46498118D01*
X129503919Y-46493165D01*
X129818205Y-46056503D01*
X129825818Y-46051792D01*
X129830643Y-46052016D01*
G37*
%TD.AperFunction*%
%TD*%
%TA.AperFunction,Conductor*%
%TO.N,SDA_2*%
G36*
X122061241Y-49258859D02*
G01*
X122487116Y-49397372D01*
X122493922Y-49403188D01*
X122495196Y-49408497D01*
X122495196Y-49591502D01*
X122491769Y-49599775D01*
X122487115Y-49602628D01*
X122061248Y-49741138D01*
X122052320Y-49740438D01*
X122046503Y-49733631D01*
X122046163Y-49732340D01*
X121999472Y-49502325D01*
X121999472Y-49497674D01*
X122046163Y-49267657D01*
X122051167Y-49260233D01*
X122059957Y-49258521D01*
X122061241Y-49258859D01*
G37*
%TD.AperFunction*%
%TD*%
%TA.AperFunction,Conductor*%
%TO.N,SCL_2*%
G36*
X126714146Y-50370982D02*
G01*
X126714275Y-50371181D01*
X126889815Y-50647126D01*
X126891643Y-50653406D01*
X126891643Y-50835189D01*
X126888216Y-50843462D01*
X126879943Y-50846889D01*
X126877234Y-50846571D01*
X126462149Y-50747795D01*
X126454894Y-50742546D01*
X126453374Y-50734175D01*
X126469775Y-50650000D01*
X126498065Y-50504797D01*
X126503011Y-50497333D01*
X126503030Y-50497320D01*
X126697925Y-50367717D01*
X126706711Y-50365991D01*
X126714146Y-50370982D01*
G37*
%TD.AperFunction*%
%TD*%
%TA.AperFunction,Conductor*%
%TO.N,Net-(Q1-G)*%
G36*
X137580110Y-52438277D02*
G01*
X137909550Y-52751293D01*
X137913187Y-52759476D01*
X137911240Y-52766243D01*
X137753409Y-53004134D01*
X137745980Y-53009133D01*
X137745936Y-53009142D01*
X137745911Y-53009147D01*
X137469008Y-53063430D01*
X137460230Y-53061659D01*
X137455276Y-53054200D01*
X137455073Y-53052558D01*
X137430688Y-52577035D01*
X137433687Y-52568598D01*
X137434080Y-52568184D01*
X137563779Y-52438485D01*
X137572051Y-52435059D01*
X137580110Y-52438277D01*
G37*
%TD.AperFunction*%
%TD*%
%TA.AperFunction,Conductor*%
%TO.N,+3.3V*%
G36*
X128693039Y-60019685D02*
G01*
X128738794Y-60072489D01*
X128750000Y-60124000D01*
X128750000Y-60876000D01*
X128730315Y-60943039D01*
X128677511Y-60988794D01*
X128626000Y-61000000D01*
X125874000Y-61000000D01*
X125806961Y-60980315D01*
X125761206Y-60927511D01*
X125750000Y-60876000D01*
X125750000Y-60124000D01*
X125769685Y-60056961D01*
X125822489Y-60011206D01*
X125874000Y-60000000D01*
X128626000Y-60000000D01*
X128693039Y-60019685D01*
G37*
%TD.AperFunction*%
%TD*%
%TA.AperFunction,Conductor*%
%TO.N,VBUS*%
G36*
X150943039Y-43769685D02*
G01*
X150988794Y-43822489D01*
X151000000Y-43874000D01*
X151000000Y-44698638D01*
X150980315Y-44765677D01*
X150963681Y-44786319D01*
X150750000Y-44999999D01*
X150750000Y-46432912D01*
X150730315Y-46499951D01*
X150688001Y-46540299D01*
X150628737Y-46574515D01*
X150628734Y-46574517D01*
X150549517Y-46653734D01*
X150549513Y-46653740D01*
X150493498Y-46750760D01*
X150493497Y-46750763D01*
X150464500Y-46858982D01*
X150464500Y-46971018D01*
X150493497Y-47079237D01*
X150549515Y-47176263D01*
X150628737Y-47255485D01*
X150665330Y-47276612D01*
X150687999Y-47289700D01*
X150736215Y-47340266D01*
X150750000Y-47397087D01*
X150750000Y-47500000D01*
X149250000Y-47500000D01*
X149272416Y-47477583D01*
X149328000Y-47445491D01*
X149423886Y-47419799D01*
X149526613Y-47360489D01*
X149610489Y-47276613D01*
X149669799Y-47173886D01*
X149695491Y-47078000D01*
X149727583Y-47022416D01*
X149750000Y-47000000D01*
X149750000Y-46500000D01*
X148786319Y-45536319D01*
X148771615Y-45509391D01*
X148755023Y-45483573D01*
X148754131Y-45477372D01*
X148752834Y-45474996D01*
X148750000Y-45448638D01*
X148750000Y-45217887D01*
X148769685Y-45150848D01*
X148770898Y-45148996D01*
X148810240Y-45090117D01*
X148825500Y-45013401D01*
X148825499Y-44286600D01*
X148810240Y-44209883D01*
X148810239Y-44209881D01*
X148810237Y-44209876D01*
X148770898Y-44151001D01*
X148765247Y-44132956D01*
X148755023Y-44117046D01*
X148750571Y-44086084D01*
X148750020Y-44084324D01*
X148750000Y-44082111D01*
X148750000Y-44041932D01*
X148756959Y-44000977D01*
X148797645Y-43884701D01*
X148797646Y-43884699D01*
X148797646Y-43884694D01*
X148799256Y-43877330D01*
X148801380Y-43877793D01*
X148823196Y-43823020D01*
X148880039Y-43782391D01*
X148920797Y-43775499D01*
X149142704Y-43775499D01*
X149142714Y-43775500D01*
X149157147Y-43775500D01*
X149792851Y-43775500D01*
X149792853Y-43775500D01*
X149872255Y-43754224D01*
X149904345Y-43750000D01*
X150876000Y-43750000D01*
X150943039Y-43769685D01*
G37*
%TD.AperFunction*%
%TD*%
%TA.AperFunction,Conductor*%
%TO.N,SD_VCC*%
G36*
X130247500Y-59909191D02*
G01*
X130250887Y-59916501D01*
X130293379Y-60431104D01*
X130290645Y-60439631D01*
X130284039Y-60443535D01*
X130002320Y-60500530D01*
X129997680Y-60500530D01*
X129715960Y-60443535D01*
X129708531Y-60438535D01*
X129706620Y-60431104D01*
X129749113Y-59916501D01*
X129753209Y-59908538D01*
X129760773Y-59905764D01*
X130239227Y-59905764D01*
X130247500Y-59909191D01*
G37*
%TD.AperFunction*%
%TD*%
%TA.AperFunction,Conductor*%
%TO.N,Net-(U1-TS)*%
G36*
X149197679Y-61259561D02*
G01*
X149203496Y-61266368D01*
X149203836Y-61267659D01*
X149250527Y-61497672D01*
X149250527Y-61502328D01*
X149203836Y-61732340D01*
X149198832Y-61739766D01*
X149190042Y-61741478D01*
X149188751Y-61741138D01*
X148762885Y-61602628D01*
X148756078Y-61596811D01*
X148754804Y-61591502D01*
X148754804Y-61408497D01*
X148758231Y-61400224D01*
X148762882Y-61397372D01*
X149188752Y-61258861D01*
X149197679Y-61259561D01*
G37*
%TD.AperFunction*%
%TD*%
%TA.AperFunction,Conductor*%
%TO.N,SCL*%
G36*
X124998978Y-57881263D02*
G01*
X125001499Y-57885021D01*
X125248157Y-58474681D01*
X125248188Y-58483636D01*
X125243882Y-58488911D01*
X124905012Y-58716295D01*
X124896233Y-58718060D01*
X124891974Y-58716295D01*
X124553103Y-58488911D01*
X124548142Y-58481456D01*
X124548827Y-58474684D01*
X124795487Y-57885020D01*
X124801841Y-57878711D01*
X124806281Y-57877836D01*
X124990705Y-57877836D01*
X124998978Y-57881263D01*
G37*
%TD.AperFunction*%
%TD*%
%TA.AperFunction,Conductor*%
%TO.N,VCC*%
G36*
X124601071Y-49091672D02*
G01*
X124893399Y-49322801D01*
X124894416Y-49323706D01*
X125165234Y-49594524D01*
X125168661Y-49602797D01*
X125165234Y-49611070D01*
X125162140Y-49613289D01*
X124620520Y-49880632D01*
X124611584Y-49881220D01*
X124606847Y-49878186D01*
X124256402Y-49508212D01*
X124253200Y-49499849D01*
X124255864Y-49492729D01*
X124584786Y-49093409D01*
X124592689Y-49089204D01*
X124601071Y-49091672D01*
G37*
%TD.AperFunction*%
%TD*%
%TA.AperFunction,Conductor*%
%TO.N,VCC*%
G36*
X126598981Y-48459682D02*
G01*
X126603734Y-48466943D01*
X126660530Y-48747680D01*
X126660530Y-48752320D01*
X126603734Y-49033056D01*
X126598734Y-49040485D01*
X126590239Y-49042259D01*
X126075437Y-48951701D01*
X126067883Y-48946893D01*
X126065764Y-48940178D01*
X126065764Y-48559821D01*
X126069191Y-48551548D01*
X126075435Y-48548298D01*
X126590239Y-48457740D01*
X126598981Y-48459682D01*
G37*
%TD.AperFunction*%
%TD*%
%TA.AperFunction,Conductor*%
%TO.N,CC1*%
G36*
X149197679Y-46759561D02*
G01*
X149203496Y-46766368D01*
X149203836Y-46767659D01*
X149250527Y-46997672D01*
X149250527Y-47002328D01*
X149203836Y-47232340D01*
X149198832Y-47239766D01*
X149190042Y-47241478D01*
X149188751Y-47241138D01*
X148762885Y-47102628D01*
X148756078Y-47096811D01*
X148754804Y-47091502D01*
X148754804Y-46908497D01*
X148758231Y-46900224D01*
X148762882Y-46897372D01*
X149188752Y-46758861D01*
X149197679Y-46759561D01*
G37*
%TD.AperFunction*%
%TD*%
%TA.AperFunction,Conductor*%
%TO.N,VCC*%
G36*
X159000000Y-55448638D02*
G01*
X158980315Y-55515677D01*
X158963681Y-55536319D01*
X155536319Y-58963681D01*
X155474996Y-58997166D01*
X155448638Y-59000000D01*
X153624000Y-59000000D01*
X153556961Y-58980315D01*
X153511206Y-58927511D01*
X153500000Y-58876000D01*
X153500000Y-54250000D01*
X153500000Y-52250000D01*
X159000000Y-52250000D01*
X159000000Y-55448638D01*
G37*
%TD.AperFunction*%
%TD*%
%TA.AperFunction,Conductor*%
%TO.N,SD_D1*%
G36*
X132560780Y-60258037D02*
G01*
X132986539Y-60372669D01*
X132993636Y-60378128D01*
X132995196Y-60383966D01*
X132995196Y-60616033D01*
X132991769Y-60624306D01*
X132986538Y-60627331D01*
X132560802Y-60741957D01*
X132551922Y-60740799D01*
X132546462Y-60733701D01*
X132546298Y-60733007D01*
X132499472Y-60502325D01*
X132499472Y-60497674D01*
X132546295Y-60267010D01*
X132551298Y-60259586D01*
X132560088Y-60257874D01*
X132560780Y-60258037D01*
G37*
%TD.AperFunction*%
%TD*%
%TA.AperFunction,Conductor*%
%TO.N,Net-(U1-ILIM)*%
G36*
X147947679Y-61259561D02*
G01*
X147953496Y-61266368D01*
X147953836Y-61267659D01*
X148000527Y-61497672D01*
X148000527Y-61502328D01*
X147953836Y-61732340D01*
X147948832Y-61739766D01*
X147940042Y-61741478D01*
X147938751Y-61741138D01*
X147512885Y-61602628D01*
X147506078Y-61596811D01*
X147504804Y-61591502D01*
X147504804Y-61408497D01*
X147508231Y-61400224D01*
X147512882Y-61397372D01*
X147938752Y-61258861D01*
X147947679Y-61259561D01*
G37*
%TD.AperFunction*%
%TD*%
%TA.AperFunction,Conductor*%
%TO.N,VCC*%
G36*
X121916442Y-56269685D02*
G01*
X121937084Y-56286319D01*
X122684312Y-57033548D01*
X122699733Y-57052339D01*
X122764138Y-57148728D01*
X122764144Y-57148736D01*
X122851263Y-57235855D01*
X122851267Y-57235858D01*
X122953707Y-57304307D01*
X122953720Y-57304314D01*
X123010631Y-57327887D01*
X123067548Y-57351463D01*
X123072986Y-57352544D01*
X123089744Y-57361309D01*
X123108227Y-57365330D01*
X123133253Y-57384065D01*
X123134896Y-57384924D01*
X123136481Y-57386481D01*
X123162319Y-57412319D01*
X123195804Y-57473642D01*
X123190820Y-57543334D01*
X123162319Y-57587681D01*
X122536319Y-58213681D01*
X122474996Y-58247166D01*
X122448638Y-58250000D01*
X121551362Y-58250000D01*
X121484323Y-58230315D01*
X121463681Y-58213681D01*
X120337681Y-57087681D01*
X120304196Y-57026358D01*
X120309180Y-56956666D01*
X120337681Y-56912319D01*
X120963681Y-56286319D01*
X121025004Y-56252834D01*
X121051362Y-56250000D01*
X121849403Y-56250000D01*
X121916442Y-56269685D01*
G37*
%TD.AperFunction*%
%TD*%
%TA.AperFunction,Conductor*%
%TO.N,SD_D1*%
G36*
X135232988Y-54546294D02*
G01*
X135240413Y-54551298D01*
X135242125Y-54560088D01*
X135241957Y-54560802D01*
X135127331Y-54986538D01*
X135121871Y-54993636D01*
X135116033Y-54995196D01*
X134883967Y-54995196D01*
X134875694Y-54991769D01*
X134872669Y-54986538D01*
X134858549Y-54934097D01*
X134758042Y-54560800D01*
X134759200Y-54551922D01*
X134766298Y-54546462D01*
X134766985Y-54546300D01*
X134997675Y-54499472D01*
X135002325Y-54499472D01*
X135232988Y-54546294D01*
G37*
%TD.AperFunction*%
%TD*%
%TA.AperFunction,Conductor*%
%TO.N,Net-(U2-VDD)*%
G36*
X128839830Y-54810487D02*
G01*
X128840966Y-54811921D01*
X128999680Y-55048036D01*
X129001453Y-55052318D01*
X129055944Y-55331027D01*
X129054168Y-55339804D01*
X129046706Y-55344755D01*
X129045086Y-55344955D01*
X128496213Y-55374340D01*
X128487769Y-55371361D01*
X128483905Y-55363282D01*
X128483888Y-55362657D01*
X128483888Y-55130102D01*
X128487315Y-55121829D01*
X128487613Y-55121541D01*
X128823297Y-54809873D01*
X128831690Y-54806756D01*
X128839830Y-54810487D01*
G37*
%TD.AperFunction*%
%TD*%
%TA.AperFunction,Conductor*%
%TO.N,CC2*%
G36*
X146311241Y-46758859D02*
G01*
X146737116Y-46897372D01*
X146743922Y-46903188D01*
X146745196Y-46908497D01*
X146745196Y-47091502D01*
X146741769Y-47099775D01*
X146737115Y-47102628D01*
X146311248Y-47241138D01*
X146302320Y-47240438D01*
X146296503Y-47233631D01*
X146296163Y-47232340D01*
X146249472Y-47002325D01*
X146249472Y-46997674D01*
X146296163Y-46767657D01*
X146301167Y-46760233D01*
X146309957Y-46758521D01*
X146311241Y-46758859D01*
G37*
%TD.AperFunction*%
%TD*%
%TA.AperFunction,Conductor*%
%TO.N,SD_VCC*%
G36*
X132439631Y-54059354D02*
G01*
X132443535Y-54065960D01*
X132500530Y-54347680D01*
X132500530Y-54352320D01*
X132443535Y-54634039D01*
X132438535Y-54641468D01*
X132431104Y-54643379D01*
X131916501Y-54600886D01*
X131908538Y-54596790D01*
X131905764Y-54589226D01*
X131905764Y-54110773D01*
X131909191Y-54102500D01*
X131916499Y-54099113D01*
X132431104Y-54056620D01*
X132439631Y-54059354D01*
G37*
%TD.AperFunction*%
%TD*%
%TA.AperFunction,Conductor*%
%TO.N,SDA*%
G36*
X121185329Y-52621644D02*
G01*
X121186001Y-52622797D01*
X121251415Y-52751273D01*
X121389193Y-53021872D01*
X121389893Y-53030800D01*
X121387040Y-53035454D01*
X121257636Y-53164858D01*
X121249363Y-53168285D01*
X121244055Y-53167011D01*
X120844979Y-52963819D01*
X120839162Y-52957012D01*
X120839862Y-52948084D01*
X120840534Y-52946931D01*
X120970163Y-52751273D01*
X120973455Y-52747981D01*
X121162404Y-52622797D01*
X121169113Y-52618351D01*
X121177902Y-52616640D01*
X121185329Y-52621644D01*
G37*
%TD.AperFunction*%
%TD*%
%TA.AperFunction,Conductor*%
%TO.N,SD_D0*%
G36*
X134374306Y-58258231D02*
G01*
X134377331Y-58263462D01*
X134491957Y-58689197D01*
X134490799Y-58698077D01*
X134483701Y-58703537D01*
X134482987Y-58703705D01*
X134252328Y-58750527D01*
X134247672Y-58750527D01*
X134017012Y-58703705D01*
X134009586Y-58698701D01*
X134007874Y-58689911D01*
X134008035Y-58689226D01*
X134122669Y-58263462D01*
X134128129Y-58256364D01*
X134133967Y-58254804D01*
X134366033Y-58254804D01*
X134374306Y-58258231D01*
G37*
%TD.AperFunction*%
%TD*%
%TA.AperFunction,Conductor*%
%TO.N,SCL_2*%
G36*
X144599775Y-58758231D02*
G01*
X144602628Y-58762885D01*
X144741138Y-59188751D01*
X144740438Y-59197679D01*
X144733631Y-59203496D01*
X144732340Y-59203836D01*
X144502328Y-59250527D01*
X144497672Y-59250527D01*
X144267659Y-59203836D01*
X144260233Y-59198832D01*
X144258521Y-59190042D01*
X144258857Y-59188762D01*
X144397372Y-58762885D01*
X144403189Y-58756078D01*
X144408498Y-58754804D01*
X144591502Y-58754804D01*
X144599775Y-58758231D01*
G37*
%TD.AperFunction*%
%TD*%
%TA.AperFunction,Conductor*%
%TO.N,VCC*%
G36*
X117276956Y-47806525D02*
G01*
X117299430Y-47810085D01*
X117301673Y-47810813D01*
X117302919Y-47810689D01*
X117336323Y-47822071D01*
X117363426Y-47835881D01*
X117394811Y-47858684D01*
X117433160Y-47897034D01*
X117447581Y-47914351D01*
X117451242Y-47919664D01*
X117494688Y-47967685D01*
X117494700Y-47967697D01*
X117494713Y-47967711D01*
X117502586Y-47975575D01*
X117509361Y-47982343D01*
X117589178Y-48026990D01*
X117631220Y-48039335D01*
X117660467Y-48047923D01*
X117659870Y-48049953D01*
X117679257Y-48060526D01*
X117707203Y-48073289D01*
X117709656Y-48077106D01*
X117713638Y-48079278D01*
X117728369Y-48106224D01*
X117744977Y-48132067D01*
X117745862Y-48138222D01*
X117747153Y-48140584D01*
X117750000Y-48167002D01*
X117750000Y-48332023D01*
X117730315Y-48399062D01*
X117677511Y-48444817D01*
X117664164Y-48450004D01*
X117645900Y-48455912D01*
X117640123Y-48457627D01*
X117597930Y-48469043D01*
X117578225Y-48475457D01*
X117549428Y-48494716D01*
X117549429Y-48494717D01*
X117534198Y-48504905D01*
X117533796Y-48504230D01*
X117518011Y-48513636D01*
X117503039Y-48525746D01*
X117502201Y-48526307D01*
X117499924Y-48528230D01*
X117497933Y-48529875D01*
X117472555Y-48550404D01*
X117472550Y-48550408D01*
X117472549Y-48550410D01*
X117468291Y-48555000D01*
X117460807Y-48563067D01*
X117460806Y-48563070D01*
X117438708Y-48594715D01*
X117424724Y-48611402D01*
X117364888Y-48671238D01*
X117351972Y-48682482D01*
X117345507Y-48687368D01*
X117345505Y-48687369D01*
X117332918Y-48700940D01*
X117321194Y-48714756D01*
X117307777Y-48732062D01*
X117273009Y-48800077D01*
X117273008Y-48800080D01*
X117253326Y-48867106D01*
X117253325Y-48867114D01*
X117245002Y-48925002D01*
X117245000Y-48925015D01*
X117245000Y-49331611D01*
X117240774Y-49363706D01*
X117240774Y-49363707D01*
X117232527Y-49394483D01*
X117220140Y-49424388D01*
X117204206Y-49451986D01*
X117184500Y-49477666D01*
X117161980Y-49500186D01*
X117136302Y-49519891D01*
X117108705Y-49535825D01*
X117078797Y-49548213D01*
X117048020Y-49556460D01*
X117015925Y-49560686D01*
X116984073Y-49560686D01*
X116951977Y-49556460D01*
X116921201Y-49548213D01*
X116891296Y-49535826D01*
X116863698Y-49519892D01*
X116838018Y-49500186D01*
X116815498Y-49477666D01*
X116795791Y-49451984D01*
X116779857Y-49424385D01*
X116767470Y-49394478D01*
X116759225Y-49363706D01*
X116755000Y-49331614D01*
X116755000Y-48925020D01*
X116754999Y-48925002D01*
X116753912Y-48913328D01*
X116751468Y-48887074D01*
X116751245Y-48885888D01*
X116743027Y-48842140D01*
X116743016Y-48842079D01*
X116742113Y-48837554D01*
X116703777Y-48754520D01*
X116665915Y-48705425D01*
X116665914Y-48705425D01*
X116662593Y-48701119D01*
X116662594Y-48701119D01*
X116661115Y-48699201D01*
X116661109Y-48699195D01*
X116649643Y-48684327D01*
X116649642Y-48684324D01*
X116649332Y-48683923D01*
X116647737Y-48683222D01*
X116639920Y-48676047D01*
X116583684Y-48619810D01*
X116582299Y-48617904D01*
X116581219Y-48617274D01*
X116560883Y-48588428D01*
X116547074Y-48561327D01*
X116535084Y-48524423D01*
X116531526Y-48501951D01*
X116530000Y-48482560D01*
X116530000Y-48017438D01*
X116531526Y-47998047D01*
X116535084Y-47975575D01*
X116547072Y-47938673D01*
X116560885Y-47911565D01*
X116562269Y-47909659D01*
X116562536Y-47908436D01*
X116583684Y-47880185D01*
X116605187Y-47858682D01*
X116636565Y-47835884D01*
X116663676Y-47822071D01*
X116700570Y-47810085D01*
X116723045Y-47806526D01*
X116742439Y-47805000D01*
X117257561Y-47805000D01*
X117276956Y-47806525D01*
G37*
%TD.AperFunction*%
%TD*%
%TA.AperFunction,Conductor*%
%TO.N,/BQ_STAT*%
G36*
X121983055Y-51796330D02*
G01*
X121990489Y-51801320D01*
X121992216Y-51810107D01*
X121992067Y-51810754D01*
X121907173Y-52135930D01*
X121904125Y-52141248D01*
X121775801Y-52269572D01*
X121767528Y-52272999D01*
X121759255Y-52269572D01*
X121757359Y-52267086D01*
X121682719Y-52135930D01*
X121547504Y-51898331D01*
X121546323Y-51895384D01*
X121546319Y-51895368D01*
X121547637Y-51886510D01*
X121551127Y-51882831D01*
X121745240Y-51752023D01*
X121754014Y-51750243D01*
X121983055Y-51796330D01*
G37*
%TD.AperFunction*%
%TD*%
%TA.AperFunction,Conductor*%
%TO.N,SDA_2*%
G36*
X143849775Y-59258231D02*
G01*
X143852628Y-59262885D01*
X143991138Y-59688751D01*
X143990438Y-59697679D01*
X143983631Y-59703496D01*
X143982340Y-59703836D01*
X143752328Y-59750527D01*
X143747672Y-59750527D01*
X143517659Y-59703836D01*
X143510233Y-59698832D01*
X143508521Y-59690042D01*
X143508857Y-59688762D01*
X143647372Y-59262885D01*
X143653189Y-59256078D01*
X143658498Y-59254804D01*
X143841502Y-59254804D01*
X143849775Y-59258231D01*
G37*
%TD.AperFunction*%
%TD*%
M02*
