M48
; DRILL file {KiCad 9.0.1-rc2-202503292320~1d443ca74c~ubuntu24.04.1} date 2025-04-04T23:22:05+1000
; FORMAT={-:-/ absolute / metric / decimal}
; #@! TF.CreationDate,2025-04-04T23:22:05+10:00
; #@! TF.GenerationSoftware,Kicad,Pcbnew,9.0.1-rc2-202503292320~1d443ca74c~ubuntu24.04.1
; #@! TF.FileFunction,Plated,1,4,PTH
FMAT,2
METRIC
; #@! TA.AperFunction,Plated,PTH,ComponentDrill
T1C0.200
; #@! TA.AperFunction,Plated,PTH,ViaDrill
T2C0.250
; #@! TA.AperFunction,Plated,PTH,ViaDrill
T3C0.300
; #@! TA.AperFunction,Plated,PTH,ComponentDrill
T4C0.300
; #@! TA.AperFunction,Plated,PTH,ViaDrill
T5C0.400
; #@! TA.AperFunction,Plated,PTH,ComponentDrill
T6C0.500
; #@! TA.AperFunction,Plated,PTH,ComponentDrill
T7C0.600
; #@! TA.AperFunction,Plated,PTH,ComponentDrill
T8C0.700
; #@! TA.AperFunction,Plated,PTH,ComponentDrill
T9C0.750
%
G90
G05
T1
X146.9Y-57.4
X146.9Y-58.5
X146.9Y-59.6
X148.0Y-57.4
X148.0Y-58.5
X148.0Y-59.6
X149.1Y-57.4
X149.1Y-58.5
X149.1Y-59.6
T2
X117.0Y-49.316
X120.2Y-48.5
X120.972Y-52.75
X121.126Y-52.067
X121.236Y-47.736
X121.75Y-51.75
X122.0Y-48.0
X122.0Y-49.5
X126.5Y-50.5
X126.5Y-51.251
X132.5Y-60.5
X134.25Y-54.5
X134.25Y-58.75
X135.0Y-54.5
X143.0Y-56.5
X143.75Y-59.75
X144.5Y-59.25
X146.25Y-47.0
X148.0Y-55.0
X148.0Y-61.5
X149.25Y-47.0
X149.25Y-61.5
X154.0Y-58.25
X154.0Y-58.75
X154.5Y-58.25
X154.5Y-58.75
X155.0Y-58.25
X155.0Y-58.75
T3
X116.0Y-52.0
X117.5Y-45.0
X118.0Y-54.0
X119.0Y-55.0
X123.605Y-50.75
X124.75Y-51.5
X124.855Y-42.15
X125.0Y-54.5
X126.5Y-53.0
X126.66Y-48.75
X127.25Y-60.5
X129.0Y-55.05
X130.0Y-60.5
X130.605Y-46.5
X131.5Y-61.25
X132.5Y-54.35
X132.805Y-42.025
X135.0Y-60.0
X136.205Y-42.15
X136.25Y-53.0
X136.455Y-49.75
X137.5Y-55.0
X137.75Y-53.008
X142.5Y-57.5
X144.8Y-47.99
X145.6Y-47.99
X150.4Y-47.99
X151.2Y-47.99
X152.25Y-56.5
X156.7Y-47.5
X157.5Y-42.5
T4
X147.2Y-42.65
X147.2Y-43.2
X147.2Y-43.75
X147.75Y-42.65
X147.75Y-43.2
X147.75Y-43.75
X148.3Y-42.65
X148.3Y-43.2
X148.3Y-43.75
T5
X119.0Y-50.75
X131.25Y-57.5
X133.5Y-53.0
X136.0Y-57.0
X136.75Y-56.25
X136.75Y-57.0
X136.75Y-57.75
X137.5Y-57.0
X139.25Y-55.0
X139.25Y-55.75
X139.25Y-58.5
X139.5Y-49.5
X139.5Y-50.25
X139.5Y-51.0
X139.5Y-51.75
X140.0Y-55.0
X140.0Y-55.75
X140.0Y-57.75
X140.0Y-58.5
X140.0Y-59.25
X140.25Y-49.5
X140.25Y-50.25
X140.25Y-51.0
X140.25Y-51.75
X140.75Y-55.0
X140.75Y-55.75
X140.75Y-58.5
X141.0Y-49.5
X141.0Y-50.25
X141.0Y-51.0
X141.0Y-51.75
X141.75Y-49.5
X141.75Y-50.25
X141.75Y-51.0
X141.75Y-51.75
X145.5Y-52.25
X145.5Y-53.0
X145.5Y-53.75
X146.25Y-52.25
X146.25Y-53.0
X146.25Y-53.75
X151.25Y-50.5
X151.25Y-51.25
X151.25Y-52.0
X151.25Y-52.75
X151.25Y-59.75
X151.25Y-60.5
X151.25Y-61.25
X152.0Y-50.5
X152.0Y-51.25
X152.0Y-52.0
X152.0Y-52.75
X152.0Y-59.75
X152.0Y-60.5
X152.0Y-61.25
X152.75Y-50.5
X152.75Y-51.25
X152.75Y-52.0
X152.75Y-52.75
X152.75Y-59.75
X152.75Y-60.5
X152.75Y-61.25
T6
X122.543Y-57.457
X123.25Y-56.75
X123.957Y-56.043
X124.191Y-59.427
X124.898Y-58.72
X155.75Y-50.5
X156.75Y-50.5
T8
X115.25Y-48.0
X115.25Y-49.27
T9
X160.75Y-44.0
X160.75Y-46.0
T7
G00X143.68Y-43.635
M15
G01X143.68Y-42.835
M16
G05
G00X143.68Y-47.965
M15
G01X143.68Y-46.865
M16
G05
G00X152.32Y-43.635
M15
G01X152.32Y-42.835
M16
G05
G00X152.32Y-47.965
M15
G01X152.32Y-46.865
M16
G05
M30
