%TF.GenerationSoftware,KiCad,Pcbnew,9.0.1-rc2-202503292320~1d443ca74c~ubuntu24.04.1*%
%TF.CreationDate,2025-04-04T23:21:44+10:00*%
%TF.ProjectId,Stormbreaker,53746f72-6d62-4726-9561-6b65722e6b69,rev?*%
%TF.SameCoordinates,Original*%
%TF.FileFunction,Soldermask,Bot*%
%TF.FilePolarity,Negative*%
%FSLAX46Y46*%
G04 Gerber Fmt 4.6, Leading zero omitted, Abs format (unit mm)*
G04 Created by KiCad (PCBNEW 9.0.1-rc2-202503292320~1d443ca74c~ubuntu24.04.1) date 2025-04-04 23:21:44*
%MOMM*%
%LPD*%
G01*
G04 APERTURE LIST*
G04 Aperture macros list*
%AMRoundRect*
0 Rectangle with rounded corners*
0 $1 Rounding radius*
0 $2 $3 $4 $5 $6 $7 $8 $9 X,Y pos of 4 corners*
0 Add a 4 corners polygon primitive as box body*
4,1,4,$2,$3,$4,$5,$6,$7,$8,$9,$2,$3,0*
0 Add four circle primitives for the rounded corners*
1,1,$1+$1,$2,$3*
1,1,$1+$1,$4,$5*
1,1,$1+$1,$6,$7*
1,1,$1+$1,$8,$9*
0 Add four rect primitives between the rounded corners*
20,1,$1+$1,$2,$3,$4,$5,0*
20,1,$1+$1,$4,$5,$6,$7,0*
20,1,$1+$1,$6,$7,$8,$9,0*
20,1,$1+$1,$8,$9,$2,$3,0*%
%AMHorizOval*
0 Thick line with rounded ends*
0 $1 width*
0 $2 $3 position (X,Y) of the first rounded end (center of the circle)*
0 $4 $5 position (X,Y) of the second rounded end (center of the circle)*
0 Add line between two ends*
20,1,$1,$2,$3,$4,$5,0*
0 Add two circle primitives to create the rounded ends*
1,1,$1,$2,$3*
1,1,$1,$4,$5*%
%AMRotRect*
0 Rectangle, with rotation*
0 The origin of the aperture is its center*
0 $1 length*
0 $2 width*
0 $3 Rotation angle, in degrees counterclockwise*
0 Add horizontal line*
21,1,$1,$2,0,0,$3*%
G04 Aperture macros list end*
%ADD10RotRect,0.850000X0.850000X135.000000*%
%ADD11HorizOval,0.850000X0.000000X0.000000X0.000000X0.000000X0*%
%ADD12C,0.650000*%
%ADD13O,1.000000X2.100000*%
%ADD14O,1.000000X1.800000*%
%ADD15RoundRect,0.250000X0.625000X-0.350000X0.625000X0.350000X-0.625000X0.350000X-0.625000X-0.350000X0*%
%ADD16O,1.750000X1.200000*%
%ADD17C,0.850000*%
%ADD18R,0.850000X0.850000*%
%ADD19O,0.850000X0.850000*%
%ADD20R,1.000000X1.000000*%
%ADD21O,1.000000X1.000000*%
%ADD22RoundRect,0.225000X0.250000X-0.225000X0.250000X0.225000X-0.250000X0.225000X-0.250000X-0.225000X0*%
%ADD23RoundRect,0.200000X-0.200000X-0.275000X0.200000X-0.275000X0.200000X0.275000X-0.200000X0.275000X0*%
%ADD24RoundRect,0.225000X0.225000X0.250000X-0.225000X0.250000X-0.225000X-0.250000X0.225000X-0.250000X0*%
%ADD25RoundRect,0.135000X-0.135000X-0.185000X0.135000X-0.185000X0.135000X0.185000X-0.135000X0.185000X0*%
%ADD26RoundRect,0.135000X0.135000X0.185000X-0.135000X0.185000X-0.135000X-0.185000X0.135000X-0.185000X0*%
%ADD27RoundRect,0.135000X0.185000X-0.135000X0.185000X0.135000X-0.185000X0.135000X-0.185000X-0.135000X0*%
%ADD28RoundRect,0.135000X-0.185000X0.135000X-0.185000X-0.135000X0.185000X-0.135000X0.185000X0.135000X0*%
%ADD29RoundRect,0.225000X-0.225000X-0.250000X0.225000X-0.250000X0.225000X0.250000X-0.225000X0.250000X0*%
%ADD30RoundRect,0.200000X-0.053033X0.335876X-0.335876X0.053033X0.053033X-0.335876X0.335876X-0.053033X0*%
%ADD31RoundRect,0.062500X0.062500X-0.337500X0.062500X0.337500X-0.062500X0.337500X-0.062500X-0.337500X0*%
%ADD32RoundRect,0.062500X0.337500X-0.062500X0.337500X0.062500X-0.337500X0.062500X-0.337500X-0.062500X0*%
%ADD33RoundRect,0.250000X0.600000X-0.600000X0.600000X0.600000X-0.600000X0.600000X-0.600000X-0.600000X0*%
G04 APERTURE END LIST*
D10*
%TO.C,J3*%
X122542893Y-57457107D03*
D11*
X123250000Y-56750000D03*
X123957107Y-56042893D03*
%TD*%
D12*
%TO.C,J2*%
X150890000Y-46915000D03*
X145110000Y-46915000D03*
D13*
X152320000Y-47415000D03*
D14*
X152320000Y-43235000D03*
D13*
X143680000Y-47415000D03*
D14*
X143680000Y-43235000D03*
%TD*%
D15*
%TO.C,BT2*%
X160750000Y-46000000D03*
D16*
X160750000Y-44000000D03*
%TD*%
D10*
%TO.C,J5*%
X124191386Y-59426777D03*
D17*
X124898493Y-58719670D03*
%TD*%
D18*
%TO.C,J4*%
X156750000Y-50500000D03*
D19*
X155750000Y-50500000D03*
%TD*%
D20*
%TO.C,BT1*%
X115250000Y-48000000D03*
D21*
X115250000Y-49270000D03*
%TD*%
D22*
%TO.C,C13*%
X117000000Y-48250000D03*
X117000000Y-46700000D03*
%TD*%
D23*
%TO.C,R9*%
X122600000Y-49500000D03*
X124250000Y-49500000D03*
%TD*%
D22*
%TO.C,C9*%
X126250000Y-60500000D03*
X126250000Y-58950000D03*
%TD*%
D23*
%TO.C,R10*%
X122600000Y-48000000D03*
X124250000Y-48000000D03*
%TD*%
D24*
%TO.C,C11*%
X129500000Y-46500000D03*
X127950000Y-46500000D03*
%TD*%
D25*
%TO.C,R1*%
X145000000Y-61250000D03*
X146020000Y-61250000D03*
%TD*%
D22*
%TO.C,C2*%
X151250000Y-58250000D03*
X151250000Y-56700000D03*
%TD*%
D26*
%TO.C,R12*%
X145000000Y-41750000D03*
X143980000Y-41750000D03*
%TD*%
D27*
%TO.C,R11*%
X150500000Y-44220000D03*
X150500000Y-43200000D03*
%TD*%
D22*
%TO.C,C10*%
X128250000Y-60500000D03*
X128250000Y-58950000D03*
%TD*%
D28*
%TO.C,R2*%
X149750000Y-59980000D03*
X149750000Y-61000000D03*
%TD*%
D29*
%TO.C,C15*%
X143495000Y-45500000D03*
X145045000Y-45500000D03*
%TD*%
D30*
%TO.C,R7*%
X122250000Y-55750000D03*
X121083274Y-56916726D03*
%TD*%
D27*
%TO.C,R6*%
X145000000Y-44250000D03*
X145000000Y-43230000D03*
%TD*%
D26*
%TO.C,R3*%
X148500000Y-60500000D03*
X147480000Y-60500000D03*
%TD*%
D24*
%TO.C,C8*%
X127750000Y-55250000D03*
X126200000Y-55250000D03*
%TD*%
D31*
%TO.C,U4*%
X148500000Y-44650000D03*
X148000000Y-44650000D03*
X147500000Y-44650000D03*
X147000000Y-44650000D03*
D32*
X146300000Y-43950000D03*
X146300000Y-43450000D03*
X146300000Y-42950000D03*
X146300000Y-42450000D03*
D31*
X147000000Y-41750000D03*
X147500000Y-41750000D03*
X148000000Y-41750000D03*
X148500000Y-41750000D03*
D32*
X149200000Y-42450000D03*
X149200000Y-42950000D03*
X149200000Y-43450000D03*
X149200000Y-43950000D03*
D33*
X147750000Y-43200000D03*
%TD*%
M02*
